# Blender v2.76 (sub 0) OBJ File: ''
# www.blender.org
mtllib Left Little Limb0.mtl
o Left_Little_Limb0
v 0.011700 0.013674 0.020508
v 0.007298 0.023351 0.023345
v -0.002939 0.012720 0.030752
v 0.006346 0.002045 0.023101
v 0.008896 -0.008171 0.022970
v -0.003516 -0.007163 0.031760
v 0.018111 -0.024060 0.017750
v 0.016775 -0.009546 0.016680
v 0.024427 -0.008051 0.012724
v 0.029181 -0.017622 0.009731
v 0.024108 -0.018888 0.003113
v 0.020062 -0.009885 0.005864
v 0.000844 -0.024039 -0.000250
v -0.013680 0.003132 0.008816
v 0.010031 -0.024376 0.006741
v -0.006613 0.005805 0.014346
v 0.007015 0.013805 0.013340
v 0.024163 -0.003841 -0.003687
v 0.011267 0.020609 0.002669
v 0.019553 -0.001496 -0.012636
v 0.008247 0.019655 -0.005579
v 0.030416 0.001256 -0.009629
v 0.024750 -0.000546 -0.016012
v 0.025379 0.000079 -0.016426
v 0.025849 0.000878 -0.016741
v 0.026129 0.001796 -0.016933
v 0.026199 0.002771 -0.016990
v 0.026055 0.003736 -0.016909
v 0.025707 0.004625 -0.016695
v 0.030289 -0.001381 0.004312
v 0.022451 -0.002279 -0.014503
v 0.019989 -0.002084 -0.012911
v 0.020555 -0.002485 -0.013273
v 0.021196 -0.002658 -0.013685
v 0.021850 -0.002587 -0.014109
v 0.003401 -0.019420 0.026121
v 0.018860 0.008427 0.015213
v 0.018095 -0.002324 0.032339
v 0.028425 0.004961 0.025426
v 0.018879 0.006541 0.031547
v 0.024949 -0.005389 0.027617
v 0.021834 -0.002835 0.014021
v 0.010462 0.006648 0.020747
v -0.004249 0.021496 0.009973
v -0.002062 0.013024 0.007027
v -0.015727 0.012402 0.010026
v -0.014648 0.014606 0.009301
v -0.016611 0.010076 0.010627
v -0.017290 0.007654 0.011096
v -0.017757 0.005159 0.011429
v -0.018007 0.002619 0.011622
v -0.018038 0.000061 0.011674
v -0.017848 -0.002490 0.011583
v -0.017441 -0.005006 0.011350
v -0.016820 -0.007461 0.010979
v -0.015993 -0.009830 0.010472
v -0.014966 -0.012087 0.009836
v -0.013752 -0.014208 0.009076
v -0.012364 -0.016172 0.008202
v -0.010815 -0.017958 0.007221
v -0.009121 -0.019547 0.006145
v -0.007302 -0.020922 0.004984
v -0.005375 -0.022070 0.003751
v -0.003361 -0.022978 0.002458
v -0.001281 -0.023637 0.001120
v -0.009427 0.017628 0.010104
v -0.009358 0.014537 0.005878
v -0.009858 0.015258 0.006193
v -0.010492 0.015811 0.006596
v -0.011219 0.016161 0.007062
v -0.011995 0.016288 0.007563
v -0.012773 0.016182 0.008068
v -0.013502 0.015852 0.008544
v -0.014141 0.015315 0.008964
v 0.008884 0.023103 -0.006034
v 0.008393 0.022588 -0.005710
v 0.008061 0.021916 -0.005487
v 0.007920 0.021153 -0.005386
v 0.007984 0.020374 -0.005418
v 0.011183 0.024835 -0.007544
v 0.019416 0.024091 0.004304
v 0.015531 0.023661 -0.010343
v 0.015002 0.024414 -0.010010
v 0.014328 0.024980 -0.009581
v 0.013555 0.025319 -0.009085
v 0.012736 0.025410 -0.008556
v 0.011927 0.025244 -0.008030
v -0.007384 0.010844 0.004646
v -0.012689 0.006846 0.008128
v -0.011558 0.004731 0.007423
v -0.018376 -0.022620 -0.016714
v -0.001774 -0.024441 -0.008318
v -0.005547 -0.023535 -0.025236
v 0.006542 -0.020258 -0.022718
v 0.003020 -0.018386 -0.030386
v -0.030634 -0.007552 -0.008881
v -0.028333 0.013915 -0.011009
v -0.013192 0.017261 0.004552
v -0.011052 0.021401 -0.000778
v -0.018500 0.022874 -0.016800
v 0.019357 0.000645 -0.025444
v -0.001841 -0.008429 -0.026874
v 0.006106 -0.004363 -0.029503
v 0.013730 -0.004016 -0.020899
v 0.002930 -0.010146 -0.020616
v -0.017789 0.004909 -0.003115
v -0.009076 0.013374 -0.011900
v 0.001659 0.020362 -0.011829
v -0.007474 0.012577 -0.000764
v -0.014357 0.013631 -0.019987
v -0.016283 -0.001012 -0.016840
v -0.013503 0.006852 -0.018789
v -0.007436 0.008232 -0.022760
v -0.010342 0.014563 -0.021675
v -0.002028 0.001820 -0.025995
v -0.006741 -0.007180 -0.023280
v -0.019853 -0.006067 -0.031670
v -0.021828 0.004778 -0.029645
v -0.013876 0.006204 -0.035136
v -0.011496 -0.001664 -0.036320
v -0.014169 -0.011018 -0.018659
v -0.019733 0.004287 -0.015122
v 0.006175 0.024657 -0.017936
v -0.018598 -0.007388 -0.017663
v -0.015334 0.007234 -0.001616
vn 0.572400 0.020000 0.819800
vn 0.575000 -0.083200 0.813900
vn 0.738600 0.176000 0.650700
vn 0.579100 0.024500 0.814900
vn 0.580300 0.070000 0.811400
vn 0.631900 0.114600 0.766500
vn 0.440300 0.106200 0.891600
vn 0.574900 0.029900 0.817700
vn 0.652700 0.474000 -0.591000
vn 0.662200 0.502700 -0.555700
vn 0.532700 0.510000 -0.675400
vn 0.443600 0.441200 -0.780100
vn -0.163200 0.155500 -0.974300
vn -0.297900 0.139700 -0.944300
vn -0.095300 0.251500 -0.963200
vn -0.805700 -0.278800 -0.522500
vn -0.808600 -0.294000 -0.509600
vn -0.814300 -0.504200 0.287400
vn -0.775000 -0.529400 0.345000
vn 0.571600 -0.767300 -0.290800
vn 0.700600 -0.577300 -0.419300
vn 0.797500 -0.346500 -0.493800
vn 0.855800 -0.091700 -0.509100
vn 0.869800 0.168900 -0.463500
vn 0.836000 0.414500 -0.359600
vn 0.653700 -0.744700 -0.134900
vn 0.499300 -0.841700 -0.205600
vn 0.497300 -0.844100 -0.200600
vn 0.477700 -0.849100 -0.225500
vn 0.631900 -0.748200 -0.202100
vn -0.735900 -0.643500 0.210500
vn -0.538800 -0.838200 0.084200
vn -0.278900 -0.959800 -0.030800
vn 0.026600 -0.991800 -0.125200
vn 0.347800 -0.918600 -0.187700
vn 0.453300 -0.148500 0.878900
vn 0.542700 0.027000 0.839500
vn 0.563000 -0.014100 0.826400
vn 0.522000 0.047700 0.851600
vn 0.559200 -0.070400 0.826000
vn 0.552400 -0.069100 0.830700
vn 0.632600 0.148100 0.760200
vn 0.458300 0.006800 0.888800
vn -0.571100 -0.726000 0.383000
vn -0.109900 -0.899000 0.423900
vn 0.708400 -0.646400 -0.283700
vn 0.893400 -0.357600 -0.271800
vn 0.747200 0.262000 -0.610800
vn 0.231300 0.966500 0.111300
vn -0.133600 0.984500 0.113800
vn -0.782100 0.123800 0.610700
vn -0.313900 0.639600 0.701700
vn 0.500900 0.396800 -0.769200
vn 0.571600 0.585500 -0.574800
vn 0.740200 0.475900 -0.475000
vn -0.736600 0.507800 0.446700
vn -0.509200 0.787500 0.347200
vn -0.554100 0.753800 0.353300
vn -0.536200 0.764900 0.356900
vn -0.776300 0.417100 0.472600
vn -0.802200 0.322200 0.502700
vn -0.813700 0.223900 0.536400
vn -0.810200 0.123300 0.573100
vn -0.790900 0.021700 0.611600
vn -0.800000 0.053500 0.597600
vn -0.821300 -0.081100 0.564600
vn -0.821000 -0.182800 0.540900
vn -0.806000 -0.282500 0.520100
vn -0.776800 -0.379100 0.502800
vn -0.733700 -0.471600 0.489100
vn -0.676900 -0.558800 0.479000
vn -0.653000 -0.588100 0.477300
vn -0.630200 -0.640900 0.438300
vn -0.583200 -0.716300 0.383200
vn -0.523800 -0.783900 0.333300
vn -0.453000 -0.843300 0.289300
vn -0.371400 -0.893800 0.251600
vn -0.279800 -0.934400 0.220400
vn -0.190100 -0.961400 0.198900
vn -0.183500 -0.964600 0.189400
vn -0.115900 -0.987100 0.110000
vn -0.130600 -0.983600 0.124100
vn 0.310400 -0.929100 -0.201100
vn 0.415600 -0.897600 -0.146900
vn 0.627500 0.633300 -0.452900
vn 0.355600 0.781400 -0.512700
vn 0.108900 0.868800 -0.483100
vn -0.098500 0.917800 -0.384600
vn -0.270400 0.937100 -0.221000
vn -0.404300 0.914500 0.015000
vn -0.478400 0.818600 0.317800
vn -0.459700 0.627200 0.628800
vn -0.548000 0.752300 0.365600
vn -0.770300 0.508800 0.384300
vn -0.896200 0.216900 0.387000
vn -0.921800 -0.091200 0.376900
vn -0.849100 -0.390300 0.356000
vn -0.413200 0.844700 0.340200
vn -0.426700 0.831700 0.355200
vn -0.426300 0.839600 0.336700
vn -0.479300 0.814000 0.328100
vn 0.750700 0.623900 -0.217400
vn 0.573400 0.803800 -0.158700
vn 0.361500 0.929500 -0.073000
vn 0.130900 0.990800 0.033600
vn -0.101000 0.983000 0.153200
vn -0.317200 0.906900 0.277400
vn 0.802600 0.524100 -0.285000
vn 0.813700 0.533200 -0.231500
vn 0.916600 0.391300 0.082400
vn 0.784800 0.335200 0.521200
vn 0.748400 0.155400 0.644800
vn 0.714000 0.382900 0.586200
vn 0.759100 0.531300 -0.376100
vn 0.080300 0.639400 -0.764700
vn -0.223900 0.268000 -0.937000
vn 0.324800 -0.828500 -0.456200
vn 0.500300 -0.751500 -0.430100
vn 0.411600 -0.763700 -0.497300
vn 0.649500 0.529300 -0.545900
vn 0.490900 -0.843000 -0.219900
vn -0.543300 -0.010300 -0.839500
vn -0.543300 -0.010400 -0.839500
vn 0.543300 0.010300 0.839500
vn -0.138000 -0.987500 0.075900
vn -0.158500 -0.982200 0.100400
vn -0.092600 -0.995200 -0.032600
vn 0.281900 -0.952700 -0.113900
vn 0.313000 -0.879500 -0.358500
vn -0.211100 -0.966300 0.147300
vn -0.287900 -0.934800 0.208000
vn -0.367500 -0.893700 0.257500
vn -0.449200 -0.843300 0.295200
vn -0.531800 -0.783800 0.320700
vn -0.637300 -0.693300 0.336400
vn -0.627200 -0.714400 0.310300
vn -0.663400 -0.641000 0.386100
vn -0.697300 -0.559400 0.448200
vn -0.729100 -0.471500 0.496100
vn -0.759000 -0.378600 0.529700
vn -0.787000 -0.282000 0.548700
vn -0.812900 -0.182600 0.553100
vn -0.836100 -0.081400 0.542500
vn -0.855800 0.020600 0.516900
vn -0.871000 0.121900 0.475900
vn -0.873500 0.139800 0.466300
vn -0.845300 0.223000 0.485500
vn -0.807300 0.322000 0.494500
vn -0.765900 0.417400 0.489000
vn -0.722200 0.508200 0.469300
vn -0.493000 0.815000 0.304400
vn -0.544200 0.754200 0.367400
vn -0.529200 0.786600 0.318300
vn -0.786600 0.609500 0.099500
vn -0.522500 0.816000 0.247400
vn -0.216900 0.925700 0.309800
vn 0.056400 0.956400 0.286600
vn 0.278200 0.940800 0.193400
vn 0.452000 0.891300 0.035100
vn 0.573100 0.796700 -0.192000
vn 0.613000 0.632300 -0.473700
vn 0.640600 0.408100 -0.650500
vn 0.745800 0.165700 -0.645300
vn 0.785200 -0.092700 -0.612200
vn 0.756300 -0.346800 -0.554800
vn 0.661700 -0.577500 -0.478100
vn 0.508700 -0.768600 -0.387900
vn 0.397200 -0.898200 -0.188500
vn 0.411900 -0.844600 -0.342100
vn 0.419100 -0.840600 -0.343100
vn 0.468400 -0.838100 -0.279500
vn 0.369500 -0.785000 -0.497200
vn 0.335200 -0.919000 -0.207400
vn 0.136700 -0.989600 0.044900
vn -0.085600 -0.959300 0.269200
vn -0.309400 -0.840100 0.445500
vn -0.517400 -0.645700 0.561500
vn 0.831500 0.514400 -0.209800
vn 0.817500 0.497500 -0.290000
vn 0.774400 0.326500 0.542000
vn 0.671200 0.074500 0.737500
vn 0.723000 0.116700 0.680900
vn 0.174000 -0.262900 0.949000
vn 0.168900 -0.269200 0.948200
vn -0.612300 -0.524600 0.591500
vn -0.615100 -0.523800 0.589200
vn 0.584800 0.520200 -0.622400
vn 0.725100 0.659200 0.199100
vn 0.771500 0.313700 0.553500
vn 0.921600 0.373500 -0.105800
vn 0.750000 0.592400 -0.294200
vn 0.736600 0.490600 -0.465500
vn -0.529200 -0.098500 -0.842700
vn -0.645400 -0.168500 -0.745000
vn -0.927100 -0.224800 0.299800
vn -0.763600 0.396200 0.509800
vn -0.228500 0.973500 -0.010800
vn -0.210100 0.976400 -0.050700
vn 0.580400 0.699700 -0.416600
vn 0.649900 0.301600 -0.697600
vn 0.710800 -0.516300 -0.477600
vn 0.210900 -0.870300 -0.445000
vn -0.312900 -0.873500 0.373000
vn -0.580500 0.059100 -0.812100
vn -0.567700 0.117500 -0.814800
vn -0.542000 0.038100 -0.839500
vn -0.306300 0.107300 -0.945900
vn -0.494500 -0.040400 -0.868300
vn -0.458700 -0.140400 -0.877400
vn -0.480800 -0.013500 -0.876700
vn -0.573400 0.048300 -0.817900
vn 0.571600 0.517900 -0.636400
vn 0.566900 0.512800 -0.644700
vn 0.143300 0.366100 -0.919500
vn -0.016000 0.370200 -0.928800
vn -0.323900 0.107300 -0.940000
vn -0.347100 0.073900 -0.934900
vn -0.312600 -0.291000 -0.904200
vn -0.049400 0.207800 -0.976900
vn 0.744300 0.513800 -0.426600
vn 0.873400 0.376200 -0.309300
vn -0.656500 -0.385500 0.648400
vn -0.709100 -0.086900 0.699800
vn -0.713000 0.219800 0.665900
vn -0.664600 0.510200 0.545900
vn -0.561700 0.752100 0.344600
vn -0.489900 0.843200 0.221600
vn -0.496800 0.838800 0.222600
vn -0.477800 0.844800 0.240900
vn -0.511000 0.781300 0.358500
vn -0.386600 0.906300 0.170800
vn -0.173300 0.984000 0.042300
vn 0.040000 0.993400 -0.107600
vn 0.237900 0.933500 -0.268200
vn 0.405800 0.808000 -0.427200
vn 0.530500 0.625900 -0.571700
vn -0.381600 0.797500 -0.467300
vn 0.517300 -0.837900 -0.173800
vn 0.561900 -0.785000 -0.260900
vn 0.567000 -0.811800 -0.139700
vn 0.832900 0.513800 -0.205600
vn 0.452500 -0.846000 -0.281800
vn 0.743600 -0.496200 -0.448100
vn 0.691100 -0.722700 -0.010900
vn -0.557400 0.020600 -0.830000
vn -0.542900 0.065900 -0.837200
vn 0.338400 0.609700 -0.716700
vn -0.555300 -0.059700 -0.829500
vn -0.587900 -0.058800 -0.806800
vn -0.589200 -0.016900 -0.807800
vn -0.250300 0.182600 -0.950800
vn -0.538100 -0.124500 -0.833700
vn -0.539200 0.048300 -0.840800
usemtl None
s off
f 1//1 2//1 3//1
f 1//2 3//2 4//2
f 4//3 3//3 5//3
f 5//4 3//4 6//4
f 6//5 7//5 5//5
f 5//6 7//6 8//6
f 8//7 7//7 9//7
f 9//8 7//8 10//8
f 11//9 12//9 10//9
f 10//10 12//10 9//10
f 13//11 14//11 15//11
f 15//12 14//12 16//12
f 15//13 16//13 17//13
f 15//14 17//14 11//14
f 11//15 17//15 12//15
f 12//16 17//16 18//16
f 18//17 17//17 19//17
f 18//18 19//18 20//18
f 20//19 19//19 21//19
f 22//20 23//20 24//20
f 22//21 24//21 25//21
f 22//22 25//22 26//22
f 22//23 26//23 27//23
f 22//24 27//24 28//24
f 22//25 28//25 29//25
f 22//26 30//26 9//26
f 23//27 22//27 31//27
f 31//28 22//28 18//28
f 18//29 22//29 9//29
f 18//30 9//30 12//30
f 20//31 32//31 18//31
f 32//32 33//32 18//32
f 33//33 34//33 18//33
f 34//34 35//34 18//34
f 35//35 31//35 18//35
f 36//36 7//36 6//36
f 38//37 39//37 40//37
f 39//38 38//38 41//38
f 9//39 37//39 42//39
f 37//40 1//40 43//40
f 43//41 1//41 4//41
f 4//42 5//42 8//42
f 8//43 9//43 42//43
f 38//44 4//44 8//44
f 38//45 8//45 41//45
f 41//46 8//46 42//46
f 41//47 42//47 39//47
f 39//48 42//48 37//48
f 39//49 37//49 40//49
f 40//50 37//50 43//50
f 40//51 43//51 38//51
f 38//52 43//52 4//52
f 45//53 44//53 17//53
f 17//54 44//54 2//54
f 17//55 2//55 1//55
f 46//56 3//56 47//56
f 47//57 3//57 66//57
f 66//58 3//58 44//58
f 44//59 3//59 2//59
f 3//60 46//60 48//60
f 3//61 48//61 49//61
f 3//62 49//62 50//62
f 3//63 50//63 51//63
f 3//64 51//64 52//64
f 3//65 52//65 6//65
f 6//66 52//66 53//66
f 6//67 53//67 54//67
f 6//68 54//68 55//68
f 6//69 55//69 56//69
f 6//70 56//70 57//70
f 6//71 57//71 58//71
f 6//72 58//72 36//72
f 36//73 58//73 59//73
f 36//74 59//74 60//74
f 36//75 60//75 61//75
f 36//76 61//76 62//76
f 36//77 62//77 63//77
f 36//78 63//78 64//78
f 36//79 64//79 7//79
f 7//80 64//80 65//80
f 7//81 65//81 13//81
f 7//82 13//82 15//82
f 7//83 15//83 11//83
f 11//84 10//84 7//84
f 66//85 67//85 68//85
f 66//86 68//86 69//86
f 66//87 69//87 70//87
f 66//88 70//88 71//88
f 66//89 71//89 72//89
f 66//90 72//90 73//90
f 73//91 74//91 66//91
f 74//92 47//92 66//92
f 19//93 75//93 76//93
f 19//94 76//94 77//94
f 19//95 77//95 78//95
f 19//96 78//96 79//96
f 19//97 79//97 21//97
f 80//98 75//98 81//98
f 81//99 75//99 19//99
f 81//100 19//100 1//100
f 1//101 19//101 17//101
f 81//102 82//102 83//102
f 81//103 83//103 84//103
f 81//104 84//104 85//104
f 81//105 85//105 86//105
f 81//106 86//106 87//106
f 81//107 87//107 80//107
f 29//108 82//108 22//108
f 22//109 82//109 81//109
f 22//110 81//110 30//110
f 30//111 81//111 37//111
f 30//112 37//112 9//112
f 81//113 1//113 37//113
f 67//114 66//114 88//114
f 88//115 66//115 45//115
f 45//116 66//116 44//116
f 89//117 88//117 16//117
f 16//118 88//118 45//118
f 16//119 45//119 17//119
f 89//120 16//120 90//120
f 14//121 90//121 16//121
f 88//122 89//122 67//122
f 67//122 89//122 68//122
f 68//122 89//122 69//122
f 69//122 89//122 70//122
f 70//122 89//122 71//122
f 71//122 89//122 72//122
f 72//122 89//122 73//122
f 73//122 89//122 74//122
f 74//122 89//122 47//122
f 47//122 89//122 46//122
f 46//122 89//122 48//122
f 48//122 89//122 14//122
f 48//122 14//122 49//122
f 49//122 14//122 50//122
f 50//122 14//122 51//122
f 51//122 14//122 52//122
f 52//122 14//122 53//122
f 53//122 14//122 54//122
f 54//122 14//122 55//122
f 55//122 14//122 56//122
f 56//122 14//122 57//122
f 57//122 14//122 58//122
f 58//122 14//122 59//122
f 59//122 14//122 60//122
f 60//122 14//122 61//122
f 61//122 14//122 62//122
f 62//122 14//122 63//122
f 63//122 14//122 64//122
f 64//122 14//122 65//122
f 65//122 14//122 13//122
f 89//122 90//122 14//122
f 79//122 77//122 21//122
f 21//122 77//122 76//122
f 21//122 76//122 75//122
f 79//122 78//122 77//122
f 75//122 80//122 21//122
f 21//122 80//122 82//122
f 21//122 82//122 20//122
f 20//122 82//122 29//122
f 20//122 29//122 31//122
f 31//122 29//122 23//122
f 23//122 29//122 24//122
f 24//122 29//122 25//122
f 25//122 29//122 28//122
f 25//122 28//122 26//122
f 26//122 28//122 27//122
f 87//122 86//122 80//122
f 80//122 86//122 85//122
f 80//122 85//122 84//122
f 84//122 83//122 80//122
f 80//122 83//122 82//122
f 35//123 34//123 31//123
f 31//122 34//122 33//122
f 31//122 33//122 32//122
f 32//122 20//122 31//122
f 83//124 84//124 82//124
f 82//124 84//124 85//124
f 82//124 85//124 86//124
f 86//124 87//124 82//124
f 82//124 87//124 80//124
f 65//125 91//125 13//125
f 13//126 91//126 92//126
f 92//127 91//127 93//127
f 92//128 93//128 94//128
f 94//129 93//129 95//129
f 91//130 65//130 64//130
f 91//131 64//131 63//131
f 91//132 63//132 62//132
f 91//133 62//133 61//133
f 91//134 61//134 60//134
f 91//135 60//135 96//135
f 96//136 60//136 59//136
f 96//137 59//137 58//137
f 96//138 58//138 57//138
f 96//139 57//139 56//139
f 96//140 56//140 55//140
f 96//141 55//141 54//141
f 96//142 54//142 53//142
f 96//143 53//143 52//143
f 96//144 52//144 51//144
f 96//145 51//145 50//145
f 96//146 50//146 97//146
f 97//147 50//147 49//147
f 97//148 49//148 48//148
f 97//149 48//149 46//149
f 97//150 46//150 47//150
f 97//151 47//151 98//151
f 97//152 98//152 99//152
f 97//153 99//153 100//153
f 47//154 74//154 98//154
f 74//155 73//155 98//155
f 98//156 73//156 72//156
f 98//157 72//157 71//157
f 98//158 71//158 70//158
f 98//159 70//159 69//159
f 98//160 69//160 68//160
f 98//161 68//161 67//161
f 101//162 29//162 28//162
f 101//163 28//163 27//163
f 101//164 27//164 26//164
f 101//165 26//165 25//165
f 101//166 25//166 24//166
f 101//167 24//167 23//167
f 102//168 103//168 101//168
f 23//169 31//169 101//169
f 101//170 31//170 104//170
f 101//171 104//171 105//171
f 101//172 105//172 102//172
f 104//173 31//173 35//173
f 104//174 35//174 34//174
f 104//175 34//175 33//175
f 104//176 33//176 32//176
f 104//177 32//177 20//177
f 106//178 14//178 13//178
f 106//179 13//179 92//179
f 106//180 92//180 94//180
f 106//181 94//181 107//181
f 107//182 94//182 105//182
f 107//183 105//183 104//183
f 107//184 104//184 108//184
f 104//185 20//185 21//185
f 21//186 108//186 104//186
f 67//187 88//187 98//187
f 98//188 88//188 109//188
f 98//189 109//189 99//189
f 109//190 107//190 99//190
f 99//191 107//191 100//191
f 100//192 107//192 110//192
f 113//193 112//193 114//193
f 113//194 114//194 115//194
f 117//195 111//195 118//195
f 118//196 111//196 112//196
f 118//197 112//197 113//197
f 118//198 113//198 119//198
f 119//199 113//199 115//199
f 119//200 115//200 120//200
f 120//201 115//201 116//201
f 120//202 116//202 117//202
f 117//203 116//203 111//203
f 115//204 102//204 116//204
f 116//205 102//205 121//205
f 116//206 121//206 111//206
f 111//207 121//207 122//207
f 111//208 122//208 112//208
f 112//209 122//209 114//209
f 117//210 119//210 120//210
f 119//211 117//211 118//211
f 82//212 29//212 123//212
f 123//213 29//213 101//213
f 123//214 101//214 103//214
f 123//215 103//215 114//215
f 114//216 103//216 115//216
f 115//217 103//217 102//217
f 110//218 114//218 122//218
f 124//219 122//219 121//219
f 102//220 105//220 95//220
f 95//221 105//221 94//221
f 21//222 79//222 108//222
f 79//223 78//223 108//223
f 78//224 77//224 108//224
f 77//225 76//225 108//225
f 76//226 75//226 108//226
f 80//227 123//227 75//227
f 75//228 123//228 108//228
f 108//229 123//229 110//229
f 110//230 107//230 108//230
f 123//231 80//231 87//231
f 123//232 87//232 86//232
f 123//233 86//233 85//233
f 123//234 85//234 84//234
f 123//235 84//235 83//235
f 123//236 83//236 82//236
f 123//237 114//237 110//237
f 89//238 125//238 88//238
f 88//239 125//239 109//239
f 107//240 109//240 125//240
f 90//241 125//241 89//241
f 14//242 106//242 90//242
f 90//243 106//243 125//243
f 125//244 106//244 107//244
f 102//245 95//245 121//245
f 121//246 95//246 93//246
f 121//247 93//247 124//247
f 124//248 93//248 91//248
f 124//249 91//249 96//249
f 124//250 96//250 97//250
f 124//251 97//251 122//251
f 122//252 97//252 110//252
f 110//253 97//253 100//253
