# Blender v2.76 (sub 0) OBJ File: ''
# www.blender.org
mtllib left_middle_limb1.mtl
o Left_Middle_Limb1
v 28.160057 -4.278141 -4.299994
v 26.099892 -7.249621 -6.639149
v 28.271202 0.014853 -6.970864
v 24.306587 -2.868130 -6.670455
v 22.296143 1.540625 -4.217436
v 28.314142 -4.110706 4.195480
v 28.650089 0.414618 2.774129
v 24.909233 -2.913977 1.816993
v 21.347586 -5.621210 -1.401371
v 22.091463 1.283086 1.264229
v 31.075750 0.975761 -0.949625
v 26.895607 -7.677223 3.490795
v 33.453735 0.532731 3.843874
v 18.381596 -4.647448 -3.345976
v 32.098824 -4.943192 -5.599547
v 30.851456 2.451328 -6.709755
v 19.699320 -3.837253 1.531380
v 25.324999 2.726521 -1.303663
v 24.213694 3.368353 -2.518687
v 24.097420 3.745903 3.230518
v 16.601822 0.126575 -5.136151
v 6.456384 3.976193 -4.754005
v 6.447692 3.783820 -4.785315
v 6.490905 4.299864 -4.303282
v 6.479770 4.255474 -4.493131
v 6.467648 4.141816 -4.651404
v 6.881565 4.554226 3.322958
v 6.222666 -2.593597 -4.561078
v 6.222158 -3.044257 -4.237293
v 6.230594 -3.075843 -4.045141
v 6.217869 -2.783332 -4.516447
v 6.217690 -2.941557 -4.402767
v 20.872768 -3.240770 -2.254731
v 6.621377 -2.821401 3.583490
v 6.664510 -2.305908 4.064344
v 6.655828 -2.498172 4.033145
v 6.644586 -2.663601 3.930846
v 6.632491 -2.777086 3.772973
v 6.889536 4.071508 3.840107
v 6.890018 4.522590 3.515480
v 6.894331 4.261345 3.795359
v 6.894500 4.419744 3.681365
v -8.193938 4.743727 -0.726032
v -10.864240 2.037632 -4.285280
v -14.342690 5.713407 0.643662
v -13.655970 -5.744811 -4.302272
v -9.004078 -2.309826 -4.787066
v -21.902260 0.142929 2.097821
v -21.479439 -5.233944 -2.210239
v -17.244434 1.257133 -2.633355
v -19.317509 3.498609 1.035955
v -19.193268 6.907197 -5.524660
v -9.331903 1.753030 3.441698
v -16.541338 0.273259 6.184270
v -19.522160 6.765198 0.151840
v -22.983162 -7.175889 1.556410
v -15.318518 2.197498 4.793565
v -8.611307 0.430591 -0.215262
v -9.626480 -2.545978 1.525460
v -9.157043 -3.146921 -0.745947
v -9.598147 -3.065351 5.549700
v -9.069458 0.780862 -3.658463
v -17.267715 4.492541 7.322016
v -10.852658 3.213735 5.841871
v -8.267821 -0.825489 5.231384
v -14.452370 0.590488 -4.940527
v -15.179945 2.028875 -5.345623
v -13.436758 -5.689210 1.914535
v -13.175381 -5.540316 -0.225929
v -11.584065 -4.402735 0.827371
vn 0.569200 0.227300 -0.790100
vn -0.868100 0.278200 0.411100
vn -0.891300 0.255900 0.374300
vn 0.575400 -0.805900 -0.139400
vn -0.319000 -0.567700 0.758900
vn 0.569800 0.582400 -0.579800
vn -0.184100 0.746600 0.639300
vn -0.824700 -0.112800 -0.554200
vn -0.058900 -0.214100 0.975000
vn 0.610800 0.234900 -0.756100
vn 0.535400 0.253400 -0.805700
vn 0.227400 0.024400 -0.973500
vn -0.082900 -0.976000 -0.201100
vn -0.163100 -0.386900 -0.907600
vn 0.664300 0.014400 -0.747300
vn -0.684700 -0.151500 0.712900
vn -0.323800 -0.057800 0.944400
vn 0.341800 -0.311200 0.886800
vn -0.214100 0.307100 0.927300
vn -0.191500 -0.385400 0.902600
vn -0.452600 -0.851800 0.263800
vn 0.240900 -0.843200 0.480700
vn -0.185000 -0.738700 -0.648200
vn -0.268300 -0.762200 0.589100
vn -0.709200 0.094700 0.698600
vn 0.693600 -0.720300 -0.007900
vn -0.588900 0.739700 -0.325700
vn -0.535700 -0.843200 0.044500
vn 0.319900 0.309700 0.895400
vn 0.340300 0.237500 0.909800
vn 0.160400 -0.592500 0.789500
vn 0.986000 0.167000 0.004400
vn -0.133700 0.157300 -0.978500
vn 0.203800 -0.111600 -0.972600
vn 0.209600 -0.107000 -0.971900
vn -0.750000 -0.311100 -0.583700
vn -0.391900 -0.706500 -0.589300
vn -0.460100 0.561000 -0.688200
vn 0.514600 -0.126200 -0.848100
vn 0.023400 0.159600 -0.986900
vn 0.354600 0.905600 -0.232600
vn 0.277700 0.770100 -0.574300
vn 0.162400 0.511600 -0.843700
vn 0.721300 -0.558600 -0.409500
vn 0.377500 0.924600 -0.050200
vn 0.040100 0.903500 -0.426800
vn 0.764200 -0.115800 -0.634500
vn 0.328300 0.941500 -0.075900
vn -0.128800 0.959400 0.250800
vn 0.267400 0.141800 -0.953100
vn -0.446600 0.865600 0.226600
vn 0.339900 0.938900 -0.054800
vn -0.046500 -0.033500 -0.998400
vn 0.274700 -0.946800 -0.167700
vn 0.006100 -0.229100 -0.973400
vn 0.208100 -0.828500 -0.519800
vn 0.114300 -0.579700 -0.806700
vn 0.598700 -0.489300 0.634100
vn -0.472000 -0.836600 -0.278100
vn -0.467400 0.152300 0.870800
vn -0.001100 0.614200 -0.789200
vn -0.889400 0.424400 0.169800
vn 0.906200 -0.422600 0.014000
vn 0.948200 -0.172800 0.266600
vn 0.097300 0.353000 0.930500
vn 0.923400 0.047600 -0.381000
vn 0.296600 -0.954900 0.016700
vn -0.140000 -0.878300 -0.457100
vn 0.169400 -0.165300 0.971600
vn 0.107300 -0.528200 0.842300
vn 0.033800 -0.812700 0.581600
vn -0.039500 -0.972400 0.229700
vn 0.193800 0.027600 0.980600
vn 0.030000 -0.235100 0.971500
vn 0.047200 0.986000 0.160000
vn 0.038800 0.228300 0.972800
vn 0.044100 0.583500 0.810900
vn 0.047000 0.849500 0.525400
vn -0.998100 0.037000 0.049900
vn -0.998100 0.036900 0.049900
vn 0.998100 -0.037000 -0.049900
vn 0.021800 0.999200 -0.034400
vn -0.108600 0.828900 -0.548700
vn -0.008000 0.798900 -0.601400
vn -0.255300 0.138000 0.957000
vn -0.131100 0.881500 -0.453500
vn 0.667300 0.739000 -0.092600
vn -0.126300 0.967600 -0.218800
vn -0.044900 0.162500 -0.985700
vn -0.082100 0.528900 -0.844700
vn -0.110600 0.811300 -0.574100
vn -0.142300 0.053200 -0.988400
vn 0.020300 0.343300 -0.939000
vn -0.066100 -0.032700 -0.997300
vn 0.016900 -0.426800 -0.904200
vn 0.010200 -0.229200 -0.973300
vn -0.041800 -0.986200 -0.160300
vn -0.022000 -0.849700 -0.526800
vn -0.003700 -0.583500 -0.812100
vn -0.875000 -0.422700 -0.236200
vn 0.321800 -0.868300 0.377400
vn -0.545200 -0.479800 -0.687400
vn 0.023400 0.852800 0.521700
vn 0.001500 0.812300 0.583300
vn 0.177200 -0.228500 0.957300
vn -0.073800 -0.696800 -0.713400
vn -0.039100 0.258800 0.965100
vn -0.388500 0.310000 0.867700
vn -0.499900 0.586700 0.637100
vn -0.995100 -0.078500 -0.059600
vn 0.616100 0.785800 0.055300
vn -0.947700 -0.224300 0.226900
vn -0.695200 0.415400 -0.586600
vn -0.219000 -0.974700 0.043700
vn 0.207200 -0.174400 0.962600
vn -0.050800 -0.850100 -0.524200
vn -0.039200 -0.978200 -0.204100
vn -0.863700 0.057500 0.500800
vn 0.924900 0.368500 0.093700
vn -0.353200 -0.769700 -0.531900
vn 0.994700 -0.090000 0.049100
vn 0.961400 -0.265600 0.071900
vn -0.983500 0.112000 0.142300
vn 0.041900 -0.973400 0.225200
vn 0.097300 -0.163700 0.981700
vn 0.077700 -0.812300 0.578000
vn 0.097100 -0.528200 0.843500
vn 0.775100 -0.036700 0.630800
vn -0.310700 0.678500 0.665700
vn 0.081000 0.032200 0.996200
vn 0.103200 -0.819300 0.564000
vn -0.097700 0.539900 0.836000
vn 0.103000 -0.083900 0.991100
vn 0.123000 0.067600 0.990100
vn 0.086400 0.089700 0.992200
vn 0.207300 -0.072200 -0.975600
vn 0.429400 -0.036900 -0.902400
vn -0.265000 -0.179100 -0.947500
vn -0.222100 -0.217600 -0.950400
vn 0.235300 0.158400 -0.958900
vn 0.098400 0.226000 0.969200
vn -0.051200 0.985100 0.164100
vn 0.006400 0.850000 0.526800
vn 0.059000 0.583100 0.810300
vn 0.249200 0.927500 0.278700
vn 0.516200 0.820000 -0.247200
vn 0.008600 0.983000 0.183500
vn 0.858600 0.403800 -0.315800
vn -0.989900 -0.066600 0.124900
vn -0.906200 0.395900 0.148400
vn 0.695300 0.519900 -0.496300
vn 0.691600 -0.333100 0.640900
vn -0.915000 -0.401900 -0.035000
vn 0.373600 -0.927400 0.020500
vn 0.622400 0.487300 0.612400
vn 0.650400 0.279900 0.706200
vn -0.243800 0.960200 -0.136500
vn -0.315600 0.907700 -0.276400
vn -0.002000 -0.999900 0.016600
vn -0.308200 0.748500 0.587100
vn -0.146700 -0.968500 0.201000
vn 0.760300 -0.632500 -0.147900
vn 0.034100 0.753000 -0.657200
vn -0.492500 -0.838300 0.233900
vn 0.026500 0.069800 -0.997200
vn -0.220800 -0.478200 0.850000
vn -0.270200 -0.364100 -0.891300
vn -0.155500 0.986600 0.049600
vn -0.181100 -0.623600 0.760500
vn -0.070700 0.897800 0.434600
vn -0.244200 -0.645400 0.723700
vn 0.568000 -0.823000 -0.005800
vn 0.782000 -0.602900 -0.158100
vn 0.594200 -0.803700 -0.029700
vn -0.875900 -0.481300 0.035200
vn 0.446400 -0.894800 -0.007700
vn 0.700500 -0.707100 -0.096200
vn 0.595700 -0.802700 0.028700
vn -0.936300 -0.335100 -0.104900
vn 0.935600 -0.349300 -0.051700
vn -0.606400 0.030800 0.794600
vn 0.081300 -0.854600 0.512800
vn 0.764400 -0.644200 -0.027000
usemtl None
s off
f 4//1 1//1 2//1
f 2//2 1//2 3//2
f 3//3 1//3 11//3
f 3//4 11//4 4//4
f 4//5 11//5 5//5
f 4//6 5//6 1//6
f 8//7 6//7 11//7
f 11//8 6//8 7//8
f 7//9 20//9 8//9
f 8//10 20//10 6//10
f 10//11 8//11 9//11
f 8//12 10//12 7//12
f 7//13 10//13 11//13
f 8//14 11//14 12//14
f 8//15 12//15 9//15
f 12//16 20//16 9//16
f 20//17 12//17 6//17
f 6//18 12//18 13//18
f 6//19 13//19 7//19
f 7//20 13//20 20//20
f 17//21 14//21 9//21
f 9//22 2//22 15//22
f 10//23 18//23 11//23
f 11//24 18//24 5//24
f 5//25 18//25 19//25
f 5//26 19//26 10//26
f 10//27 20//27 18//27
f 18//28 20//28 19//28
f 5//29 9//29 1//29
f 1//30 9//30 15//30
f 1//31 15//31 11//31
f 15//32 16//32 11//32
f 16//33 4//33 21//33
f 3//34 16//34 15//34
f 3//35 15//35 2//35
f 4//36 2//36 9//36
f 4//37 9//37 21//37
f 3//38 4//38 16//38
f 14//39 21//39 9//39
f 22//40 21//40 23//40
f 24//41 21//41 25//41
f 25//42 21//42 26//42
f 26//43 21//43 22//43
f 11//44 13//44 12//44
f 24//45 27//45 21//45
f 21//46 27//46 20//46
f 21//47 20//47 10//47
f 11//48 20//48 13//48
f 16//49 21//49 11//49
f 11//50 21//50 19//50
f 19//51 21//51 10//51
f 11//52 19//52 20//52
f 28//53 23//53 21//53
f 29//54 21//54 30//54
f 28//55 21//55 31//55
f 32//56 21//56 29//56
f 31//57 21//57 32//57
f 17//58 9//58 20//58
f 17//59 21//59 33//59
f 33//60 21//60 14//60
f 33//61 14//61 10//61
f 10//62 14//62 17//62
f 10//63 17//63 5//63
f 5//64 17//64 33//64
f 5//65 33//65 9//65
f 33//66 10//66 9//66
f 30//67 21//67 34//67
f 34//68 21//68 17//68
f 17//69 35//69 36//69
f 17//70 36//70 37//70
f 17//71 37//71 38//71
f 17//72 38//72 34//72
f 35//73 17//73 39//73
f 39//74 17//74 20//74
f 40//75 20//75 27//75
f 39//76 20//76 41//76
f 41//77 20//77 42//77
f 42//78 20//78 40//78
f 34//79 28//79 30//79
f 30//79 28//79 31//79
f 30//79 31//79 32//79
f 38//79 37//79 34//79
f 34//79 37//79 36//79
f 34//79 36//79 35//79
f 39//79 23//79 35//79
f 35//79 23//79 28//79
f 35//79 28//79 34//79
f 41//79 27//79 39//79
f 39//79 27//79 24//79
f 39//79 24//79 23//79
f 23//79 24//79 22//79
f 22//79 24//79 26//79
f 26//79 24//79 25//79
f 41//79 42//79 27//79
f 27//79 42//79 40//79
f 32//80 29//80 30//80
f 30//81 35//81 34//81
f 23//81 39//81 28//81
f 28//81 39//81 35//81
f 28//81 35//81 30//81
f 23//81 24//81 27//81
f 23//81 27//81 39//81
f 24//82 43//82 27//82
f 44//83 43//83 24//83
f 45//84 43//84 44//84
f 27//85 43//85 58//85
f 27//86 58//86 64//86
f 64//87 58//87 45//87
f 25//88 44//88 24//88
f 23//89 44//89 22//89
f 22//90 44//90 26//90
f 26//91 44//91 25//91
f 46//92 44//92 47//92
f 47//93 62//93 28//93
f 28//94 62//94 23//94
f 23//95 62//95 44//95
f 31//96 47//96 28//96
f 30//97 47//97 29//97
f 29//98 47//98 32//98
f 32//99 47//99 31//99
f 50//100 51//100 52//100
f 53//101 54//101 58//101
f 58//102 54//102 45//102
f 54//103 53//103 51//103
f 53//104 43//104 51//104
f 51//105 43//105 45//105
f 55//106 45//106 54//106
f 45//107 55//107 51//107
f 50//108 52//108 49//108
f 48//109 54//109 51//109
f 51//110 55//110 52//110
f 52//111 55//111 63//111
f 63//112 55//112 54//112
f 48//113 50//113 49//113
f 34//114 58//114 30//114
f 30//115 58//115 60//115
f 61//116 58//116 34//116
f 30//117 60//117 47//117
f 60//118 58//118 44//118
f 60//119 44//119 59//119
f 59//120 44//120 62//120
f 59//121 62//121 53//121
f 53//122 62//122 43//122
f 43//123 62//123 58//123
f 38//124 61//124 34//124
f 35//125 61//125 36//125
f 37//126 61//126 38//126
f 37//127 36//127 61//127
f 63//128 54//128 57//128
f 57//129 54//129 64//129
f 39//130 65//130 35//130
f 64//131 53//131 39//131
f 39//132 53//132 65//132
f 64//133 54//133 65//133
f 65//134 54//134 61//134
f 65//135 61//135 35//135
f 44//136 46//136 66//136
f 66//137 46//137 67//137
f 67//138 46//138 49//138
f 67//139 49//139 52//139
f 67//140 52//140 44//140
f 41//141 64//141 39//141
f 27//142 64//142 40//142
f 40//143 64//143 42//143
f 42//144 64//144 41//144
f 64//145 45//145 63//145
f 52//146 45//146 44//146
f 52//147 63//147 45//147
f 47//148 44//148 58//148
f 47//149 58//149 62//149
f 65//150 58//150 59//150
f 65//151 59//151 64//151
f 64//152 59//152 53//152
f 53//153 58//153 65//153
f 67//154 57//154 50//154
f 67//155 50//155 66//155
f 66//156 50//156 48//156
f 44//157 48//157 57//157
f 66//158 48//158 44//158
f 67//159 44//159 57//159
f 57//160 64//160 51//160
f 51//161 64//161 63//161
f 48//162 51//162 63//162
f 63//163 57//163 48//163
f 50//164 57//164 51//164
f 68//165 56//165 48//165
f 69//166 70//166 49//166
f 70//167 68//167 48//167
f 68//168 69//168 56//168
f 70//169 48//169 49//169
f 69//170 49//170 56//170
f 54//171 68//171 61//171
f 61//172 68//172 70//172
f 61//173 70//173 46//173
f 46//174 70//174 69//174
f 54//175 46//175 68//175
f 68//176 46//176 69//176
f 59//177 61//177 46//177
f 59//178 46//178 47//178
f 59//179 47//179 60//179
f 61//180 59//180 58//180
f 54//181 48//181 56//181
f 46//182 54//182 49//182
f 49//183 54//183 56//183
