# Blender v2.76 (sub 0) OBJ File: ''
# www.blender.org
mtllib left_ring_limb2.mtl
o Left_Ring_Limb2
v 14.803524 -0.722314 -2.611043
v 17.173656 -5.380459 -2.238589
v 15.213781 -1.461573 -7.660834
v 15.343895 -5.477060 -8.473314
v 13.205256 -2.938928 -8.051702
v 19.246338 -1.774571 -10.389361
v 20.251766 -3.215397 -8.747786
v 17.743906 0.932276 -1.546387
v 20.194685 -4.619431 -2.193090
v 20.092617 -3.214003 -4.076713
v 21.898977 -0.543272 -2.855397
v 16.009594 2.753780 -5.307183
v 8.613348 -0.906445 1.440344
v 8.756271 3.144108 1.297922
v 14.343904 -2.987152 -1.618334
v 14.313346 -3.503896 -4.311365
v 12.770860 -1.826663 -6.016250
v 10.876842 3.407787 -3.312521
v 12.609142 3.337344 -3.576221
v 14.174348 2.373724 -4.325055
v 13.400818 2.485628 -4.970486
v 23.742414 0.863553 -4.126874
v 21.232403 -1.561771 -10.624021
v 19.563915 2.268427 -10.500855
v 8.677574 3.598503 0.988100
v 8.620038 3.632195 0.804757
v 8.751303 3.334353 1.254999
v 8.723668 3.493915 1.146204
v 8.594885 -1.098651 1.410868
v 8.555809 -1.263315 1.313473
v 8.502071 -1.375368 1.162987
v 8.441851 -1.417751 0.982318
v 6.287898 -1.575869 -5.676171
v 6.466084 3.474077 -5.853733
v 6.313065 3.155366 -6.282297
v 6.294610 2.963402 -6.311780
v 6.405866 3.431741 -6.034403
v 6.352132 3.319825 -6.184895
v 6.151687 -1.087151 -6.169359
v 6.230363 -1.542130 -5.859516
v 6.184274 -1.437405 -6.017625
v 6.156646 -1.277638 -6.126427
v -1.557904 -1.871935 -2.370465
v 3.066057 1.193527 -1.368278
v 4.096612 3.610898 -0.126979
v 2.130572 3.676617 -0.445584
v -10.266212 2.724016 4.839659
v -10.851333 -6.364988 5.056257
v -8.321965 -5.595800 -3.016892
v -6.950269 -5.059474 2.589044
v -4.945766 -5.326391 7.478418
v 2.506214 -0.517863 1.230394
v -4.523356 -4.567249 1.149922
v -12.866796 -3.735471 0.170500
vn 0.891100 0.453900 0.005900
vn 0.955400 0.088000 -0.281800
vn 0.459300 -0.497600 0.735900
vn -0.816800 -0.576900 -0.006100
vn 0.092100 0.775700 0.624400
vn -0.078200 0.353000 -0.932300
vn 0.225900 0.210500 -0.951100
vn 0.478200 0.716100 0.508400
vn -0.842300 0.409200 0.350900
vn -0.435500 -0.113800 0.893000
vn -0.392600 -0.885700 -0.247900
vn 0.551400 -0.622300 -0.555700
vn 0.474800 0.014200 0.880000
vn 0.242400 -0.227600 0.943100
vn 0.074500 -0.082900 0.993800
vn 0.037800 -0.208600 0.977300
vn 0.632700 -0.140800 0.761500
vn 0.380600 0.293800 0.876800
vn 0.365100 0.406000 0.837800
vn -0.798500 -0.583500 0.148400
vn 0.809500 0.570500 -0.139000
vn -0.155400 -0.307200 -0.938900
vn -0.600700 -0.477200 -0.641500
vn -0.385600 -0.868500 0.311600
vn 0.573100 0.633200 0.520200
vn -0.322400 -0.507800 -0.798900
vn 0.858800 -0.001200 -0.512300
vn -0.645700 -0.089600 0.758300
vn 0.491000 -0.461500 0.738900
vn 0.850700 -0.346000 -0.395600
vn 0.121000 -0.120400 -0.985300
vn 0.693100 -0.615700 0.374900
vn -0.369400 -0.259300 -0.892300
vn 0.536800 -0.486300 0.689400
vn 0.142700 -0.191800 0.971000
vn 0.333600 -0.786900 -0.519200
vn 0.793300 0.329100 0.512200
vn 0.777500 0.211100 0.592400
vn 0.113200 -0.394800 -0.911800
vn 0.213900 0.970500 0.111200
vn 0.361100 0.214200 0.907600
vn 0.359500 0.567400 0.740800
vn 0.307600 0.832400 0.461000
vn -0.748700 -0.651300 0.123400
vn -0.633800 -0.747800 0.197600
vn -0.618000 -0.770800 0.154900
vn 0.412800 -0.176700 0.893500
vn 0.248900 -0.536100 0.806600
vn 0.054400 -0.810100 0.583800
vn -0.135200 -0.953700 0.268800
vn -0.167100 -0.982900 0.077400
vn -0.242100 -0.969600 0.035600
vn -0.964300 0.239200 -0.113400
vn 0.253100 0.794300 0.552300
vn -0.981800 0.188300 -0.025000
vn 0.035200 0.998800 -0.035100
vn 0.035300 0.998800 -0.035100
vn 0.244900 0.956500 0.158600
vn 0.169400 0.948000 -0.269400
vn 0.014900 0.722500 0.691200
vn -0.156900 0.800700 -0.578200
vn 0.217700 0.968100 0.124100
vn 0.077500 0.996200 -0.040100
vn -0.288300 0.172400 -0.941900
vn 0.007800 0.973000 -0.230600
vn -0.119500 0.816600 -0.564700
vn -0.223500 0.535500 -0.814500
vn -0.011500 0.270300 -0.962700
vn -0.299800 -0.331500 -0.894600
vn -0.290500 -0.086500 -0.952900
vn 0.066100 -0.950800 -0.302700
vn -0.115400 -0.018300 -0.993200
vn -0.559200 0.021100 -0.828800
vn -0.263800 -0.024600 -0.964300
vn -0.227400 -0.967900 -0.106800
vn -0.338800 -0.568900 -0.749400
vn -0.304500 -0.217000 -0.927500
vn -0.311100 -0.831600 -0.460100
vn -0.950800 0.044300 0.306500
vn 0.950800 -0.044300 -0.306500
vn -0.146600 -0.986700 0.070900
vn -0.844400 -0.345500 -0.409400
vn 0.306400 -0.679900 0.666200
vn -0.133400 -0.954100 0.268300
vn -0.104500 -0.779400 0.617700
vn -0.072900 -0.494900 0.865900
vn -0.043300 -0.147400 0.988100
vn 0.182400 0.028100 0.982800
vn -0.072100 -0.855200 0.513200
vn 0.173800 0.221100 0.959700
vn -0.008100 0.983000 0.183200
vn 0.133900 0.574000 0.807800
vn 0.070200 0.841300 0.536100
vn 0.137800 -0.356800 -0.923900
vn 0.686800 -0.215800 -0.694000
vn 0.022300 -0.340900 0.939900
vn -0.927100 0.372000 0.045300
vn -0.438300 0.890700 0.120600
vn 0.184400 0.385600 -0.904000
vn 0.371200 0.683300 0.628800
vn -0.397400 0.184300 -0.898900
vn 0.003000 0.982900 0.184200
vn -0.025900 0.994400 0.102800
vn -0.254800 0.631800 -0.732100
vn -0.276800 -0.947800 0.158400
vn -0.654800 -0.720200 0.229100
vn 0.229300 -0.962300 -0.146600
vn 0.350200 0.492600 0.796700
vn 0.485900 -0.841800 -0.235200
vn 0.349700 -0.932700 -0.088500
vn 0.498500 -0.864000 -0.070400
vn -0.414800 -0.210300 -0.885300
vn -0.323700 -0.570200 -0.755100
vn -0.189700 -0.843100 -0.503100
vn -0.034600 -0.984800 -0.170400
vn -0.558400 -0.009500 -0.829500
vn -0.434800 0.423200 -0.794900
vn -0.274600 0.625500 -0.730300
vn -0.155900 0.972000 -0.175800
vn -0.345700 0.807900 -0.477400
vn -0.482400 0.528400 -0.698600
vn -0.551400 0.178200 -0.815000
vn -0.908800 0.068300 0.411700
vn 0.007100 0.791100 0.611600
vn 0.035100 -0.873900 -0.484800
vn -0.448100 0.856800 -0.255200
vn -0.435700 0.765800 -0.472900
vn 0.379800 -0.921400 -0.082200
vn 0.045700 0.919100 0.391400
vn -0.386100 0.046800 0.921300
usemtl None
s off
f 1//1 2//1 3//1
f 3//2 2//2 4//2
f 12//3 3//3 6//3
f 12//4 6//4 7//4
f 7//5 6//5 5//5
f 7//6 5//6 3//6
f 1//7 8//7 9//7
f 1//8 9//8 10//8
f 10//9 9//9 11//9
f 10//10 11//10 12//10
f 12//11 11//11 8//11
f 12//12 8//12 1//12
f 13//13 15//13 14//13
f 14//14 15//14 8//14
f 8//15 15//15 9//15
f 9//16 15//16 2//16
f 9//17 22//17 11//17
f 11//18 22//18 8//18
f 8//19 22//19 14//19
f 16//20 17//20 5//20
f 5//21 17//21 15//21
f 1//22 18//22 19//22
f 1//23 19//23 20//23
f 20//24 19//24 21//24
f 21//25 18//25 1//25
f 20//26 12//26 1//26
f 1//27 17//27 21//27
f 21//28 17//28 20//28
f 20//29 17//29 12//29
f 17//30 1//30 15//30
f 12//31 22//31 10//31
f 10//32 22//32 2//32
f 10//33 2//33 1//33
f 17//34 3//34 12//34
f 4//35 7//35 3//35
f 7//36 4//36 23//36
f 23//37 24//37 12//37
f 7//38 23//38 12//38
f 22//39 9//39 2//39
f 25//40 22//40 26//40
f 14//41 22//41 27//41
f 27//42 22//42 28//42
f 28//43 22//43 25//43
f 16//44 5//44 4//44
f 16//45 4//45 2//45
f 16//46 2//46 15//46
f 15//47 13//47 29//47
f 15//48 29//48 30//48
f 15//49 30//49 31//49
f 15//50 31//50 32//50
f 33//51 5//51 32//51
f 32//52 5//52 15//52
f 3//53 16//53 1//53
f 17//54 16//54 3//54
f 1//55 16//55 15//55
f 18//56 34//56 26//56
f 18//57 26//57 19//57
f 19//58 26//58 12//58
f 34//59 18//59 21//59
f 21//60 12//60 34//60
f 12//61 21//61 19//61
f 22//62 12//62 26//62
f 34//63 12//63 24//63
f 35//64 24//64 36//64
f 34//65 24//65 37//65
f 37//66 24//66 38//66
f 38//67 24//67 35//67
f 3//68 5//68 36//68
f 3//69 36//69 24//69
f 4//70 5//70 23//70
f 23//71 5//71 6//71
f 23//72 6//72 24//72
f 24//73 6//73 3//73
f 39//74 36//74 5//74
f 5//75 33//75 40//75
f 5//76 41//76 42//76
f 39//77 5//77 42//77
f 40//78 41//78 5//78
f 34//79 14//79 26//79
f 26//79 14//79 27//79
f 26//79 27//79 28//79
f 37//79 38//79 34//79
f 34//79 38//79 35//79
f 34//79 35//79 36//79
f 39//79 13//79 36//79
f 36//79 13//79 14//79
f 36//79 14//79 34//79
f 42//79 33//79 39//79
f 39//79 33//79 32//79
f 39//79 32//79 13//79
f 13//79 32//79 29//79
f 29//79 32//79 30//79
f 30//79 32//79 31//79
f 42//79 41//79 33//79
f 33//79 41//79 40//79
f 28//79 25//79 26//79
f 26//80 36//80 34//80
f 13//80 39//80 14//80
f 14//80 39//80 36//80
f 14//80 36//80 26//80
f 13//80 32//80 33//80
f 13//80 33//80 39//80
f 32//81 52//81 33//81
f 33//82 52//82 44//82
f 33//83 44//83 43//83
f 52//84 32//84 31//84
f 52//85 31//85 30//85
f 52//86 30//86 29//86
f 52//87 29//87 13//87
f 14//88 47//88 13//88
f 13//89 47//89 52//89
f 27//90 47//90 14//90
f 26//91 47//91 25//91
f 28//92 47//92 27//92
f 25//93 47//93 28//93
f 45//94 52//94 46//94
f 46//95 52//95 43//95
f 46//96 43//96 44//96
f 44//97 52//97 45//97
f 34//98 44//98 26//98
f 26//99 44//99 45//99
f 47//100 44//100 34//100
f 47//101 46//101 44//101
f 46//102 47//102 45//102
f 45//103 47//103 26//103
f 54//104 47//104 49//104
f 54//105 49//105 50//105
f 50//106 49//106 51//106
f 50//107 51//107 48//107
f 52//108 47//108 51//108
f 49//109 43//109 53//109
f 49//110 53//110 51//110
f 53//111 52//111 51//111
f 43//112 39//112 42//112
f 43//113 42//113 41//113
f 43//114 41//114 40//114
f 43//115 40//115 33//115
f 36//116 39//116 47//116
f 47//117 39//117 43//117
f 49//118 47//118 43//118
f 47//119 34//119 37//119
f 47//120 37//120 38//120
f 47//121 38//121 35//121
f 47//122 35//122 36//122
f 54//123 48//123 47//123
f 53//124 43//124 54//124
f 54//125 43//125 48//125
f 48//126 52//126 50//126
f 53//127 50//127 52//127
f 48//128 43//128 52//128
f 50//129 53//129 54//129
f 51//130 47//130 48//130
