# Blender v2.76 (sub 0) OBJ File: ''
# www.blender.org
mtllib left_middle_limb3.mtl
o Left_Middle_Limb3
v 2.673685 -2.359859 1.508113
v 3.502205 -2.638744 -2.529506
v 11.903248 2.266593 0.119425
v -0.287618 -2.884700 3.201564
v -0.294423 -3.044434 3.183802
v -0.302917 -3.188873 3.120918
v -0.312311 -3.304596 3.018754
v -0.321732 -3.380851 2.886803
v -0.330305 -3.410554 2.737324
v -0.403193 2.574872 -3.155899
v -0.396488 2.730009 -3.136724
v -0.387918 2.871602 -3.070222
v -0.378323 2.985790 -2.962905
v -0.368643 3.061395 -2.825276
v -0.359824 3.091018 -2.670808
v -0.087730 2.780272 3.002378
v -0.095858 3.262888 2.482169
v -0.088764 3.243627 2.638356
v -0.084089 3.177369 2.780973
v -0.082291 3.070599 2.896059
v -0.083546 2.933769 2.972350
v 2.145458 -0.300939 0.051498
v 2.225387 2.941227 1.024654
v 2.653670 2.837896 -1.231744
v -0.603081 -3.090100 -2.956712
v -0.596369 -3.583791 -2.456623
v -0.603199 -3.564117 -2.607839
v -0.607556 -3.496832 -2.744837
v -0.609033 -3.388188 -2.854890
v -0.607494 -3.248277 -2.927772
v -0.438007 -3.480679 0.634836
v -0.488667 -3.513665 -0.354136
v -0.435014 -3.330478 0.583409
v -0.435118 -3.203899 0.487535
v -0.438308 -3.113707 0.356885
v -0.444263 -3.069000 0.204635
v -0.452382 -3.074286 0.046141
v -0.461846 -3.129033 -0.102612
v -0.471701 -3.227718 -0.226621
v -0.480952 -3.360389 -0.313379
v -4.359476 -1.377206 -2.132696
v -7.254880 -2.513253 -2.003012
v -6.676992 -1.267619 2.774384
v -11.481498 -1.349967 0.419347
v -3.309642 -3.306520 3.394063
v -2.302540 -4.079452 0.313918
vn 0.461200 -0.873600 0.155000
vn 0.508500 -0.116500 0.853100
vn 0.520100 -0.366500 0.771500
vn 0.504800 -0.594000 0.626400
vn 0.459800 -0.782700 0.419500
vn 0.383200 -0.909900 0.158800
vn 0.258200 0.107500 -0.960100
vn 0.248700 0.399400 -0.882400
vn 0.219300 0.658300 -0.720100
vn 0.171600 0.858300 -0.483600
vn 0.109500 0.975000 -0.193200
vn 0.494600 0.013100 0.869000
vn 0.224300 -0.159000 0.961500
vn 0.105000 0.987600 0.117000
vn 0.159600 0.897300 0.411600
vn 0.202200 0.719500 0.664400
vn 0.228900 0.472500 0.851100
vn 0.237200 0.180300 0.954600
vn 0.825700 0.560900 -0.061000
vn 0.057100 0.990200 -0.127600
vn 0.051800 0.996400 0.066800
vn -0.366800 0.402300 0.838800
vn -0.486900 0.262100 -0.833200
vn 0.066400 0.997200 -0.033100
vn -0.978400 -0.099300 -0.181200
vn 0.961600 0.056800 -0.268400
vn -0.975500 -0.105400 -0.192900
vn 0.897200 0.034700 0.440200
vn 0.107600 -0.038700 -0.993400
vn 0.258200 0.077700 -0.962900
vn 0.220300 -0.966000 -0.135600
vn 0.205700 -0.875800 -0.436700
vn 0.182100 -0.698500 -0.692000
vn 0.152800 -0.457900 -0.875800
vn 0.121500 -0.181900 -0.975800
vn 0.774300 -0.632500 -0.018600
vn -0.118200 -0.593500 -0.796100
vn 0.170400 -0.684100 0.709200
vn 0.186200 -0.321600 -0.928400
vn 0.478000 -0.530100 -0.700400
vn 0.632600 -0.630000 -0.450400
vn 0.705300 -0.672300 -0.225000
vn 0.729800 -0.683500 -0.014600
vn 0.714700 -0.669900 0.201100
vn 0.647200 -0.620700 0.442600
vn 0.485300 -0.502000 0.715900
vn 0.172300 -0.261200 0.949800
vn -0.998100 0.037000 0.049900
vn 0.998100 -0.037000 -0.049900
vn 0.008600 -0.980900 0.194400
vn 0.062700 -0.866000 0.496000
vn 0.093400 -0.663200 0.742600
vn 0.098400 -0.402100 0.910300
vn 0.078900 -0.113500 0.990400
vn 0.058900 0.033000 0.997700
vn -0.108400 0.120900 0.986700
vn -0.152600 0.193700 0.969100
vn -0.320200 0.463600 0.826200
vn -0.441700 0.654300 0.613900
vn -0.518700 0.768800 0.374200
vn -0.558700 0.819700 0.126500
vn -0.567000 0.823700 0.001600
vn -0.718000 0.600200 -0.352500
vn -0.005000 0.999700 -0.024700
vn -0.747500 0.659000 -0.083700
vn -0.734200 0.615500 -0.286500
vn -0.684400 0.529000 -0.501700
vn -0.574200 0.376300 -0.727100
vn -0.367700 0.129700 -0.920800
vn -0.268400 0.597800 -0.755400
vn 0.303200 -0.952800 0.016200
vn 0.021300 -0.968000 0.249900
vn -0.755000 -0.650400 -0.083600
vn -0.483300 -0.760500 -0.433700
vn -0.225600 -0.026300 -0.973900
vn -0.282500 -0.165000 -0.945000
vn -0.384800 -0.423100 -0.820300
vn -0.460000 -0.635000 -0.620700
vn -0.502100 -0.782400 -0.368300
vn -0.509500 -0.855900 -0.088300
vn 0.017200 -0.257700 0.966100
vn -0.180600 -0.971800 0.151500
vn -0.028200 0.799200 0.600400
vn 0.404900 0.871600 -0.276200
vn -0.057700 0.605100 -0.794000
vn -0.400800 -0.289600 -0.869200
vn -0.168900 -0.910900 0.376400
vn -0.096000 -0.601000 -0.793400
vn -0.133700 -0.817100 -0.560800
vn -0.153200 -0.949800 -0.272900
vn -0.153000 -0.987400 0.040800
vn -0.133100 -0.927300 0.349800
vn -0.095600 -0.775200 0.624500
vn -0.043800 -0.544600 0.837500
vn -0.534500 -0.799800 0.273200
vn 0.325600 -0.871700 -0.366200
usemtl None
s off
f 1//1 2//1 3//1
f 1//2 4//2 5//2
f 1//3 5//3 6//3
f 1//4 6//4 7//4
f 1//5 7//5 8//5
f 1//6 8//6 9//6
f 3//7 10//7 11//7
f 3//8 11//8 12//8
f 3//9 12//9 13//9
f 3//10 13//10 14//10
f 3//11 14//11 15//11
f 4//12 1//12 16//12
f 16//13 1//13 3//13
f 3//14 17//14 18//14
f 3//15 18//15 19//15
f 3//16 19//16 20//16
f 3//17 20//17 21//17
f 3//18 21//18 16//18
f 17//19 22//19 15//19
f 3//20 23//20 17//20
f 24//21 3//21 15//21
f 24//22 15//22 22//22
f 23//23 22//23 17//23
f 24//24 23//24 3//24
f 23//25 24//25 1//25
f 22//26 23//26 1//26
f 1//27 24//27 2//27
f 2//28 24//28 22//28
f 25//29 10//29 2//29
f 2//30 10//30 3//30
f 2//31 26//31 27//31
f 2//32 27//32 28//32
f 2//33 28//33 29//33
f 2//34 29//34 30//34
f 2//35 30//35 25//35
f 31//36 22//36 9//36
f 9//37 22//37 1//37
f 2//38 22//38 26//38
f 26//36 22//36 32//36
f 31//39 33//39 22//39
f 22//40 33//40 34//40
f 22//41 34//41 35//41
f 22//42 35//42 36//42
f 22//43 36//43 37//43
f 22//44 37//44 38//44
f 22//45 38//45 39//45
f 22//46 39//46 40//46
f 22//47 40//47 32//47
f 25//48 38//48 10//48
f 10//48 38//48 37//48
f 10//48 37//48 15//48
f 15//48 37//48 36//48
f 15//48 36//48 17//48
f 17//48 36//48 16//48
f 17//48 16//48 18//48
f 18//48 16//48 19//48
f 19//48 16//48 20//48
f 20//48 16//48 21//48
f 30//48 28//48 25//48
f 25//48 28//48 27//48
f 25//48 27//48 26//48
f 30//48 29//48 28//48
f 32//48 40//48 26//48
f 26//48 40//48 39//48
f 26//48 39//48 25//48
f 25//48 39//48 38//48
f 36//48 35//48 16//48
f 16//48 35//48 4//48
f 4//48 35//48 34//48
f 4//48 34//48 9//48
f 9//48 34//48 33//48
f 9//48 33//48 31//48
f 9//48 8//48 4//48
f 4//48 8//48 7//48
f 4//48 7//48 5//48
f 5//48 7//48 6//48
f 15//48 14//48 10//48
f 10//48 14//48 13//48
f 10//48 13//48 12//48
f 12//48 11//48 10//48
f 15//49 17//49 37//49
f 37//49 17//49 36//49
f 45//50 9//50 8//50
f 45//51 8//51 7//51
f 45//52 7//52 6//52
f 45//53 6//53 5//53
f 45//54 5//54 4//54
f 16//55 45//55 4//55
f 16//56 43//56 45//56
f 43//57 16//57 21//57
f 43//58 21//58 20//58
f 43//59 20//59 19//59
f 43//60 19//60 18//60
f 43//61 18//61 17//61
f 43//62 17//62 15//62
f 43//63 15//63 41//63
f 41//64 44//64 43//64
f 41//65 15//65 14//65
f 41//66 14//66 13//66
f 41//67 13//67 12//67
f 41//68 12//68 11//68
f 41//69 11//69 10//69
f 42//70 44//70 41//70
f 31//71 9//71 46//71
f 46//72 9//72 45//72
f 46//73 45//73 41//73
f 46//74 41//74 26//74
f 46//71 26//71 32//71
f 25//75 41//75 10//75
f 41//76 25//76 30//76
f 41//77 30//77 29//77
f 41//78 29//78 28//78
f 41//79 28//79 27//79
f 41//80 27//80 26//80
f 40//81 44//81 32//81
f 32//82 44//82 42//82
f 32//83 42//83 46//83
f 46//84 42//84 43//84
f 46//85 43//85 31//85
f 31//86 43//86 33//86
f 33//87 43//87 44//87
f 33//88 44//88 34//88
f 34//89 44//89 35//89
f 35//90 44//90 36//90
f 36//91 44//91 37//91
f 37//92 44//92 38//92
f 38//93 44//93 39//93
f 39//94 44//94 40//94
f 45//95 43//95 42//95
f 45//96 42//96 41//96
