# Blender v2.76 (sub 0) OBJ File: ''
# www.blender.org
mtllib left_index_limb1.mtl
o Left_Index_Limb1
v 28.125854 -4.172184 1.839368
v 32.248955 -4.651711 1.269240
v 25.570433 3.808068 0.794042
v 21.474403 -2.332584 2.185280
v 28.416557 3.663813 0.223004
v 26.287804 -3.910577 10.468722
v 28.126160 2.784632 11.685619
v 26.476818 1.902622 8.665135
v 23.093685 -1.666435 9.040874
v 21.215675 -4.696280 7.015892
v 22.020294 3.635154 6.244312
v 26.269682 4.099686 8.606860
v 31.457781 -0.016281 10.818136
v 30.471684 -4.766109 9.891496
v 25.909264 -7.420271 11.556435
v 21.781162 -5.438133 0.380739
v 27.481230 -7.626114 3.017926
v 32.920864 -1.072980 3.850881
v 17.932577 -4.017754 7.635274
v 19.368364 -2.989479 5.312941
v 18.514496 -3.833541 1.475112
v 23.808971 3.446570 4.059569
v 24.649956 3.248186 5.401053
v 7.434329 4.004580 -2.964543
v 7.435546 3.811885 -2.995049
v 7.348591 4.332151 -2.523577
v 7.387269 4.286146 -2.709384
v 7.417376 4.171118 -2.864231
v 5.752256 4.650957 4.941471
v 18.810385 4.171381 8.352123
v 7.210519 -2.565531 -2.770812
v 7.129873 -3.013592 -2.453529
v 7.088592 -3.043566 -2.265410
v 7.195843 -2.754946 -2.726983
v 7.167529 -2.912258 -2.615586
v 5.491756 -2.724660 5.201978
v 5.405034 -2.204956 5.672298
v 5.406230 -2.397540 5.641900
v 5.423125 -2.563882 5.541883
v 5.453153 -2.678732 5.387428
v 5.630060 4.172461 5.448061
v 5.710896 4.620936 5.129951
v 5.644764 4.361976 5.404116
v 5.673149 4.519459 5.292411
v -8.748258 4.774556 -0.773804
v -8.095844 4.453430 -3.054320
v -10.188062 4.640131 -1.694638
v -8.396957 -1.380906 -6.762915
v -10.974052 -3.340378 -8.158449
v -6.744009 -0.281901 -6.321658
v -18.050297 0.588099 1.451995
v -15.962980 1.915411 -8.980396
v -18.741243 3.983935 -5.622834
v -19.156889 3.706394 -2.647565
v -16.785805 6.798834 -3.858416
v -18.953110 6.764116 -4.341818
v -22.259714 -4.886591 -2.554226
v -18.882858 -5.208630 -7.675860
v -17.164906 2.430602 -3.628634
v -26.069082 0.704324 -5.675325
v -8.009518 -2.469104 -1.511674
v -9.632551 -2.564450 -0.991337
v -8.734113 -2.639902 -2.912987
v -9.429745 0.938218 1.547507
v -8.453341 0.563120 -5.679298
v -11.459425 -4.171523 1.732905
v -18.366491 1.876638 3.327679
v -15.937886 1.913102 2.853728
v -12.532780 3.088544 2.929571
v -9.536959 -0.982092 2.912349
v -14.651566 -6.296850 -2.555580
v -12.608363 -5.665197 -3.562704
vn -0.155000 -0.176900 -0.971900
vn 0.115000 0.145900 0.982600
vn -0.121500 -0.178800 -0.976300
vn 0.105200 0.197200 0.974700
vn -0.885200 0.163900 0.435500
vn 0.703700 -0.686400 -0.183800
vn 0.816900 -0.130900 -0.561700
vn 0.317100 -0.391500 -0.863800
vn 0.401100 0.013500 -0.915900
vn 0.423600 0.087900 -0.901600
vn -0.188000 -0.285500 -0.939800
vn 0.130700 0.907800 -0.398500
vn 0.524500 0.223900 -0.821400
vn -0.352800 -0.149900 0.923600
vn -0.451100 -0.029700 0.892000
vn 0.664400 0.547500 0.508700
vn -0.198200 0.309600 0.930000
vn -0.295800 0.311700 0.902900
vn 0.085300 -0.200800 0.975900
vn 0.112600 -0.631500 -0.767200
vn 0.567600 -0.549100 0.613500
vn 0.762700 0.278000 -0.583900
vn 0.174700 0.698000 0.694400
vn 0.991600 0.091000 -0.092100
vn 0.795800 0.188400 0.575500
vn -0.458600 -0.885900 -0.069800
vn -0.618700 0.784900 -0.035000
vn -0.222400 -0.938900 -0.262600
vn -0.351500 -0.918400 -0.181800
vn 0.838100 -0.535900 0.102300
vn -0.825900 0.158100 0.541200
vn -0.512700 -0.468600 0.719400
vn 0.131600 0.298000 0.945400
vn -0.549000 0.359900 0.754300
vn -0.385400 -0.002600 0.922700
vn -0.001800 0.759000 -0.651100
vn 0.257900 -0.204400 -0.944300
vn -0.189400 0.121200 -0.974400
vn 0.202100 0.154400 -0.967100
vn 0.069100 0.971600 -0.226200
vn 0.131900 0.807800 -0.574500
vn 0.178600 0.520900 -0.834700
vn 0.634400 0.771100 -0.053200
vn 0.461400 -0.261200 0.847900
vn 0.194700 -0.739200 -0.644700
vn 0.035100 0.998800 -0.035100
vn 0.039900 0.999100 -0.012300
vn 0.388700 0.869100 0.305900
vn 0.230900 0.967200 0.105500
vn 0.017000 0.974900 -0.222200
vn -0.004700 0.918600 0.395200
vn -0.229100 0.973300 -0.015800
vn -0.837100 -0.246300 0.488400
vn 0.051100 0.958500 -0.280400
vn 0.346800 -0.045200 -0.936800
vn 0.197100 -0.266100 -0.943600
vn -0.249500 0.145100 -0.957400
vn 0.091200 -0.986300 -0.137200
vn 0.318200 -0.237100 -0.917900
vn 0.113700 -0.854000 -0.507600
vn -0.310500 0.169800 0.935300
vn 0.231100 -0.589600 -0.773900
vn -0.184500 -0.978400 0.093700
vn -0.489200 0.793500 0.362000
vn 0.780800 0.550900 -0.294900
vn 0.603700 -0.131100 -0.786300
vn 0.801000 -0.385100 0.458500
vn 0.667300 -0.459600 0.586000
vn -0.246800 -0.922100 -0.298100
vn 0.995500 0.052400 0.079000
vn 0.033900 -0.998200 0.049900
vn -0.036500 -0.947800 -0.316800
vn -0.174700 -0.154600 0.972400
vn -0.199400 -0.519700 0.830700
vn -0.187700 -0.805300 0.562300
vn -0.141600 -0.967400 0.210100
vn -0.149000 0.040000 0.988000
vn -0.214800 -0.062300 0.974700
vn -0.004600 0.987700 0.156300
vn -0.209100 0.236300 0.948900
vn -0.168200 0.590300 0.789500
vn -0.096400 0.854100 0.511100
vn -0.977300 0.027100 -0.210100
vn 0.977300 -0.027100 0.210100
vn 0.023400 0.999000 -0.037700
vn 0.021500 0.908400 -0.417600
vn 0.012500 0.990600 -0.135900
vn -0.114900 0.943100 0.311900
vn -0.221600 0.952800 0.207400
vn -0.032100 0.968600 -0.246500
vn 0.233200 0.153500 -0.960200
vn 0.168600 0.521100 -0.836700
vn 0.075200 0.807400 -0.585200
vn 0.099900 0.486700 -0.867900
vn 0.427800 0.271300 -0.862200
vn -0.475400 0.831000 -0.288900
vn 0.271300 0.191200 -0.943300
vn 0.239800 -0.042600 -0.969900
vn 0.007500 0.614800 -0.788700
vn 0.247900 -0.557600 -0.792300
vn 0.285200 -0.237000 -0.928700
vn 0.063100 -0.987600 -0.143500
vn 0.170900 -0.852800 -0.493500
vn 0.248800 -0.589200 -0.768800
vn -0.111300 0.990800 0.076900
vn -0.195300 -0.419900 0.886300
vn -0.190800 -0.422700 0.885900
vn -0.007900 0.989000 -0.148000
vn 0.197800 -0.485100 -0.851800
vn 0.140700 -0.452600 -0.880500
vn -0.956400 -0.289700 0.037800
vn -0.649700 0.276700 -0.708100
vn 0.904500 0.387600 0.177800
vn -0.970300 0.163500 0.178400
vn -0.743900 -0.627900 -0.228700
vn -0.586100 -0.795100 -0.156000
vn -0.764700 0.640400 -0.071500
vn -0.305100 -0.049100 -0.951000
vn 0.191400 0.574600 0.795700
vn -0.036300 -0.998700 0.034900
vn -0.030900 -0.990100 0.136600
vn 0.147500 -0.931700 -0.332000
vn -0.031200 -0.988900 0.145400
vn -0.961600 -0.071100 -0.265100
vn -0.928400 -0.057300 -0.367200
vn 0.496200 -0.512300 -0.701000
vn 0.985000 0.060200 -0.161700
vn 0.876700 0.268100 0.399400
vn 0.946200 0.102900 0.306700
vn 0.427400 -0.532300 0.730700
vn -0.993200 0.013300 0.115500
vn 0.032200 -0.968600 0.246600
vn -0.207700 -0.153800 0.966000
vn -0.056000 -0.806400 0.588700
vn -0.140400 -0.520600 0.842200
vn 0.192000 -0.039300 0.980600
vn 0.168800 -0.542100 0.823200
vn 0.322400 0.395700 -0.859900
vn -0.175000 -0.185300 0.967000
vn -0.178300 0.040900 0.983100
vn -0.072800 -0.611400 0.787900
vn -0.318400 0.560900 0.764200
vn -0.258400 -0.194200 0.946300
vn -0.195100 -0.234600 0.952300
vn -0.147200 0.234200 0.961000
vn -0.099100 0.985800 0.135300
vn -0.132400 0.854200 0.502800
vn -0.149400 0.589800 0.793600
vn -0.135800 0.831000 0.539400
vn 0.168600 0.905500 0.389300
vn 0.254100 0.720100 -0.645700
vn -0.980900 0.035500 -0.191400
vn -0.526500 -0.713200 -0.462800
vn 0.996500 -0.016700 0.081800
vn -0.579400 0.788300 0.207100
vn -0.581700 0.787100 0.204900
vn -0.171200 0.914500 -0.366500
vn 0.778900 0.574300 -0.251900
vn -0.044300 -0.584600 0.810100
vn -0.949300 -0.145200 -0.278900
vn -0.714700 -0.693100 -0.093800
vn -0.761800 -0.555000 -0.334000
vn -0.227300 0.831300 -0.507200
vn 0.995500 0.005800 -0.094500
vn -0.820300 -0.112600 0.560700
vn 0.913400 -0.331000 0.237000
vn -0.452500 0.860700 0.233300
vn -0.527800 -0.848800 0.032100
vn 0.674100 -0.488800 -0.553800
vn 0.326000 -0.935500 -0.136400
vn 0.154600 0.834600 -0.528700
vn -0.445600 -0.831700 0.331300
vn 0.079300 0.996800 -0.010400
vn 0.371600 -0.246500 -0.895100
vn -0.423300 -0.706400 0.567300
vn 0.129900 0.699900 0.702400
vn 0.808900 -0.587800 -0.009700
vn -0.421000 -0.648100 0.634600
vn -0.838600 0.010900 -0.544700
vn 0.065200 -0.899600 -0.431900
vn 0.630900 -0.775100 -0.034200
vn 0.104400 -0.990700 0.087700
vn -0.134700 -0.811300 -0.568900
vn -0.402200 0.721600 -0.563500
vn 0.226300 -0.823800 0.519800
vn 0.575500 -0.699600 0.423500
usemtl None
s off
f 2//1 1//1 3//1
f 2//2 3//2 4//2
f 2//3 4//3 5//3
f 5//4 4//4 1//4
f 6//5 7//5 8//5
f 8//6 7//6 9//6
f 11//7 9//7 10//7
f 9//8 11//8 8//8
f 12//9 13//9 8//9
f 8//10 13//10 14//10
f 8//11 14//11 6//11
f 6//12 14//12 10//12
f 6//13 10//13 9//13
f 30//14 9//14 7//14
f 19//15 15//15 30//15
f 30//16 15//16 9//16
f 15//17 6//17 9//17
f 6//18 15//18 13//18
f 6//19 13//19 7//19
f 17//20 16//20 2//20
f 17//21 2//21 18//21
f 18//22 2//22 5//22
f 18//23 5//23 3//23
f 8//24 3//24 12//24
f 19//25 4//25 20//25
f 21//26 16//26 19//26
f 21//27 19//27 20//27
f 11//28 23//28 8//28
f 8//29 23//29 3//29
f 3//30 23//30 4//30
f 4//31 23//31 22//31
f 4//32 16//32 17//32
f 4//33 17//33 1//33
f 1//34 17//34 18//34
f 1//35 18//35 3//35
f 1//36 2//36 16//36
f 1//37 16//37 5//37
f 5//38 16//38 3//38
f 24//39 3//39 25//39
f 26//40 3//40 27//40
f 27//41 3//41 28//41
f 28//42 3//42 24//42
f 12//43 7//43 13//43
f 14//44 13//44 15//44
f 14//45 15//45 10//45
f 26//46 29//46 3//46
f 3//47 29//47 30//47
f 3//48 30//48 22//48
f 22//49 30//49 11//49
f 11//50 30//50 12//50
f 12//51 30//51 7//51
f 3//52 22//52 12//52
f 12//53 22//53 23//53
f 12//54 23//54 11//54
f 31//55 25//55 21//55
f 21//56 25//56 3//56
f 3//57 16//57 21//57
f 32//58 4//58 33//58
f 31//59 21//59 34//59
f 35//60 21//60 32//60
f 32//61 21//61 4//61
f 34//62 21//62 35//62
f 19//63 16//63 10//63
f 4//64 21//64 10//64
f 10//65 21//65 20//65
f 11//66 10//66 20//66
f 11//67 20//67 4//67
f 11//68 4//68 22//68
f 19//69 10//69 15//69
f 10//70 16//70 4//70
f 33//71 4//71 36//71
f 36//72 4//72 19//72
f 19//73 37//73 38//73
f 19//74 38//74 39//74
f 19//75 39//75 40//75
f 19//76 40//76 36//76
f 37//77 19//77 41//77
f 41//78 19//78 30//78
f 42//79 30//79 29//79
f 41//80 30//80 43//80
f 43//81 30//81 44//81
f 44//82 30//82 42//82
f 36//83 31//83 33//83
f 33//83 31//83 34//83
f 33//83 34//83 35//83
f 40//83 39//83 36//83
f 36//83 39//83 38//83
f 36//83 38//83 37//83
f 41//83 25//83 37//83
f 37//83 25//83 31//83
f 37//83 31//83 36//83
f 43//83 29//83 41//83
f 41//83 29//83 26//83
f 41//83 26//83 25//83
f 25//83 26//83 24//83
f 24//83 26//83 28//83
f 28//83 26//83 27//83
f 43//83 44//83 29//83
f 29//83 44//83 42//83
f 35//83 32//83 33//83
f 33//84 37//84 36//84
f 25//84 41//84 31//84
f 31//84 41//84 37//84
f 31//84 37//84 33//84
f 25//84 26//84 29//84
f 25//84 29//84 41//84
f 26//85 45//85 29//85
f 52//86 46//86 26//86
f 26//87 46//87 45//87
f 29//88 45//88 69//88
f 69//89 45//89 47//89
f 27//90 52//90 26//90
f 25//91 52//91 24//91
f 24//92 52//92 28//92
f 28//93 52//93 27//93
f 48//94 49//94 65//94
f 65//95 49//95 52//95
f 48//96 50//96 49//96
f 49//97 50//97 31//97
f 31//98 50//98 25//98
f 25//99 50//99 65//99
f 25//100 65//100 52//100
f 34//101 49//101 31//101
f 33//102 49//102 32//102
f 32//103 49//103 35//103
f 35//104 49//104 34//104
f 47//105 53//105 54//105
f 53//106 46//106 55//106
f 53//107 55//107 56//107
f 47//108 46//108 53//108
f 56//109 55//109 54//109
f 54//110 55//110 47//110
f 54//111 51//111 67//111
f 53//112 56//112 52//112
f 52//113 56//113 67//113
f 67//114 56//114 54//114
f 51//115 53//115 52//115
f 59//116 54//116 53//116
f 51//117 52//117 57//117
f 58//118 60//118 52//118
f 52//119 60//119 57//119
f 36//120 61//120 33//120
f 33//121 61//121 63//121
f 66//122 61//122 36//122
f 33//123 63//123 49//123
f 61//124 45//124 46//124
f 45//125 61//125 64//125
f 45//126 64//126 47//126
f 47//127 64//127 62//127
f 62//128 63//128 65//128
f 62//129 65//129 47//129
f 47//130 65//130 46//130
f 46//131 65//131 61//131
f 40//132 66//132 36//132
f 37//133 66//133 38//133
f 39//134 66//134 40//134
f 39//135 38//135 66//135
f 66//136 68//136 67//136
f 67//137 68//137 69//137
f 66//138 51//138 68//138
f 51//139 66//139 69//139
f 41//140 70//140 37//140
f 69//141 64//141 41//141
f 41//142 64//142 70//142
f 69//143 66//143 70//143
f 70//144 66//144 37//144
f 43//145 69//145 41//145
f 29//146 69//146 42//146
f 42//147 69//147 44//147
f 44//148 69//148 43//148
f 69//149 55//149 67//149
f 69//150 47//150 55//150
f 52//151 55//151 46//151
f 52//152 67//152 55//152
f 50//153 61//153 65//153
f 65//154 63//154 48//154
f 48//155 63//155 50//155
f 50//156 63//156 61//156
f 70//157 61//157 62//157
f 70//158 62//158 69//158
f 69//159 62//159 64//159
f 64//160 61//160 70//160
f 59//161 52//161 49//161
f 59//162 49//162 51//162
f 51//163 49//163 58//163
f 51//164 58//164 53//164
f 59//165 53//165 58//165
f 59//166 58//166 52//166
f 51//167 69//167 59//167
f 54//168 59//168 68//168
f 51//169 54//169 68//169
f 68//170 59//170 69//170
f 66//171 71//171 57//171
f 72//172 66//172 60//172
f 72//173 58//173 57//173
f 60//174 66//174 57//174
f 72//175 60//175 58//175
f 71//176 72//176 57//176
f 49//177 66//177 72//177
f 67//178 71//178 66//178
f 67//179 49//179 71//179
f 71//180 49//180 72//180
f 62//181 66//181 49//181
f 62//182 49//182 63//182
f 66//183 62//183 61//183
f 67//184 51//184 57//184
f 49//185 67//185 58//185
f 58//186 67//186 57//186
