# Blender v2.76 (sub 0) OBJ File: ''
# www.blender.org
mtllib left_index_limb2.mtl
o Left_Index_Limb2
v 17.146769 -4.873845 7.610399
v 14.594295 -3.098899 7.177108
v 15.724771 -2.954765 1.475309
v 19.678791 -5.145088 0.134451
v 18.819830 1.773544 -0.174610
v 22.309219 1.935247 2.426325
v 21.574146 -1.312685 2.360103
v 18.824436 -3.180585 0.078272
v 19.079285 -3.967882 6.483088
v 21.595510 1.283321 8.793598
v 20.669701 0.638773 6.717555
v 14.618071 1.516106 5.710613
v 6.752932 -0.695675 5.567757
v 6.895855 3.354877 5.425334
v 13.749278 -2.399851 -0.363221
v 14.746389 -3.499701 3.278681
v 13.443478 -1.054957 3.010492
v 11.053444 3.597136 2.078336
v 12.597792 3.576954 3.119513
v 14.476419 2.569726 2.675736
v 12.812463 3.526467 2.005008
v 14.567137 3.351241 5.139151
v 22.425684 1.151001 6.994944
v 21.545155 -4.062185 2.390996
v 19.252930 3.655437 -0.232059
v 6.976623 3.803366 5.107541
v 7.017941 3.833395 4.919256
v 6.910550 3.544394 5.381429
v 6.938912 3.701883 5.269835
v 6.754132 -0.888610 5.537298
v 6.771054 -1.055348 5.437104
v 6.801120 -1.170505 5.282428
v 6.839755 -1.216550 5.096817
v 8.302275 -1.508632 -1.742460
v 8.480461 3.541314 -1.920022
v 8.566097 3.213763 -2.360516
v 8.567307 3.021070 -2.390983
v 8.519097 3.495317 -2.105634
v 8.549169 3.380296 -2.260315
v 8.424383 -1.029482 -2.248561
v 8.343595 -1.478554 -1.930747
v 8.381310 -1.376934 -2.093045
v 8.409679 -1.219241 -2.204647
v 1.078015 -1.521015 -1.470891
v 3.305044 1.292260 0.150858
v 3.824686 3.652750 1.866705
v -5.597185 1.694450 3.508263
v -6.852898 -4.668894 -3.138771
v -5.041661 -4.831861 -5.844840
v -7.176274 -5.222866 -1.168789
v 0.317593 -0.897920 2.552987
v -4.592187 -4.667564 -0.568165
v -13.532203 -4.473619 -0.036906
v -11.177232 0.504049 -6.955193
vn -0.551100 -0.824200 -0.130100
vn 0.512500 0.849800 0.123100
vn 0.511100 -0.561600 -0.650700
vn -0.596900 0.118900 0.793400
vn -0.709800 -0.056800 0.702200
vn 0.536100 0.209800 -0.817700
vn -0.163200 0.850700 -0.499700
vn 0.413300 0.046800 0.909400
vn 0.201800 0.295700 0.933700
vn -0.057400 0.425000 -0.903400
vn -0.903200 0.296000 0.310900
vn -0.193100 -0.909400 0.368500
vn -0.188800 0.041200 0.981200
vn 0.036800 0.302500 0.952400
vn -0.197700 -0.045300 0.979200
vn -0.223400 -0.869800 0.439900
vn -0.494200 -0.822000 0.282900
vn -0.000200 0.957300 0.289200
vn 0.760100 0.272300 -0.590000
vn 0.495400 -0.449200 -0.743500
vn -0.503400 -0.823300 -0.262300
vn -0.481600 -0.874800 -0.053100
vn -0.283900 0.168100 0.944000
vn 0.049500 0.220600 0.974100
vn 0.999000 0.014800 -0.041500
vn 0.530700 -0.073200 0.844400
vn -0.008100 -0.772600 -0.634900
vn 0.622900 0.413100 -0.664300
vn 0.115600 -0.292400 -0.949300
vn 0.192400 -0.133000 -0.972300
vn 0.157200 -0.004000 -0.987600
vn 0.522800 -0.059400 0.850400
vn -0.437800 0.436700 0.785900
vn -0.145000 0.012600 0.989400
vn -0.153000 0.012700 0.988100
vn -0.239300 -0.783300 0.573800
vn 0.789300 -0.097000 -0.606300
vn 0.656400 0.000300 -0.754400
vn 0.366300 -0.890700 0.269100
vn 0.716200 -0.589300 0.373900
vn 0.598200 -0.456900 0.658300
vn 0.122200 0.975600 0.182400
vn -0.185400 0.235400 0.954000
vn -0.096400 0.587000 0.803900
vn 0.011800 0.846600 0.532100
vn -0.883000 -0.469100 0.013800
vn 0.922300 0.380500 -0.068100
vn -0.403400 -0.900600 -0.161500
vn -0.264000 -0.960500 0.088400
vn -0.243400 -0.152700 0.957800
vn -0.311800 -0.512400 0.800100
vn -0.322500 -0.788200 0.524100
vn -0.276700 -0.944600 0.176700
vn -0.163200 -0.986600 0.007200
vn -0.218700 -0.973600 -0.065800
vn 0.013100 0.955200 0.295700
vn 0.845600 0.413700 -0.337400
vn 0.033500 0.998800 -0.035500
vn 0.035300 0.998800 -0.033000
vn 0.062200 0.996800 0.050800
vn 0.038500 0.998500 -0.038700
vn -0.013500 0.999700 0.018700
vn -0.038200 0.997900 -0.052600
vn 0.029700 0.996200 0.082300
vn 0.045400 0.904300 0.424400
vn 0.258700 0.964700 0.048400
vn 0.186800 0.154600 -0.970200
vn 0.026600 0.971600 -0.235200
vn 0.089700 0.807500 -0.583000
vn 0.146000 0.520900 -0.841000
vn 0.186400 -0.182900 -0.965300
vn 0.201800 -0.076300 -0.976500
vn 0.078800 -0.050700 -0.995600
vn 0.088200 0.009900 -0.996100
vn 0.039900 -0.039700 -0.998400
vn 0.323200 -0.044600 -0.945300
vn -0.114000 -0.976800 -0.181100
vn 0.144100 -0.588800 -0.795300
vn 0.269500 -0.236900 -0.933400
vn 0.008800 -0.848500 -0.529200
vn -0.977300 0.027100 -0.210100
vn 0.977300 -0.027100 0.210100
vn 0.170300 -0.824400 -0.539800
vn -0.508300 -0.858200 -0.072000
vn 0.033000 -0.518600 0.854400
vn -0.130400 -0.968300 0.213100
vn -0.262100 -0.797800 0.543000
vn -0.362000 -0.506900 0.782300
vn -0.416100 -0.144300 0.897800
vn -0.156800 0.040200 0.986800
vn -0.246900 -0.776900 0.579200
vn -0.177900 0.235200 0.955500
vn -0.178700 0.977000 0.116600
vn -0.204300 0.590200 0.781000
vn -0.204300 0.850600 0.484400
vn 0.786500 -0.570400 0.236900
vn -0.257800 0.616700 -0.743800
vn 0.250700 -0.624700 0.739500
vn -0.735100 0.497000 -0.461100
vn -0.310100 -0.718500 -0.622500
vn -0.439000 0.888800 -0.131800
vn 0.634500 0.358200 -0.684900
vn -0.235800 0.893800 0.381400
vn -0.179900 0.975000 0.130500
vn -0.663600 0.695800 0.274700
vn 0.001900 0.993500 -0.114000
vn -0.580000 -0.738500 -0.343800
vn -0.532600 -0.788000 -0.309000
vn 0.836300 -0.425000 0.346200
vn 0.078300 -0.570600 0.817500
vn 0.483500 -0.875200 -0.013900
vn -0.973400 -0.211100 0.089500
vn -0.106300 -0.548300 0.829500
vn -0.088300 -0.218100 -0.971900
vn -0.058600 -0.569600 -0.819800
vn -0.028900 -0.844200 -0.535300
vn -0.004300 -0.987300 -0.158700
vn 0.230100 -0.042300 -0.972200
vn 0.020700 -0.921900 -0.386800
vn 0.430500 0.319400 -0.844200
vn -0.083200 0.963100 -0.256000
vn 0.024000 0.804500 -0.593500
vn 0.125000 0.520800 -0.844500
vn 0.203800 0.154100 -0.966800
vn -0.045600 0.695800 -0.716800
vn 0.212300 -0.958800 0.188600
vn 0.217900 -0.825200 0.521200
vn -0.396200 0.898800 0.187700
vn 0.061000 0.588200 -0.806400
vn -0.300100 0.720300 0.625400
usemtl None
s off
f 1//1 2//1 3//1
f 3//2 2//2 4//2
f 3//3 5//3 6//3
f 6//4 5//4 7//4
f 7//5 5//5 4//5
f 7//6 4//6 8//6
f 7//7 8//7 3//7
f 3//8 8//8 5//8
f 12//9 2//9 9//9
f 9//10 2//10 10//10
f 9//11 10//11 11//11
f 11//12 10//12 12//12
f 13//13 2//13 14//13
f 14//14 2//14 12//14
f 2//15 1//15 10//15
f 12//16 10//16 14//16
f 3//17 17//17 15//17
f 3//18 15//18 16//18
f 17//19 18//19 12//19
f 12//20 18//20 19//20
f 12//21 19//21 20//21
f 20//22 19//22 21//22
f 20//23 21//23 17//23
f 17//24 21//24 18//24
f 20//25 22//25 12//25
f 20//26 17//26 25//26
f 1//27 17//27 9//27
f 9//28 17//28 12//28
f 12//29 22//29 11//29
f 11//30 22//30 23//30
f 11//31 23//31 9//31
f 17//32 3//32 25//32
f 25//33 3//33 6//33
f 6//34 7//34 24//34
f 24//35 7//35 3//35
f 3//36 4//36 24//36
f 24//37 4//37 6//37
f 6//38 4//38 25//38
f 20//39 25//39 22//39
f 23//40 10//40 1//40
f 23//41 1//41 9//41
f 26//42 10//42 27//42
f 14//43 10//43 28//43
f 28//44 10//44 29//44
f 29//45 10//45 26//45
f 16//46 2//46 17//46
f 17//47 2//47 15//47
f 16//48 15//48 4//48
f 16//49 4//49 2//49
f 2//50 13//50 30//50
f 2//51 30//51 31//51
f 2//52 31//52 32//52
f 2//53 32//53 33//53
f 34//54 15//54 33//54
f 33//55 15//55 2//55
f 3//56 16//56 1//56
f 1//57 16//57 17//57
f 18//58 35//58 27//58
f 18//59 27//59 19//59
f 19//60 27//60 22//60
f 35//61 18//61 21//61
f 21//62 25//62 35//62
f 25//63 21//63 19//63
f 25//64 19//64 22//64
f 10//65 22//65 27//65
f 23//66 22//66 10//66
f 36//67 25//67 37//67
f 35//68 25//68 38//68
f 38//69 25//69 39//69
f 39//70 25//70 36//70
f 5//71 15//71 37//71
f 5//72 37//72 25//72
f 15//73 5//73 8//73
f 15//74 8//74 4//74
f 4//75 5//75 25//75
f 40//76 37//76 15//76
f 15//77 34//77 41//77
f 15//78 42//78 43//78
f 40//79 15//79 43//79
f 41//80 42//80 15//80
f 35//81 14//81 27//81
f 27//81 14//81 28//81
f 27//81 28//81 29//81
f 38//81 39//81 35//81
f 35//81 39//81 36//81
f 35//81 36//81 37//81
f 40//81 13//81 37//81
f 37//81 13//81 14//81
f 37//81 14//81 35//81
f 43//81 34//81 40//81
f 40//81 34//81 33//81
f 40//81 33//81 13//81
f 13//81 33//81 30//81
f 30//81 33//81 31//81
f 31//81 33//81 32//81
f 43//81 42//81 34//81
f 34//81 42//81 41//81
f 29//81 26//81 27//81
f 27//82 37//82 35//82
f 13//82 40//82 14//82
f 14//82 40//82 37//82
f 14//82 37//82 27//82
f 13//82 33//82 34//82
f 13//82 34//82 40//82
f 51//83 45//83 33//83
f 33//84 45//84 34//84
f 34//85 45//85 44//85
f 51//86 33//86 32//86
f 51//87 32//87 31//87
f 51//88 31//88 30//88
f 51//89 30//89 13//89
f 14//90 47//90 13//90
f 13//91 47//91 51//91
f 28//92 47//92 14//92
f 27//93 47//93 26//93
f 29//94 47//94 28//94
f 26//95 47//95 29//95
f 46//96 51//96 44//96
f 46//97 44//97 47//97
f 47//98 44//98 45//98
f 46//99 45//99 51//99
f 54//100 48//100 53//100
f 35//101 45//101 27//101
f 27//102 45//102 46//102
f 54//103 45//103 35//103
f 46//104 47//104 27//104
f 54//105 53//105 47//105
f 47//106 45//106 54//106
f 54//107 49//107 48//107
f 48//108 49//108 50//108
f 50//109 49//109 47//109
f 50//110 47//110 53//110
f 44//111 52//111 49//111
f 49//112 52//112 47//112
f 47//113 52//113 51//113
f 44//114 40//114 43//114
f 44//115 43//115 42//115
f 44//116 42//116 41//116
f 44//117 41//117 34//117
f 37//118 40//118 54//118
f 54//119 40//119 44//119
f 44//120 49//120 54//120
f 54//121 35//121 38//121
f 54//122 38//122 39//122
f 54//123 39//123 36//123
f 54//124 36//124 37//124
f 51//125 50//125 53//125
f 51//126 53//126 44//126
f 44//127 53//127 48//127
f 50//128 44//128 48//128
f 52//129 50//129 51//129
f 52//130 44//130 50//130
