# Blender v2.76 (sub 0) OBJ File: ''
# www.blender.org
mtllib left_thumb_limb0.mtl
o Left_Thumb_Limb0
v 1.734537 -5.175143 -4.124804
v 1.923307 0.645337 -4.362057
v -2.958493 1.470382 -0.270312
v 0.209878 -1.551795 4.119206
v 4.010122 -2.194053 0.933982
v 4.977828 -2.818844 1.429644
v 5.057602 -2.910182 1.583355
v 5.093093 -2.988729 1.759150
v 5.081882 -3.049135 1.945051
v 5.024732 -3.087281 2.128387
v 4.925539 -3.100568 2.296665
v 4.791062 -3.088091 2.438418
v 4.645660 -2.502002 0.969453
v 4.140062 -2.225828 0.852879
v 4.282293 -2.278351 0.814366
v 4.422894 -2.346479 0.822213
v 4.548102 -2.423544 0.875652
v -2.166284 -5.399354 -2.916352
v -2.777555 -4.185387 2.350310
v -4.045383 1.428329 1.280234
v -3.989426 1.227017 1.776878
v -4.048258 1.608852 0.772576
v -3.998016 1.766491 0.259800
v -3.895240 1.899414 -0.252140
v -3.741125 2.006078 -0.757298
v -3.537460 2.085246 -1.249808
v -3.286610 2.135996 -1.723952
v -2.991488 2.157740 -2.174222
v -2.655521 2.150225 -2.595392
v -2.282611 2.113539 -2.982568
v -1.877088 2.048108 -3.331256
v -1.443661 1.954691 -3.637406
v -0.987364 1.834373 -3.897463
v -0.513494 1.688552 -4.108407
v -0.027556 1.518921 -4.267789
v 0.464808 1.327449 -4.373757
v 0.957881 1.116360 -4.425082
v 1.445937 0.888106 -4.421167
v -2.928869 0.623103 2.091112
v -3.081298 0.658157 2.192545
v -3.248168 0.713699 2.254951
v -3.418749 0.786149 2.274343
v -3.582890 0.871181 2.249604
v -3.730349 0.963523 2.182189
v -3.851761 1.057281 2.076459
v -3.940077 1.147055 1.938429
v 0.085368 -1.731293 4.791722
v 0.025009 -1.659122 4.666742
v 0.007759 -1.600302 4.522817
v 0.035304 -1.560591 4.374035
v 0.104950 -1.543877 4.234961
v 0.417536 -2.048134 5.251913
v 1.370843 -2.510059 5.305120
v 1.210247 -2.472667 5.410686
v 1.034476 -2.412910 5.472872
v 0.855509 -2.334859 5.487440
v 0.685541 -2.243834 5.453397
v 0.536157 -2.146038 5.373064
v -2.265359 0.510967 1.534982
v -3.031901 1.242139 0.473002
v -2.651876 1.177913 0.154480
v 6.100513 2.733522 -1.694283
v 5.384709 2.757946 1.095982
v 4.858540 -0.480795 1.043855
v 0.048489 3.013398 4.893001
v 1.629209 6.476580 0.531832
vn 0.643400 0.010300 0.765500
vn 0.809100 0.268200 0.522900
vn -0.441500 0.788500 -0.428200
vn -0.207800 0.880800 -0.425500
vn 0.571100 -0.540700 -0.617700
vn 0.522900 -0.733900 -0.433500
vn 0.447200 -0.858200 -0.251900
vn 0.356900 -0.930500 -0.082300
vn 0.256900 -0.963500 0.075400
vn 0.147200 -0.963300 0.224500
vn 0.577600 -0.415300 -0.702800
vn 0.170000 -0.909200 0.380000
vn -0.084200 0.874600 -0.477500
vn 0.150800 0.816800 -0.556900
vn 0.374200 0.702700 -0.605200
vn 0.586200 0.523800 -0.618100
vn 0.770600 0.265300 -0.579500
vn -0.964000 -0.265800 0.000900
vn -0.972600 -0.224300 -0.061200
vn -0.972200 -0.222300 -0.073600
vn -0.971700 -0.181500 -0.151000
vn -0.962400 -0.143800 -0.230500
vn -0.944000 -0.110000 -0.311200
vn -0.916500 -0.080600 -0.391900
vn -0.880000 -0.056200 -0.471600
vn -0.835000 -0.037300 -0.549100
vn -0.781700 -0.024200 -0.623200
vn -0.721000 -0.017300 -0.692800
vn -0.653400 -0.016800 -0.756800
vn -0.580100 -0.022800 -0.814200
vn -0.501900 -0.035400 -0.864200
vn -0.420000 -0.054400 -0.905900
vn -0.289800 -0.092600 -0.952600
vn -0.344400 -0.110600 -0.932300
vn -0.240800 -0.084000 -0.966900
vn -0.130100 -0.063300 -0.989500
vn -0.015200 -0.049500 -0.998700
vn 0.100800 -0.043800 -0.993900
vn 0.562800 0.062100 0.824300
vn 0.365300 0.053200 0.929400
vn 0.126100 0.031400 0.991500
vn -0.151300 -0.004400 0.988500
vn -0.442300 -0.052600 0.895300
vn -0.698400 -0.106100 0.707800
vn -0.874900 -0.155300 0.458800
vn -0.960900 -0.194200 0.197400
vn -0.760400 0.331400 0.558600
vn -0.766400 0.557200 0.319600
vn -0.703400 0.708400 0.058800
vn -0.587600 0.784000 -0.200100
vn -0.430200 0.786100 -0.443800
vn -0.727400 0.193600 0.658300
vn 0.065800 -0.904800 0.420600
vn -0.079900 -0.821900 0.564000
vn -0.243200 -0.685700 0.686100
vn -0.415000 -0.487600 0.768200
vn -0.574000 -0.231600 0.785400
vn -0.691100 0.054600 0.720700
vn 0.130800 -0.930000 0.343600
vn 0.136700 -0.961700 0.237500
vn 0.647200 0.061300 0.759800
vn 0.727400 -0.193600 -0.658300
vn 0.644300 0.276800 0.712900
vn 0.666200 -0.295900 -0.684600
vn 0.401500 0.863700 0.304800
vn 0.401500 0.863600 0.304800
vn 0.401500 0.863600 0.304900
vn -0.401500 -0.863700 -0.304800
vn 0.392600 0.602800 -0.694700
vn 0.160700 0.639200 -0.752000
vn 0.299200 0.627400 -0.718900
vn 0.202600 0.651100 -0.731500
vn 0.104400 0.673500 -0.731800
vn 0.006400 0.694400 -0.719500
vn -0.089700 0.713500 -0.694800
vn -0.182400 0.730600 -0.658000
vn -0.269900 0.745400 -0.609500
vn -0.350800 0.757700 -0.550200
vn -0.423900 0.767500 -0.481000
vn -0.487800 0.774400 -0.402900
vn -0.541600 0.778400 -0.317400
vn -0.584500 0.779300 -0.225800
vn -0.615800 0.777200 -0.129700
vn -0.635100 0.771800 -0.030800
vn -0.642300 0.763300 0.069300
vn -0.637400 0.751800 0.168700
vn -0.600500 0.717800 0.352400
vn -0.552600 0.784300 0.282000
vn -0.595000 0.719300 0.358600
vn -0.639700 0.593000 0.489000
vn -0.658400 0.364700 0.658400
vn -0.612800 0.091600 0.784900
vn -0.503200 -0.187800 0.843500
vn -0.349500 -0.432900 0.830900
vn -0.177200 -0.621400 0.763200
vn -0.003500 -0.751600 0.659600
vn 0.164200 -0.829800 0.533400
vn 0.726600 0.082800 0.682000
vn 0.859600 0.037100 0.509600
vn 0.955100 -0.006500 0.296400
vn 0.997900 -0.045400 0.045400
vn 0.970300 -0.075700 -0.229700
vn 0.860200 -0.092800 -0.501500
vn 0.775400 -0.093900 -0.624400
vn -0.340000 0.070300 -0.937800
vn 0.955900 -0.159300 0.246600
vn 0.673900 -0.043800 -0.737500
vn 0.400500 0.015300 -0.916200
vn 0.100900 0.094100 -0.990400
vn -0.192700 0.184800 -0.963700
vn -0.457800 0.280800 -0.843500
vn 0.188400 -0.894600 0.405200
vn 0.165200 -0.967200 0.192900
vn -0.714200 -0.273100 -0.644500
vn -0.464800 0.284000 -0.838600
vn -0.627700 0.108500 -0.770800
vn 0.245700 -0.850700 0.464700
vn 0.486900 0.589500 0.644600
vn 0.649200 0.107000 0.753000
vn 0.574700 0.196800 0.794400
vn -0.735000 0.088000 -0.672300
vn -0.895400 0.052700 -0.442100
vn -0.984100 0.022800 -0.176100
vn -0.992900 -0.000800 0.118700
vn -0.904000 -0.016100 0.427300
vn -0.816800 -0.018700 0.576700
vn -0.715600 -0.002600 0.698500
vn -0.452800 0.040100 0.890700
vn -0.150800 0.086700 0.984800
vn 0.136500 0.129800 0.982100
vn 0.378600 0.166100 0.910500
vn 0.570100 0.196000 0.797900
vn 0.816800 0.018700 -0.576700
vn 0.099600 -0.945700 0.309500
vn 0.842100 0.118900 -0.526000
vn 0.680700 0.713000 0.168400
usemtl None
s off
f 2//1 3//1 1//1
f 1//2 3//2 19//2
f 1//3 19//3 4//3
f 1//4 4//4 5//4
f 18//5 6//5 7//5
f 18//6 7//6 8//6
f 18//7 8//7 9//7
f 18//8 9//8 10//8
f 18//9 10//9 11//9
f 18//10 11//10 12//10
f 6//11 18//11 13//11
f 13//12 18//12 1//12
f 5//13 14//13 1//13
f 14//14 15//14 1//14
f 15//15 16//15 1//15
f 16//16 17//16 1//16
f 17//17 13//17 1//17
f 20//18 18//18 21//18
f 21//19 18//19 19//19
f 18//20 20//20 22//20
f 18//21 22//21 23//21
f 18//22 23//22 24//22
f 18//23 24//23 25//23
f 18//24 25//24 26//24
f 18//25 26//25 27//25
f 18//26 27//26 28//26
f 18//27 28//27 29//27
f 18//28 29//28 30//28
f 18//29 30//29 31//29
f 18//30 31//30 32//30
f 18//31 32//31 33//31
f 18//32 33//32 34//32
f 18//33 34//33 1//33
f 1//34 34//34 35//34
f 1//35 35//35 36//35
f 1//36 36//36 37//36
f 1//37 37//37 38//37
f 1//38 38//38 2//38
f 19//39 39//39 40//39
f 19//40 40//40 41//40
f 19//41 41//41 42//41
f 19//42 42//42 43//42
f 19//43 43//43 44//43
f 19//44 44//44 45//44
f 45//45 46//45 19//45
f 46//46 21//46 19//46
f 19//47 47//47 48//47
f 19//48 48//48 49//48
f 19//49 49//49 50//49
f 19//50 50//50 51//50
f 19//51 51//51 4//51
f 52//52 47//52 19//52
f 19//53 53//53 54//53
f 19//54 54//54 55//54
f 19//55 55//55 56//55
f 19//56 56//56 57//56
f 19//57 57//57 58//57
f 19//58 58//58 52//58
f 53//59 19//59 12//59
f 12//60 19//60 18//60
f 39//61 19//61 59//61
f 60//62 59//62 19//62
f 60//63 19//63 61//63
f 3//64 61//64 19//64
f 59//65 60//65 39//65
f 39//65 60//65 40//65
f 40//65 60//65 41//65
f 41//65 60//65 42//65
f 42//65 60//65 43//65
f 43//65 60//65 44//65
f 44//65 60//65 45//65
f 45//65 60//65 46//65
f 46//65 60//65 21//65
f 21//65 60//65 20//65
f 20//65 60//65 22//65
f 22//65 60//65 3//65
f 22//65 3//65 23//65
f 23//65 3//65 24//65
f 24//65 3//65 25//65
f 25//65 3//65 26//65
f 26//65 3//65 27//65
f 27//65 3//65 28//65
f 28//65 3//65 29//65
f 29//65 3//65 30//65
f 30//65 3//65 31//65
f 31//65 3//65 32//65
f 32//65 3//65 33//65
f 33//65 3//65 34//65
f 34//65 3//65 35//65
f 35//65 3//65 36//65
f 36//65 3//65 37//65
f 37//65 3//65 38//65
f 38//65 3//65 2//65
f 60//65 61//65 3//65
f 51//65 49//65 4//65
f 4//65 49//65 48//65
f 4//65 48//65 47//65
f 51//65 50//65 49//65
f 47//65 52//65 4//65
f 4//65 52//65 53//65
f 4//65 53//65 5//65
f 5//65 53//65 12//65
f 5//65 12//65 13//65
f 13//65 12//65 6//65
f 6//65 12//65 7//65
f 7//66 12//66 8//66
f 8//65 12//65 11//65
f 8//65 11//65 9//65
f 9//65 11//65 10//65
f 58//65 57//65 52//65
f 52//65 57//65 56//65
f 52//65 56//65 55//65
f 55//65 54//65 52//65
f 52//65 54//65 53//65
f 17//65 16//65 13//65
f 13//67 16//67 15//67
f 13//65 15//65 14//65
f 14//65 5//65 13//65
f 54//68 55//68 53//68
f 53//68 55//68 56//68
f 53//68 56//68 57//68
f 57//68 58//68 53//68
f 53//68 58//68 52//68
f 38//69 66//69 2//69
f 2//70 66//70 62//70
f 66//71 38//71 37//71
f 66//72 37//72 36//72
f 66//73 36//73 35//73
f 66//74 35//74 34//74
f 66//75 34//75 33//75
f 66//76 33//76 32//76
f 66//77 32//77 31//77
f 66//78 31//78 30//78
f 66//79 30//79 29//79
f 66//80 29//80 28//80
f 66//81 28//81 27//81
f 66//82 27//82 26//82
f 66//83 26//83 25//83
f 66//84 25//84 24//84
f 66//85 24//85 23//85
f 66//86 23//86 22//86
f 66//87 22//87 65//87
f 65//88 22//88 20//88
f 65//89 20//89 21//89
f 21//90 46//90 65//90
f 46//91 45//91 65//91
f 65//92 45//92 44//92
f 65//93 44//93 43//93
f 65//94 43//94 42//94
f 65//95 42//95 41//95
f 65//96 41//96 40//96
f 65//97 40//97 39//97
f 63//98 12//98 11//98
f 63//99 11//99 10//99
f 63//100 10//100 9//100
f 63//101 9//101 8//101
f 63//102 8//102 7//102
f 63//103 7//103 6//103
f 6//104 13//104 63//104
f 63//105 13//105 64//105
f 63//106 64//106 62//106
f 64//107 13//107 17//107
f 64//108 17//108 16//108
f 64//109 16//109 15//109
f 64//110 15//110 14//110
f 64//111 14//111 5//111
f 2//112 62//112 3//112
f 3//113 62//113 65//113
f 65//114 62//114 64//114
f 65//115 64//115 5//115
f 65//116 5//116 4//116
f 39//117 59//117 65//117
f 66//118 65//118 63//118
f 12//119 63//119 53//119
f 53//120 63//120 65//120
f 4//121 51//121 65//121
f 51//122 50//122 65//122
f 50//123 49//123 65//123
f 49//124 48//124 65//124
f 48//125 47//125 65//125
f 52//126 65//126 47//126
f 65//127 52//127 58//127
f 65//128 58//128 57//128
f 65//129 57//129 56//129
f 65//130 56//130 55//130
f 65//131 55//131 54//131
f 65//132 54//132 53//132
f 60//133 65//133 59//133
f 61//134 65//134 60//134
f 3//135 65//135 61//135
f 63//136 62//136 66//136
