# Blender v2.76 (sub 0) OBJ File: ''
# www.blender.org
mtllib left_index_limb0.mtl
o Left_Index_Limb0
v -0.907268 3.807811 3.465038
v 2.581908 -2.429715 5.378245
v -0.185951 -4.804670 0.166029
v -3.128510 0.837946 -0.704188
v 4.518823 -0.603877 0.992702
v 2.228184 3.788625 0.315281
v 5.741467 -0.495824 1.249540
v 5.897471 -0.380991 1.277996
v 6.019428 -0.229083 1.297588
v 6.099027 -0.050451 1.306980
v 6.130843 0.142730 1.305534
v 6.112709 0.337297 1.293347
v 6.045859 0.519988 1.271249
v 5.179879 -0.805169 1.142660
v 4.610751 -0.727966 1.017660
v 4.735967 -0.816616 1.048222
v 4.882213 -0.861148 1.081397
v 5.035175 -0.857204 1.113938
v -1.754915 0.355376 6.323464
v -3.456874 2.717568 -0.854678
v -3.171068 3.140052 -0.811604
v -3.699160 2.267827 -0.887282
v -3.895388 1.795543 -0.909074
v -4.043502 1.305666 -0.919826
v -4.141948 0.803331 -0.919425
v -4.189694 0.293802 -0.907875
v -4.186242 -0.217580 -0.885297
v -4.131626 -0.725454 -0.851928
v -4.026419 -1.224498 -0.808118
v -3.871723 -1.709481 -0.754326
v -3.669161 -2.175319 -0.691116
v -3.420855 -2.617131 -0.619149
v -3.129407 -3.030285 -0.539182
v -2.797874 -3.410451 -0.452050
v -2.429729 -3.753644 -0.358669
v -2.028831 -4.056268 -0.260017
v -1.599382 -4.315150 -0.157127
v -1.145883 -4.527577 -0.051078
v -0.673088 -4.691322 0.057018
v -1.943148 3.043536 -0.544902
v -2.047906 3.195009 -0.573772
v -2.186387 3.315180 -0.608517
v -2.349671 3.396346 -0.646901
v -2.528023 3.433712 -0.686635
v -2.710360 3.424863 -0.725249
v -2.885062 3.370436 -0.760283
v -3.042044 3.273474 -0.789711
v 2.431112 4.465833 0.329754
v 2.308831 4.370802 0.307664
v 2.220941 4.242076 0.294367
v 2.176047 4.092256 0.291165
v 2.178543 3.936007 0.298371
v 2.992701 4.775178 0.436634
v 3.984284 4.473240 0.661570
v 3.873276 4.631608 0.631069
v 3.172120 4.845110 0.472015
v 3.362728 4.865375 0.511909
v 3.551534 4.834591 0.553598
v 3.725672 4.754858 0.594241
v -1.543210 2.276620 -0.426626
v -2.839184 1.562746 -0.673272
v -2.610120 1.123496 -0.605530
v 4.501469 -3.462028 -3.594556
v 1.803096 -2.098053 -5.870646
v 0.524367 3.720174 -4.214396
vn 0.770500 0.316500 -0.553400
vn 0.769300 0.250000 -0.587900
vn -0.640500 -0.431900 -0.635000
vn -0.669300 -0.533100 -0.517500
vn 0.583500 -0.809300 0.067400
vn 0.730700 -0.622700 0.279700
vn 0.798200 -0.380200 0.467300
vn 0.785700 -0.124900 0.605800
vn 0.714000 0.109900 0.691500
vn 0.605200 0.310100 0.733200
vn 0.487400 -0.872500 -0.035700
vn -0.633700 -0.573800 -0.518800
vn -0.419500 -0.762400 -0.492700
vn -0.176100 -0.890600 -0.419400
vn 0.088200 -0.950000 -0.299600
vn 0.358800 -0.923700 -0.134200
vn -0.794200 0.502400 0.341900
vn -0.800700 0.486300 0.349900
vn -0.838200 0.427000 0.339300
vn -0.877300 0.349300 0.329200
vn -0.908100 0.267500 0.322000
vn -0.930400 0.182600 0.317900
vn -0.943600 0.095600 0.316900
vn -0.947700 0.007700 0.319000
vn -0.942600 -0.080100 0.324300
vn -0.928300 -0.166500 0.332600
vn -0.905000 -0.250500 0.343800
vn -0.873100 -0.331100 0.357700
vn -0.833100 -0.407300 0.374300
vn -0.785500 -0.478000 0.393100
vn -0.730900 -0.542500 0.414000
vn -0.670200 -0.600100 0.436700
vn -0.604200 -0.650100 0.460800
vn -0.533700 -0.692100 0.486000
vn -0.459600 -0.725700 0.512000
vn -0.383100 -0.750600 0.538400
vn -0.304800 -0.766800 0.564900
vn -0.368200 -0.756700 0.540300
vn 0.809500 0.501800 -0.304800
vn 0.667600 0.684700 -0.292400
vn 0.477600 0.841700 -0.251800
vn 0.239900 0.954000 -0.179600
vn -0.032000 0.996500 -0.077300
vn -0.305300 0.951200 0.044400
vn -0.540600 0.824400 0.167700
vn -0.713100 0.644100 0.276900
vn -0.518900 0.759100 -0.393200
vn -0.649000 0.502100 -0.571500
vn -0.708700 0.226600 -0.668100
vn -0.714600 -0.043600 -0.698100
vn -0.675900 -0.304700 -0.671000
vn -0.502500 0.835600 0.222100
vn 0.568300 0.437500 0.696900
vn 0.437500 0.455900 0.775100
vn -0.398300 0.858400 0.323200
vn -0.192900 0.850200 0.489900
vn -0.005500 0.792400 0.610000
vn 0.160100 0.703000 0.693000
vn 0.306600 0.590300 0.746600
vn 0.497300 0.379600 0.780100
vn 0.469700 0.480000 0.740900
vn 0.864000 0.404200 -0.300200
vn 0.424500 -0.864100 0.270600
vn 0.778300 0.322800 -0.538500
vn 0.386300 -0.836000 0.389700
vn 0.208900 -0.041700 -0.977000
vn -0.208900 0.041700 0.977000
vn -0.089400 -0.897500 -0.431900
vn -0.110100 -0.892900 -0.436600
vn -0.194700 -0.866200 -0.460300
vn -0.275100 -0.829700 -0.485800
vn -0.349900 -0.784100 -0.512600
vn -0.418200 -0.730100 -0.540400
vn -0.479100 -0.668600 -0.568700
vn -0.531800 -0.600600 -0.597000
vn -0.575800 -0.527200 -0.624900
vn -0.610700 -0.449400 -0.651900
vn -0.636300 -0.368600 -0.677700
vn -0.652400 -0.285900 -0.701900
vn -0.659200 -0.202500 -0.724200
vn -0.657100 -0.119600 -0.744300
vn -0.621500 0.085100 -0.778800
vn -0.553900 -0.040500 -0.831600
vn -0.591800 0.037200 -0.805200
vn -0.622000 0.121300 -0.773500
vn -0.642600 0.210500 -0.736700
vn -0.651800 0.302900 -0.695200
vn -0.648400 0.396400 -0.650000
vn -0.631300 0.488500 -0.602300
vn -0.573200 0.638500 -0.513600
vn -0.442700 0.824000 -0.353500
vn -0.263400 0.950700 -0.163700
vn -0.055400 0.997900 0.033100
vn 0.154800 0.964900 0.212300
vn 0.346800 0.866900 0.358100
vn 0.510700 0.723000 0.465200
vn 0.644300 0.547400 0.534200
vn 0.799200 0.225000 -0.557300
vn 0.849000 0.046200 -0.526400
vn 0.866700 -0.146300 -0.477000
vn 0.843400 -0.354600 -0.403600
vn 0.762600 -0.573700 -0.299000
vn 0.603900 -0.781200 -0.158200
vn 0.492300 -0.867000 -0.077200
vn 0.670300 0.602200 -0.433700
vn 0.220700 -0.863800 0.452900
vn -0.081800 -0.868100 0.489500
vn -0.353200 -0.805100 0.476600
vn -0.590200 -0.688200 0.421900
vn -0.789700 -0.519400 0.326600
vn 0.474700 0.370700 0.798300
vn -0.839600 -0.437100 0.322400
vn -0.871800 -0.414300 0.261400
vn 0.520900 0.355400 0.776100
vn 0.700200 0.450500 0.553900
vn 0.763000 0.310400 -0.567000
vn 0.745500 0.328900 -0.579800
vn -0.901400 -0.264200 0.343000
vn -0.938900 0.000900 0.344100
vn -0.911800 0.266600 0.312300
vn -0.812400 0.529400 0.244400
vn -0.623100 0.770400 0.135000
vn -0.490700 0.869000 0.063300
vn -0.359500 0.932900 -0.020800
vn -0.062200 0.977900 -0.199600
vn 0.226400 0.906800 -0.355700
vn 0.455900 0.757900 -0.466600
vn 0.616200 0.578200 -0.534700
vn 0.719600 0.394300 -0.571500
vn 0.490700 -0.869000 -0.063300
vn 0.534500 0.394000 0.747700
vn 0.500400 -0.847800 -0.175400
usemtl None
s off
f 3//1 4//1 2//1
f 2//2 4//2 1//2
f 5//3 1//3 6//3
f 5//4 2//4 1//4
f 2//5 7//5 8//5
f 2//6 8//6 9//6
f 2//7 9//7 10//7
f 2//8 10//8 11//8
f 2//9 11//9 12//9
f 2//10 12//10 13//10
f 7//11 2//11 14//11
f 5//12 15//12 2//12
f 15//13 16//13 2//13
f 16//14 17//14 2//14
f 17//15 18//15 2//15
f 18//16 14//16 2//16
f 20//17 1//17 21//17
f 1//18 20//18 19//18
f 19//19 20//19 22//19
f 19//20 22//20 23//20
f 19//21 23//21 24//21
f 19//22 24//22 25//22
f 19//23 25//23 26//23
f 19//24 26//24 27//24
f 19//25 27//25 28//25
f 19//26 28//26 29//26
f 19//27 29//27 30//27
f 19//28 30//28 31//28
f 19//29 31//29 32//29
f 19//30 32//30 33//30
f 19//31 33//31 34//31
f 19//32 34//32 35//32
f 19//33 35//33 36//33
f 19//34 36//34 37//34
f 19//35 37//35 38//35
f 19//36 38//36 39//36
f 19//37 39//37 3//37
f 19//38 3//38 2//38
f 1//39 40//39 41//39
f 1//40 41//40 42//40
f 1//41 42//41 43//41
f 1//42 43//42 44//42
f 1//43 44//43 45//43
f 1//44 45//44 46//44
f 46//45 47//45 1//45
f 47//46 21//46 1//46
f 1//47 48//47 49//47
f 1//48 49//48 50//48
f 1//49 50//49 51//49
f 1//50 51//50 52//50
f 1//51 52//51 6//51
f 53//52 48//52 19//52
f 19//53 48//53 1//53
f 54//54 55//54 19//54
f 53//55 19//55 56//55
f 56//56 19//56 57//56
f 57//57 19//57 58//57
f 58//58 19//58 59//58
f 59//59 19//59 55//59
f 54//60 19//60 13//60
f 13//61 19//61 2//61
f 40//62 1//62 60//62
f 61//63 60//63 1//63
f 61//64 1//64 62//64
f 4//65 62//65 1//65
f 60//66 61//66 40//66
f 40//66 61//66 41//66
f 41//66 61//66 42//66
f 42//66 61//66 43//66
f 43//66 61//66 44//66
f 44//66 61//66 45//66
f 45//66 61//66 46//66
f 46//66 61//66 47//66
f 47//66 61//66 21//66
f 21//66 61//66 20//66
f 20//66 61//66 22//66
f 22//66 61//66 4//66
f 22//66 4//66 23//66
f 23//66 4//66 24//66
f 24//66 4//66 25//66
f 25//66 4//66 26//66
f 26//66 4//66 27//66
f 27//66 4//66 28//66
f 28//66 4//66 29//66
f 29//66 4//66 30//66
f 30//66 4//66 31//66
f 31//66 4//66 32//66
f 32//66 4//66 33//66
f 33//66 4//66 34//66
f 34//66 4//66 35//66
f 35//66 4//66 36//66
f 36//66 4//66 37//66
f 37//66 4//66 38//66
f 38//66 4//66 39//66
f 39//66 4//66 3//66
f 61//66 62//66 4//66
f 52//66 50//66 6//66
f 6//66 50//66 49//66
f 6//66 49//66 48//66
f 52//66 51//66 50//66
f 48//66 53//66 6//66
f 6//66 53//66 54//66
f 6//66 54//66 5//66
f 5//66 54//66 13//66
f 5//66 13//66 14//66
f 14//66 13//66 7//66
f 7//66 13//66 8//66
f 8//66 13//66 9//66
f 9//66 13//66 12//66
f 9//66 12//66 10//66
f 10//66 12//66 11//66
f 56//66 57//66 53//66
f 53//66 57//66 58//66
f 53//66 58//66 59//66
f 59//66 55//66 53//66
f 53//66 55//66 54//66
f 18//66 17//66 14//66
f 14//66 17//66 16//66
f 14//66 16//66 15//66
f 15//66 5//66 14//66
f 55//67 59//67 54//67
f 54//67 59//67 58//67
f 54//67 58//67 57//67
f 57//67 56//67 54//67
f 54//67 56//67 53//67
f 63//68 3//68 64//68
f 64//69 3//69 39//69
f 64//70 39//70 38//70
f 64//71 38//71 37//71
f 64//72 37//72 36//72
f 64//73 36//73 35//73
f 64//74 35//74 34//74
f 64//75 34//75 33//75
f 64//76 33//76 32//76
f 64//77 32//77 31//77
f 64//78 31//78 30//78
f 64//79 30//79 29//79
f 64//80 29//80 28//80
f 64//81 28//81 27//81
f 64//82 27//82 65//82
f 65//83 27//83 26//83
f 65//84 26//84 25//84
f 65//85 25//85 24//85
f 65//86 24//86 23//86
f 65//87 23//87 22//87
f 65//88 22//88 20//88
f 65//89 20//89 21//89
f 21//90 47//90 65//90
f 47//91 46//91 65//91
f 65//92 46//92 45//92
f 65//93 45//93 44//93
f 65//94 44//94 43//94
f 65//95 43//95 42//95
f 65//96 42//96 41//96
f 65//97 41//97 40//97
f 64//98 13//98 12//98
f 64//99 12//99 11//99
f 64//100 11//100 10//100
f 64//101 10//101 9//101
f 64//102 9//102 8//102
f 64//103 8//103 7//103
f 7//104 14//104 64//104
f 64//105 14//105 63//105
f 63//106 14//106 18//106
f 63//107 18//107 17//107
f 63//108 17//108 16//108
f 63//109 16//109 15//109
f 63//110 15//110 5//110
f 4//111 3//111 65//111
f 6//112 65//112 63//112
f 6//113 63//113 5//113
f 3//114 63//114 65//114
f 40//115 60//115 65//115
f 13//116 64//116 54//116
f 54//117 64//117 65//117
f 6//118 52//118 65//118
f 52//119 51//119 65//119
f 51//120 50//120 65//120
f 50//121 49//121 65//121
f 49//122 48//122 65//122
f 53//123 65//123 48//123
f 65//124 53//124 56//124
f 65//125 56//125 57//125
f 65//126 57//126 58//126
f 65//127 58//127 59//127
f 65//128 59//128 55//128
f 65//129 55//129 54//129
f 61//130 65//130 60//130
f 62//131 65//131 61//131
f 4//132 65//132 62//132
