# Blender v2.76 (sub 0) OBJ File: ''
# www.blender.org
mtllib left_little_limb0.mtl
o Left_Little_Limb0
v 0.168752 -4.807734 -0.049908
v -2.736000 0.626453 1.763122
v 3.910524 -0.299177 -2.527207
v 1.649317 3.931073 -1.115851
v 3.540598 0.366575 6.120105
v 4.950051 -0.109248 -3.202345
v 5.075792 0.015837 -3.285269
v 5.169850 0.175640 -3.348114
v 5.225814 0.359271 -3.386598
v 5.239871 0.554216 -3.398098
v 5.211062 0.747190 -3.381831
v 5.141351 0.925042 -3.338905
v 4.490300 -0.455700 -2.900517
v 3.997709 -0.416855 -2.582183
v 4.110977 -0.496927 -2.654506
v 4.239242 -0.531555 -2.737094
v 4.369947 -0.517349 -2.821864
v 3.982002 -2.370044 3.497173
v 2.008979 4.008266 2.576369
v -3.145465 2.480407 2.005286
v -2.929579 2.921264 1.860128
v -3.322226 2.015266 2.125421
v -3.458011 1.530719 2.219275
v -3.551397 1.031842 2.285864
v -3.601404 0.523866 2.324490
v -3.607508 0.012114 2.334747
v -3.569645 -0.498050 2.316529
v -3.488213 -1.001279 2.270027
v -3.364064 -1.492297 2.195727
v -3.198501 -1.965960 2.094409
v -2.993257 -2.417301 1.967135
v -2.750485 -2.841591 1.815238
v -2.472729 -3.234382 1.640311
v -2.162901 -3.591557 1.444187
v -1.824247 -3.909373 1.228921
v -1.460317 -4.184498 0.996771
v -1.074926 -4.414050 0.750169
v -0.672113 -4.595621 0.491700
v -0.256101 -4.727309 0.224072
v -1.871571 2.907372 1.175540
v -1.971611 3.051521 1.238510
v -2.098389 3.162163 1.319200
v -2.243743 3.232210 1.412412
v -2.399009 3.257530 1.512591
v -2.554533 3.236457 1.613508
v -2.700408 3.170405 1.708735
v -2.828208 3.063091 1.792771
v 1.776850 4.620600 -1.206891
v 1.678632 4.517542 -1.142052
v 1.612163 4.383163 -1.097376
v 1.583948 4.230618 -1.077235
v 1.596750 4.074839 -1.083601
v 2.236601 4.967052 -1.508719
v 3.106264 4.732266 -2.068685
v 3.000402 4.882876 -2.002025
v 2.865602 4.995979 -1.916175
v 2.711052 5.063868 -1.816984
v 2.547284 5.081916 -1.711213
v 2.385457 5.048894 -1.606069
v -1.476772 2.168785 0.929122
v -2.537735 1.369280 1.625647
v -2.311615 0.946255 1.484512
v -0.126370 -2.503445 -5.415743
v -2.517681 4.088603 -3.029357
v -3.569290 -0.978027 -5.464657
vn 0.413600 0.479300 -0.774100
vn 0.218700 -0.072800 -0.973100
vn -0.947200 -0.306600 -0.094100
vn -0.864500 -0.493600 0.094500
vn 0.744400 -0.651600 0.145800
vn 0.876900 -0.453200 0.160000
vn 0.952100 -0.254800 0.169000
vn 0.982800 -0.060600 0.174300
vn 0.975500 0.130700 0.176700
vn 0.930200 0.322000 0.176400
vn 0.651800 -0.746000 0.136600
vn 0.993000 0.065700 0.098600
vn -0.828300 -0.532700 -0.173300
vn -0.656000 -0.718100 -0.232400
vn -0.410900 -0.869700 -0.273400
vn -0.081000 -0.955100 -0.285000
vn 0.306700 -0.918300 -0.250400
vn -0.362200 0.446700 0.818100
vn -0.244700 0.621400 0.744300
vn -0.399900 0.368700 0.839100
vn -0.429700 0.286300 0.856400
vn -0.451300 0.200500 0.869500
vn -0.464400 0.112500 0.878500
vn -0.468800 0.023300 0.883000
vn -0.464400 -0.066000 0.883200
vn -0.451400 -0.154300 0.878900
vn -0.429900 -0.240400 0.870300
vn -0.400300 -0.323300 0.857400
vn -0.363000 -0.402100 0.840600
vn -0.318400 -0.475700 0.819900
vn -0.267400 -0.543400 0.795700
vn -0.210400 -0.604400 0.768300
vn -0.148400 -0.658100 0.738100
vn -0.082100 -0.703900 0.705500
vn -0.012400 -0.741500 0.670800
vn 0.059800 -0.770600 0.634600
vn -0.122900 -0.697000 0.706500
vn 0.068000 -0.849300 0.523600
vn 0.131500 -0.877300 0.461500
vn 0.169300 0.490800 -0.854700
vn 0.094500 0.655000 -0.749700
vn 0.013200 0.809100 -0.587500
vn -0.074300 0.933400 -0.351000
vn -0.158700 0.986600 -0.038600
vn -0.220900 0.926600 0.304300
vn -0.245900 0.762000 0.599100
vn -0.237200 0.549900 0.800900
vn -0.662800 0.731700 0.159100
vn -0.867600 0.476500 0.142300
vn -0.972500 0.196400 0.125100
vn -0.990200 -0.085900 0.110000
vn -0.927400 -0.361000 0.097900
vn -0.520900 0.837100 0.167400
vn 0.839800 0.470100 0.271600
vn 0.715100 0.641700 0.277400
vn 0.530000 0.801400 0.277200
vn 0.273600 0.924400 0.265800
vn -0.043700 0.970400 0.237500
vn -0.373300 0.907600 0.192200
vn 0.891400 0.417900 0.175500
vn 0.763700 0.585600 0.271700
vn 0.205800 0.406900 -0.890000
vn 0.520900 -0.837100 -0.167400
vn 0.011200 0.321800 -0.946700
vn 0.584500 -0.810400 -0.040000
vn -0.543300 -0.010300 -0.839500
vn -0.543300 -0.010400 -0.839500
vn 0.543300 0.010300 0.839500
vn -0.383100 -0.857900 -0.342300
vn -0.375600 -0.858900 -0.348200
vn -0.453800 -0.842300 -0.290900
vn -0.523400 -0.817100 -0.241700
vn -0.591100 -0.782500 -0.195400
vn -0.656100 -0.739100 -0.152600
vn -0.717400 -0.687300 -0.113900
vn -0.774300 -0.627800 -0.079900
vn -0.826000 -0.561400 -0.050800
vn -0.871800 -0.489100 -0.027200
vn -0.911200 -0.411800 -0.009100
vn -0.943800 -0.330600 0.003100
vn -0.969100 -0.246500 0.009400
vn -0.987000 -0.160600 0.009900
vn -0.997200 -0.074200 0.004500
vn -0.999900 0.011800 -0.006400
vn -0.995100 0.096200 -0.022700
vn -0.971700 0.229200 -0.057200
vn -0.980900 0.171300 -0.092300
vn -0.964200 0.261400 -0.045300
vn -0.935100 0.354500 -0.003400
vn -0.893500 0.448000 0.031700
vn -0.793400 0.603800 0.077300
vn -0.584800 0.800300 0.132500
vn -0.312800 0.934600 0.169100
vn -0.016200 0.983500 0.180400
vn 0.262700 0.950300 0.167000
vn 0.498800 0.856300 0.134300
vn 0.686100 0.722200 0.087700
vn 0.827300 0.560900 0.030400
vn 0.166000 0.292400 -0.941800
vn 0.208300 0.113000 -0.971500
vn 0.240000 -0.074400 -0.967900
vn 0.260400 -0.273400 -0.926000
vn 0.265800 -0.484300 -0.833600
vn 0.249600 -0.696700 -0.672500
vn 0.230200 -0.794700 -0.561600
vn 0.233100 0.499400 -0.834400
vn 0.428300 -0.902100 -0.051700
vn 0.265100 -0.930500 0.252900
vn 0.086000 -0.864100 0.495900
vn -0.090200 -0.734800 0.672300
vn -0.258200 -0.559300 0.787700
vn 0.878400 0.367600 0.305600
vn 0.946100 0.313300 0.082500
vn -0.339600 -0.456000 0.822600
vn -0.389300 -0.435100 0.811900
vn 0.881500 0.472100 -0.002800
vn 0.115300 0.369300 -0.922100
vn 0.131600 0.407100 -0.903800
vn -0.403200 -0.338200 0.850300
vn -0.426600 -0.071900 0.901600
vn -0.427000 0.195500 0.882900
vn -0.402600 0.461900 0.790300
vn -0.346800 0.713500 0.608800
vn -0.305300 0.822800 0.479300
vn -0.274300 0.900500 0.337500
vn -0.194600 0.980800 0.008600
vn -0.101900 0.942400 -0.318600
vn -0.016600 0.812900 -0.582200
vn 0.050300 0.641200 -0.765800
vn 0.098200 0.459700 -0.882700
vn 0.305300 -0.822800 -0.479300
vn 0.887600 0.396000 0.235200
vn 0.228600 -0.794100 -0.563200
usemtl None
s off
f 1//1 2//1 18//1
f 18//2 2//2 19//2
f 18//3 19//3 3//3
f 3//4 19//4 4//4
f 5//5 6//5 7//5
f 5//6 7//6 8//6
f 5//7 8//7 9//7
f 5//8 9//8 10//8
f 5//9 10//9 11//9
f 5//10 11//10 12//10
f 6//11 5//11 13//11
f 13//12 5//12 18//12
f 3//13 14//13 18//13
f 14//14 15//14 18//14
f 15//15 16//15 18//15
f 16//16 17//16 18//16
f 17//17 13//17 18//17
f 20//18 5//18 21//18
f 21//19 5//19 19//19
f 5//20 20//20 22//20
f 5//21 22//21 23//21
f 5//22 23//22 24//22
f 5//23 24//23 25//23
f 5//24 25//24 26//24
f 5//25 26//25 27//25
f 5//26 27//26 28//26
f 5//27 28//27 29//27
f 5//28 29//28 30//28
f 5//29 30//29 31//29
f 5//30 31//30 32//30
f 5//31 32//31 33//31
f 5//32 33//32 34//32
f 5//33 34//33 35//33
f 5//34 35//34 36//34
f 5//35 36//35 37//35
f 5//36 37//36 38//36
f 5//37 38//37 18//37
f 18//38 38//38 39//38
f 18//39 39//39 1//39
f 19//40 40//40 41//40
f 19//41 41//41 42//41
f 19//42 42//42 43//42
f 19//43 43//43 44//43
f 19//44 44//44 45//44
f 19//45 45//45 46//45
f 46//46 47//46 19//46
f 47//47 21//47 19//47
f 19//48 48//48 49//48
f 19//49 49//49 50//49
f 19//50 50//50 51//50
f 19//51 51//51 52//51
f 19//52 52//52 4//52
f 53//53 48//53 19//53
f 19//54 54//54 55//54
f 19//55 55//55 56//55
f 19//56 56//56 57//56
f 19//57 57//57 58//57
f 19//58 58//58 59//58
f 19//59 59//59 53//59
f 12//60 54//60 5//60
f 5//61 54//61 19//61
f 40//62 19//62 60//62
f 61//63 60//63 19//63
f 61//64 19//64 62//64
f 2//65 62//65 19//65
f 60//66 61//66 40//66
f 40//66 61//66 41//66
f 41//66 61//66 42//66
f 42//66 61//66 43//66
f 43//66 61//66 44//66
f 44//66 61//66 45//66
f 45//66 61//66 46//66
f 46//66 61//66 47//66
f 47//66 61//66 21//66
f 21//66 61//66 20//66
f 20//66 61//66 22//66
f 22//66 61//66 2//66
f 22//66 2//66 23//66
f 23//66 2//66 24//66
f 24//66 2//66 25//66
f 25//66 2//66 26//66
f 26//66 2//66 27//66
f 27//66 2//66 28//66
f 28//66 2//66 29//66
f 29//66 2//66 30//66
f 30//66 2//66 31//66
f 31//66 2//66 32//66
f 32//66 2//66 33//66
f 33//66 2//66 34//66
f 34//66 2//66 35//66
f 35//66 2//66 36//66
f 36//66 2//66 37//66
f 37//66 2//66 38//66
f 38//66 2//66 39//66
f 39//66 2//66 1//66
f 61//66 62//66 2//66
f 52//66 50//66 4//66
f 4//66 50//66 49//66
f 4//66 49//66 48//66
f 52//66 51//66 50//66
f 48//66 53//66 4//66
f 4//66 53//66 54//66
f 4//66 54//66 3//66
f 3//66 54//66 12//66
f 3//66 12//66 13//66
f 13//66 12//66 6//66
f 6//66 12//66 7//66
f 7//66 12//66 8//66
f 8//66 12//66 11//66
f 8//66 11//66 9//66
f 9//66 11//66 10//66
f 59//67 58//67 53//67
f 53//66 58//66 57//66
f 53//66 57//66 56//66
f 56//66 55//66 53//66
f 53//66 55//66 54//66
f 17//66 16//66 13//66
f 13//66 16//66 15//66
f 13//66 15//66 14//66
f 14//67 3//67 13//67
f 55//68 56//68 54//68
f 54//68 56//68 57//68
f 54//68 57//68 58//68
f 58//68 59//68 54//68
f 54//68 59//68 53//68
f 39//69 65//69 1//69
f 1//70 65//70 63//70
f 65//71 39//71 38//71
f 65//72 38//72 37//72
f 65//73 37//73 36//73
f 65//74 36//74 35//74
f 65//75 35//75 34//75
f 65//76 34//76 33//76
f 65//77 33//77 32//77
f 65//78 32//78 31//78
f 65//79 31//79 30//79
f 65//80 30//80 29//80
f 65//81 29//81 28//81
f 65//82 28//82 27//82
f 65//83 27//83 26//83
f 65//84 26//84 25//84
f 65//85 25//85 24//85
f 65//86 24//86 64//86
f 64//87 24//87 23//87
f 64//88 23//88 22//88
f 64//89 22//89 20//89
f 64//90 20//90 21//90
f 21//91 47//91 64//91
f 47//92 46//92 64//92
f 64//93 46//93 45//93
f 64//94 45//94 44//94
f 64//95 44//95 43//95
f 64//96 43//96 42//96
f 64//97 42//97 41//97
f 64//98 41//98 40//98
f 65//99 12//99 11//99
f 65//100 11//100 10//100
f 65//101 10//101 9//101
f 65//102 9//102 8//102
f 65//103 8//103 7//103
f 65//104 7//104 6//104
f 6//105 13//105 65//105
f 65//106 13//106 63//106
f 63//107 13//107 17//107
f 63//108 17//108 16//108
f 63//109 16//109 15//109
f 63//110 15//110 14//110
f 63//111 14//111 3//111
f 64//112 2//112 1//112
f 64//113 1//113 63//113
f 63//114 3//114 4//114
f 4//115 64//115 63//115
f 40//116 60//116 64//116
f 54//117 12//117 64//117
f 64//118 12//118 65//118
f 4//119 52//119 64//119
f 52//120 51//120 64//120
f 51//121 50//121 64//121
f 50//122 49//122 64//122
f 49//123 48//123 64//123
f 53//124 64//124 48//124
f 64//125 53//125 59//125
f 64//126 59//126 58//126
f 64//127 58//127 57//127
f 64//128 57//128 56//128
f 64//129 56//129 55//129
f 64//130 55//130 54//130
f 61//131 64//131 60//131
f 62//132 64//132 61//132
f 2//133 64//133 62//133
