# Blender v2.76 (sub 0) OBJ File: ''
# www.blender.org
mtllib left_thumb_limb1.mtl
o Left_Thumb_Limb1
v 20.021446 -10.449799 2.518037
v 22.814352 -17.628578 4.886654
v 23.177761 -16.847075 8.443685
v 19.992250 -14.037800 5.822406
v 18.920555 -22.939028 1.625381
v 16.641813 -22.786812 4.220973
v 13.849833 -18.296072 3.541371
v 16.989616 -20.118893 -2.648022
v 15.483347 -15.831829 0.378231
v 17.745049 -20.235577 8.516674
v 22.848175 -22.229725 -0.834344
v 18.334330 -26.888323 5.231032
v 13.896528 -13.918680 0.380902
v 17.752937 -12.750747 2.567242
v 26.970619 -17.822533 3.441477
v 18.136177 -17.187624 11.736164
v 15.099517 -10.156229 2.359467
v 15.085911 -12.014889 0.289680
v 10.969839 -19.350531 6.201928
v 15.815108 -18.304174 7.778479
v 15.603594 -18.334406 8.713092
v 4.716183 -2.824445 7.081951
v 4.871686 -2.715967 6.905747
v 4.362915 -3.178692 7.071762
v 4.529959 -2.993814 7.142716
v 0.239082 -8.303556 3.185038
v 7.919043 -1.094130 1.534003
v 7.990800 -1.151650 1.043108
v 7.887916 -1.302186 0.859794
v 8.002190 -1.075518 1.289814
v 3.762791 -6.428658 -3.028148
v 3.254910 -6.890449 -2.861955
v 3.410228 -6.782147 -3.038122
v 3.596071 -6.613169 -3.098936
v 0.207554 -8.512286 2.509789
v 0.135976 -8.454406 3.001376
v 0.124436 -8.530807 2.754217
v -8.269791 3.971003 1.883032
v -11.469236 15.777755 4.038788
v -7.910824 6.243937 2.572279
v -8.894705 4.379624 -2.315498
v -4.785654 8.923852 0.682263
v -3.686667 10.870464 -3.768248
v -2.064582 10.262724 -1.021299
v -2.812692 8.879375 0.863088
v -6.734509 18.624819 -3.185502
v -13.758882 13.863470 0.712977
v -15.403913 12.034168 -1.505939
v -16.633093 12.023629 1.623840
v -13.720701 8.537954 1.228570
v -15.430562 7.967355 -6.452025
v -11.560956 18.438374 -8.215658
v -13.924256 5.441388 -3.212956
v -13.166365 13.243422 -5.046521
v -12.684235 16.904240 -11.094601
v -18.351454 18.764669 -4.711645
v -4.757452 6.046253 -3.370374
v -5.791996 6.580082 -4.771702
v -5.536255 7.872782 -2.233788
v -8.897249 5.793885 -7.598621
v -14.364155 6.008242 -4.895259
v -7.978993 2.395434 -4.207665
v -7.493483 14.232811 0.947650
vn 0.740300 0.452200 0.497500
vn -0.936400 -0.310300 0.163800
vn -0.525900 0.840400 -0.130900
vn 0.279500 -0.466200 -0.839300
vn -0.697700 -0.701100 -0.147400
vn 0.804900 0.538200 0.249800
vn 0.786700 0.420700 -0.451900
vn -0.394200 0.831100 -0.392300
vn -0.398700 0.826000 -0.398500
vn 0.495800 0.191900 0.847000
vn 0.545700 0.500800 0.671900
vn -0.507800 -0.397700 -0.764100
vn -0.451500 0.637200 0.624500
vn -0.691300 -0.428500 -0.581800
vn -0.570300 -0.755500 -0.322300
vn 0.053600 -0.074200 -0.995800
vn 0.065800 0.742200 -0.666900
vn 0.473900 -0.335100 -0.814300
vn 0.314100 -0.948700 -0.036000
vn -0.245500 0.962500 0.115700
vn 0.727300 0.598300 -0.336200
vn -0.627500 -0.730300 -0.270200
vn -0.854000 0.319300 0.410800
vn -0.206400 0.978400 -0.015100
vn -0.360400 0.931400 -0.051400
vn -0.824100 -0.143300 -0.548100
vn 0.523300 -0.605700 -0.599500
vn 0.574200 -0.492500 -0.654000
vn -0.480900 -0.876700 -0.015800
vn -0.328900 -0.012400 -0.944300
vn -0.031800 -0.998600 0.042600
vn 0.648000 -0.590800 0.480600
vn 0.284300 0.806300 0.518700
vn 0.327800 -0.849100 0.414200
vn 0.653700 0.662100 0.366600
vn 0.773100 0.426300 0.469700
vn 0.388100 0.591600 0.706700
vn -0.354900 -0.037900 0.934100
vn 0.016200 0.321900 0.946700
vn 0.848900 -0.171700 0.499900
vn -0.075900 -0.762700 -0.642300
vn 0.426900 0.616800 -0.661300
vn -0.508000 -0.222400 0.832200
vn -0.527000 -0.294100 0.797400
vn -0.341200 -0.440400 0.830400
vn -0.480700 -0.606900 0.632900
vn -0.339900 -0.467200 0.816200
vn 0.640000 0.555500 0.530800
vn 0.645800 0.696400 0.313100
vn 0.028800 0.804200 0.593700
vn 0.624400 0.394400 -0.674300
vn 0.735100 0.609500 0.296800
vn 0.781400 0.585200 -0.216700
vn 0.050000 0.458400 -0.887300
vn 0.543500 -0.521700 0.657600
vn 0.388600 0.328500 -0.860900
vn -0.613800 -0.585400 0.529700
vn -0.656600 -0.050900 0.752500
vn 0.033900 0.026700 0.999100
vn 0.574100 0.475300 0.666700
vn 0.860400 -0.304400 -0.408800
vn -0.003400 -0.577500 0.816400
vn 0.481400 0.249800 -0.840100
vn 0.485600 0.280200 -0.828000
vn -0.261800 -0.702000 -0.662400
vn 0.042900 -0.379700 -0.924100
vn 0.348100 0.044700 -0.936400
vn -0.387100 -0.798700 -0.460700
vn -0.347000 -0.592300 -0.727200
vn -0.611000 -0.408200 0.678300
vn -0.722900 -0.649900 0.234600
vn -0.635400 -0.723200 -0.270800
vn -0.693500 0.696800 -0.183000
vn 0.693500 -0.696800 0.183000
vn -0.484400 -0.246800 0.839300
vn -0.532500 -0.319300 0.783900
vn -0.462900 -0.189500 0.865900
vn -0.669200 -0.397300 0.627900
vn -0.597400 -0.644700 0.476900
vn 0.643600 0.765100 -0.021300
vn -0.297100 -0.096100 0.950000
vn 0.458400 0.517100 0.722900
vn 0.095700 0.241300 0.965700
vn 0.744800 0.524000 0.413100
vn -0.235000 0.910500 0.340200
vn 0.506100 0.587100 0.631900
vn 0.565900 0.643600 0.515300
vn 0.656700 0.641700 0.396200
vn 0.090000 0.507400 -0.857000
vn 0.687200 0.668200 0.284900
vn 0.607300 0.412100 -0.679300
vn 0.750800 0.620500 -0.226200
vn -0.609500 0.779100 -0.146600
vn 0.740600 0.597300 0.307700
vn -0.469700 -0.477900 0.742300
vn -0.781800 -0.513800 0.353300
vn -0.101900 -0.309000 -0.945600
vn 0.350800 0.389700 -0.851500
vn 0.749200 0.592400 0.296200
vn -0.584000 0.809300 -0.063800
vn -0.557300 0.825300 -0.091400
vn 0.371000 -0.806500 0.460300
vn -0.849600 0.409700 -0.332300
vn -0.617300 0.539900 0.572300
vn -0.817100 0.447500 -0.363500
vn 0.440800 0.364200 0.820400
vn -0.673700 -0.607200 -0.421200
vn 0.448000 0.282700 -0.848100
vn 0.243900 -0.133400 -0.960600
vn 0.587400 0.332600 -0.737800
vn 0.771100 0.516400 -0.372500
vn 0.745100 0.590900 -0.309300
vn -0.338800 0.930200 0.141000
vn -0.723900 0.560100 -0.402800
vn 0.678600 -0.729200 0.088200
vn 0.714300 -0.689600 0.119200
vn 0.690500 -0.670300 0.271800
vn 0.873700 -0.463400 0.148000
vn -0.731700 0.106900 -0.673200
vn -0.846100 0.272500 -0.458000
vn 0.363700 0.028600 -0.931100
vn -0.366700 -0.612800 -0.700000
vn 0.001200 -0.339800 -0.940500
vn -0.341800 -0.691600 -0.636300
vn -0.904400 -0.415700 0.096400
vn -0.514600 -0.695300 -0.501800
vn -0.448000 -0.687900 -0.571100
vn -0.155900 -0.954200 -0.255400
vn -0.934500 -0.343900 -0.091600
vn -0.494500 -0.677200 -0.544800
vn 0.835200 0.293300 0.465100
vn 0.649700 0.458400 0.606400
vn -0.620300 -0.737600 -0.266800
vn -0.652800 -0.363200 0.664800
vn -0.733700 -0.638800 0.231700
vn -0.936600 -0.265800 0.228300
vn -0.313100 -0.257500 0.914200
vn -0.955300 0.220900 0.196300
vn -0.492800 -0.601400 0.628900
vn -0.609700 0.734800 0.297400
vn 0.518200 -0.838400 0.168800
vn 0.071200 0.813500 -0.577200
vn -0.033200 0.251100 -0.967400
vn -0.024000 0.576600 0.816700
vn 0.711000 -0.284900 0.642900
vn -0.644600 0.422800 0.637000
vn -0.353300 0.592100 -0.724300
vn -0.071900 0.234800 0.969400
vn 0.054300 -0.992200 0.112400
vn 0.009100 0.422300 -0.906400
vn 0.337800 -0.593000 0.730900
vn -0.273000 -0.873700 0.402600
vn -0.648600 -0.113900 -0.752600
vn 0.440900 -0.054300 0.895900
vn 0.857700 -0.131600 0.497100
vn 0.952800 0.256000 -0.162900
vn 0.612300 0.324100 -0.721100
vn -0.885700 -0.165400 0.433700
vn 0.267000 0.390700 -0.881000
vn -0.346800 -0.716500 -0.605300
vn 0.736300 0.418300 0.531800
vn -0.201100 -0.090000 -0.975400
vn -0.275400 0.257800 0.926100
vn 0.686600 -0.171700 -0.706500
vn -0.922700 0.357900 0.143100
vn 0.185900 0.146100 -0.971600
vn 0.751100 -0.471100 -0.462500
vn 0.548600 0.629900 -0.549700
usemtl None
s off
f 1//1 4//1 2//1
f 1//2 2//2 3//2
f 3//3 2//3 10//3
f 3//4 10//4 4//4
f 7//5 8//5 5//5
f 7//6 6//6 8//6
f 7//7 10//7 6//7
f 6//8 10//8 11//8
f 6//9 11//9 5//9
f 5//10 11//10 7//10
f 7//11 11//11 9//11
f 19//12 6//12 12//12
f 5//13 8//13 12//13
f 5//14 12//14 6//14
f 19//15 8//15 6//15
f 14//16 1//16 15//16
f 17//17 1//17 18//17
f 18//18 1//18 13//18
f 16//19 19//19 7//19
f 7//20 19//20 20//20
f 7//21 20//21 10//21
f 10//22 20//22 13//22
f 13//23 20//23 16//23
f 20//24 19//24 21//24
f 20//25 21//25 16//25
f 8//26 19//26 13//26
f 14//27 4//27 13//27
f 13//28 4//28 10//28
f 4//29 14//29 15//29
f 4//30 15//30 2//30
f 2//31 15//31 16//31
f 2//32 16//32 10//32
f 4//33 16//33 3//33
f 3//34 16//34 15//34
f 3//35 15//35 1//35
f 4//36 1//36 16//36
f 22//37 16//37 23//37
f 24//38 16//38 25//38
f 25//39 16//39 22//39
f 10//40 12//40 11//40
f 11//41 12//41 8//41
f 11//42 8//42 9//42
f 24//43 26//43 16//43
f 16//44 26//44 19//44
f 10//45 19//45 12//45
f 10//46 16//46 21//46
f 21//47 19//47 10//47
f 27//48 23//48 17//48
f 17//49 23//49 16//49
f 17//50 16//50 1//50
f 28//51 17//51 29//51
f 27//52 17//52 30//52
f 30//53 17//53 28//53
f 13//54 1//54 8//54
f 8//55 1//55 14//55
f 17//56 14//56 13//56
f 14//57 17//57 18//57
f 14//58 18//58 9//58
f 9//59 18//59 13//59
f 9//60 13//60 7//60
f 13//61 16//61 7//61
f 8//62 14//62 9//62
f 29//63 17//63 31//63
f 31//64 17//64 13//64
f 13//65 32//65 33//65
f 13//66 33//66 34//66
f 13//67 34//67 31//67
f 32//68 13//68 35//68
f 35//69 13//69 19//69
f 19//70 26//70 36//70
f 19//71 36//71 37//71
f 19//72 37//72 35//72
f 31//73 27//73 29//73
f 29//73 27//73 30//73
f 29//73 30//73 28//73
f 34//73 33//73 31//73
f 31//73 33//73 32//73
f 31//73 32//73 27//73
f 27//73 32//73 23//73
f 23//73 32//73 35//73
f 23//73 35//73 24//73
f 24//73 35//73 26//73
f 26//73 35//73 37//73
f 26//73 37//73 36//73
f 25//73 22//73 24//73
f 24//73 22//73 23//73
f 29//74 32//74 31//74
f 29//74 27//74 32//74
f 32//74 27//74 35//74
f 35//74 27//74 23//74
f 35//74 23//74 26//74
f 26//74 23//74 24//74
f 24//75 38//75 26//75
f 39//76 40//76 24//76
f 24//77 40//77 38//77
f 26//78 38//78 53//78
f 53//79 38//79 50//79
f 50//80 38//80 41//80
f 25//81 39//81 24//81
f 23//82 39//82 22//82
f 22//83 39//83 25//83
f 42//84 43//84 39//84
f 43//85 42//85 44//85
f 27//86 44//86 45//86
f 27//87 45//87 23//87
f 23//88 45//88 39//88
f 39//89 45//89 42//89
f 30//90 44//90 27//90
f 29//91 44//91 28//91
f 28//92 44//92 30//92
f 46//93 54//93 47//93
f 41//94 48//94 50//94
f 48//95 41//95 47//95
f 41//96 40//96 47//96
f 40//97 49//97 47//97
f 49//98 40//98 50//98
f 49//99 50//99 48//99
f 47//100 39//100 46//100
f 39//101 47//101 49//101
f 39//102 49//102 51//102
f 51//103 49//103 48//103
f 54//104 46//104 52//104
f 48//105 54//105 51//105
f 52//106 56//106 54//106
f 56//107 55//107 54//107
f 31//108 57//108 29//108
f 29//109 57//109 43//109
f 60//110 58//110 31//110
f 31//111 58//111 57//111
f 29//112 43//112 44//112
f 41//113 38//113 57//113
f 57//114 40//114 42//114
f 42//115 40//115 59//115
f 59//116 40//116 41//116
f 59//117 41//117 58//117
f 59//118 58//118 43//118
f 59//119 43//119 57//119
f 57//120 38//120 40//120
f 34//121 60//121 31//121
f 32//122 60//122 33//122
f 33//123 60//123 34//123
f 60//124 61//124 51//124
f 51//125 61//125 53//125
f 35//126 62//126 32//126
f 35//127 53//127 62//127
f 41//128 53//128 60//128
f 41//129 60//129 62//129
f 62//130 60//130 32//130
f 63//131 43//131 46//131
f 63//132 46//132 39//132
f 37//133 53//133 35//133
f 26//134 53//134 36//134
f 36//135 53//135 37//135
f 53//136 50//136 51//136
f 40//137 39//137 50//137
f 39//138 51//138 50//138
f 57//139 45//139 59//139
f 59//140 45//140 44//140
f 59//141 44//141 42//141
f 42//142 45//142 57//142
f 57//143 62//143 53//143
f 57//144 53//144 41//144
f 58//145 41//145 62//145
f 58//146 62//146 57//146
f 53//147 39//147 43//147
f 53//148 43//148 54//148
f 54//149 63//149 47//149
f 47//150 63//150 53//150
f 53//151 63//151 39//151
f 54//152 43//152 63//152
f 54//153 60//153 53//153
f 61//154 60//154 54//154
f 61//155 54//155 48//155
f 61//156 48//156 53//156
f 47//157 53//157 48//157
f 55//158 60//158 52//158
f 60//159 56//159 43//159
f 43//160 56//160 52//160
f 60//161 55//161 56//161
f 51//162 52//162 60//162
f 51//163 43//163 52//163
f 58//164 60//164 43//164
f 51//165 54//165 55//165
f 43//166 51//166 46//166
f 46//167 51//167 55//167
f 46//168 55//168 52//168
