# Blender v2.76 (sub 0) OBJ File: ''
# www.blender.org
mtllib Left Index Limb0.mtl
o Left_Index_Limb0
v -0.005416 0.014562 0.022342
v -0.009661 0.024443 0.021364
v -0.019009 0.018844 0.020260
v -0.013602 0.002047 0.021333
v -0.026056 0.005212 0.018943
v -0.008849 -0.008559 0.023300
v -0.021689 -0.013165 0.020611
v -0.009371 -0.022249 0.023995
v 0.011657 -0.019358 0.028592
v 0.007126 -0.008752 0.026836
v 0.013456 -0.019600 0.019597
v 0.009454 -0.010040 0.018609
v -0.000930 -0.024023 0.000830
v -0.015643 0.004190 -0.003521
v 0.000441 -0.024284 0.011962
v -0.009731 0.010206 0.011337
v -0.003224 0.014192 0.013112
v 0.020432 -0.004842 0.013729
v 0.007342 0.020244 0.009881
v 0.022594 -0.003019 0.004964
v 0.011141 0.018943 0.001576
v 0.027824 -0.000736 0.015552
v 0.028707 -0.002479 0.006248
v 0.029487 -0.001905 0.006390
v 0.030097 -0.001145 0.006488
v 0.030495 -0.000252 0.006535
v 0.030654 0.000714 0.006528
v 0.030564 0.001686 0.006467
v 0.030229 0.002600 0.006356
v 0.012658 -0.004801 0.026518
v 0.025899 -0.004026 0.005713
v 0.023054 -0.003640 0.005088
v 0.023680 -0.004083 0.005241
v 0.024411 -0.004306 0.005407
v 0.025176 -0.004286 0.005570
v 0.002283 0.015458 0.023777
v 0.001130 -0.009544 0.023463
v -0.006400 -0.004393 0.036692
v -0.002148 0.008781 0.036898
v -0.010901 0.004415 0.035231
v 0.002583 -0.000092 0.038148
v 0.006686 0.001217 0.025162
v 0.001392 0.008836 0.023428
v -0.007613 0.006580 0.022232
v -0.005319 -0.005587 0.022900
v -0.008507 0.022225 0.003685
v -0.005569 0.013288 0.003111
v -0.017284 0.013588 -0.004273
v -0.015855 0.015700 -0.004058
v -0.018496 0.011339 -0.004436
v -0.019477 0.008978 -0.004545
v -0.020218 0.006528 -0.004599
v -0.020710 0.004017 -0.004597
v -0.020948 0.001469 -0.004539
v -0.020931 -0.001088 -0.004426
v -0.020658 -0.003627 -0.004260
v -0.020132 -0.006122 -0.004041
v -0.019359 -0.008547 -0.003772
v -0.018346 -0.010877 -0.003456
v -0.017104 -0.013086 -0.003096
v -0.015647 -0.015151 -0.002696
v -0.013989 -0.017052 -0.002260
v -0.012149 -0.018768 -0.001793
v -0.010144 -0.020281 -0.001300
v -0.007997 -0.021576 -0.000786
v -0.005729 -0.022638 -0.000255
v -0.003365 -0.023457 0.000285
v -0.012532 0.018555 0.000141
v -0.009716 0.015218 -0.002725
v -0.010240 0.015975 -0.002869
v -0.010932 0.016576 -0.003043
v -0.011748 0.016982 -0.003235
v -0.012640 0.017169 -0.003433
v -0.013552 0.017124 -0.003626
v -0.014425 0.016852 -0.003801
v -0.015210 0.016367 -0.003949
v 0.012156 0.022329 0.001649
v 0.011544 0.021854 0.001538
v 0.011105 0.021210 0.001472
v 0.010880 0.020461 0.001456
v 0.010893 0.019680 0.001492
v 0.014964 0.023876 0.002183
v 0.014002 0.024330 0.013084
v 0.019921 0.022366 0.003308
v 0.019366 0.023158 0.003155
v 0.015861 0.024226 0.002360
v 0.016814 0.024327 0.002560
v 0.017758 0.024173 0.002768
v 0.018628 0.023774 0.002971
v -0.007716 0.011383 -0.002133
v -0.014196 0.007814 -0.003366
v -0.014640 0.006755 0.003297
v -0.013051 0.005617 -0.003028
v 0.005813 -0.025228 -0.009016
v -0.003642 -0.022419 -0.024648
v -0.014098 -0.009924 -0.027845
v -0.014502 0.009170 -0.028349
v -0.011547 0.018104 -0.006408
v -0.000231 0.022904 -0.025536
v -0.005704 0.021480 -0.008710
v 0.012074 -0.025146 -0.021133
v 0.019940 -0.020894 -0.010720
v 0.031851 -0.000939 -0.002893
v 0.022921 -0.007717 -0.018385
v 0.017002 -0.010665 -0.021032
v 0.024410 -0.005104 -0.000607
v 0.017280 -0.010198 -0.012115
v -0.009205 0.005618 -0.015522
v 0.011270 0.019892 -0.005837
v -0.003735 0.012819 -0.006150
v 0.003579 0.013483 -0.015571
v 0.004932 0.012486 -0.024832
v 0.001635 -0.005097 -0.023074
v 0.012456 -0.008316 -0.020470
v 0.012650 0.006743 -0.021471
v 0.001865 0.004350 -0.023374
v 0.015772 -0.001270 -0.020210
v 0.004471 -0.000730 -0.037364
v 0.013696 0.005642 -0.035302
v 0.015940 -0.006343 -0.034376
v 0.010075 0.014255 -0.022377
v 0.001872 -0.011025 -0.023694
v -0.003582 0.002345 -0.024760
v 0.018917 0.023354 -0.007151
v 0.022394 -0.020223 -0.018814
v -0.008806 0.007846 -0.012085
vn -0.139600 0.037900 0.989500
vn -0.146400 0.016000 0.989100
vn -0.187900 0.002200 0.982200
vn -0.160300 0.110000 0.980900
vn -0.217500 0.036800 0.975400
vn -0.224500 0.058000 0.972800
vn -0.220800 0.057900 0.973600
vn -0.214800 0.069500 0.974200
vn 0.902600 0.395500 0.169900
vn 0.891600 0.412000 0.187800
vn 0.888500 0.448100 -0.098900
vn 0.894000 0.359900 -0.266900
vn 0.787100 0.221700 -0.575600
vn 0.469000 0.122500 -0.874700
vn 0.433600 0.088900 -0.896700
vn 0.297100 -0.060700 -0.952900
vn -0.825100 -0.477000 -0.302700
vn -0.274000 -0.283900 -0.918900
vn -0.128600 -0.282900 -0.950500
vn 0.556000 -0.805800 0.203700
vn 0.747600 -0.628100 0.215900
vn 0.882100 -0.405700 0.239500
vn 0.949600 -0.154300 0.273000
vn 0.943600 0.107600 0.313200
vn 0.862900 0.358800 0.355900
vn 0.530200 -0.704200 0.472200
vn 0.441900 -0.873200 0.205500
vn 0.435300 -0.876000 0.207800
vn 0.463100 -0.880100 0.104300
vn 0.470400 -0.841800 0.264800
vn -0.734200 -0.605600 -0.307000
vn -0.512000 -0.815800 -0.268800
vn -0.248900 -0.951600 -0.180300
vn 0.035800 -0.998200 -0.047200
vn 0.315000 -0.941600 0.119000
vn 0.096800 0.916900 -0.387200
vn -0.433700 0.656800 0.616800
vn -0.212400 0.053300 0.975700
vn -0.179700 0.042600 0.982800
vn -0.184100 0.038600 0.982100
vn -0.320100 -0.006800 0.947400
vn -0.180100 -0.027500 0.983300
vn -0.137600 0.024300 0.990200
vn -0.173700 0.034300 0.984200
vn -0.165300 0.022900 0.986000
vn -0.030600 0.169000 0.985100
vn -0.002700 0.136600 0.990600
vn -0.246100 -0.025900 0.968900
vn -0.888000 -0.458800 -0.029900
vn 0.414500 -0.903300 0.110700
vn 0.482900 -0.873300 0.064500
vn 0.820900 0.481000 0.307900
vn 0.780500 0.589600 0.207500
vn -0.235400 0.970200 -0.057900
vn -0.451300 0.891700 0.034300
vn -0.943200 -0.192700 -0.270700
vn -0.138100 -0.084500 0.986800
vn 0.916600 0.317000 -0.243500
vn 0.842200 0.539000 -0.012600
vn 0.893800 0.403400 0.196100
vn -0.806600 0.563800 -0.177500
vn -0.505200 0.845100 -0.174800
vn -0.563000 0.803700 -0.192800
vn -0.496600 0.856600 -0.139900
vn -0.870300 0.465500 -0.160900
vn -0.865100 0.477200 -0.154700
vn -0.903200 0.384100 -0.191400
vn -0.933400 0.286900 -0.215400
vn -0.955800 0.187100 -0.226600
vn -0.970600 0.085900 -0.224800
vn -0.977600 -0.015900 -0.210100
vn -0.976200 -0.117000 -0.182500
vn -0.965900 -0.216100 -0.142400
vn -0.962000 -0.240300 -0.129400
vn -0.937100 -0.315500 -0.149300
vn -0.896400 -0.412000 -0.163700
vn -0.847900 -0.503500 -0.165700
vn -0.792800 -0.589300 -0.155300
vn -0.731700 -0.668500 -0.132700
vn -0.665200 -0.740200 -0.098100
vn -0.593500 -0.803200 -0.051900
vn -0.584900 -0.809900 -0.045100
vn -0.506500 -0.860700 -0.051500
vn -0.414500 -0.908800 -0.047700
vn -0.320400 -0.946700 -0.032900
vn -0.225100 -0.974300 -0.007400
vn -0.201000 -0.979600 0.001800
vn 0.082700 -0.969300 0.231400
vn 0.293300 -0.952300 0.084300
vn 0.806200 0.579900 0.117100
vn 0.667700 0.734500 -0.120900
vn 0.479100 0.832900 -0.276900
vn 0.266900 0.895800 -0.355500
vn 0.031500 0.931500 -0.362300
vn -0.231100 0.928700 -0.290100
vn -0.503900 0.854400 -0.127000
vn -0.723400 0.681700 0.109100
vn -0.590800 0.793800 -0.144400
vn -0.778000 0.560500 -0.283700
vn -0.889100 0.274300 -0.366300
vn -0.921200 -0.032600 -0.387700
vn -0.875600 -0.334900 -0.348100
vn -0.469600 0.879400 -0.078100
vn -0.496500 0.865100 -0.071200
vn -0.484800 0.868800 -0.100200
vn -0.526900 0.835000 -0.158700
vn 0.741300 0.583500 0.331700
vn -0.350300 0.934000 -0.069800
vn -0.100100 0.994600 -0.027000
vn 0.152100 0.987500 0.040400
vn 0.388200 0.912700 0.127400
vn 0.590100 0.774600 0.227400
vn -0.190800 0.848000 0.494400
vn 0.792600 0.472700 0.385000
vn 0.793700 0.475100 0.380000
vn 0.478000 0.343200 0.808600
vn 0.483200 0.355700 0.800000
vn 0.837100 0.477700 0.266600
vn 0.650200 0.588900 -0.480100
vn 0.520900 0.224100 -0.823700
vn 0.495000 -0.862600 -0.104100
vn 0.584300 -0.809700 0.054800
vn 0.584300 -0.811500 -0.008400
vn 0.531200 -0.845900 -0.048100
vn 0.870200 0.474400 0.133300
vn 0.426700 -0.865400 0.262900
vn 0.208900 -0.041700 -0.977000
vn -0.208900 0.041700 0.977000
vn -0.227900 -0.973000 -0.037000
vn -0.218400 -0.975100 -0.038200
vn -0.319700 -0.946800 -0.035900
vn -0.415400 -0.908600 -0.043700
vn -0.504400 -0.861300 -0.061600
vn -0.586000 -0.805400 -0.089400
vn -0.659000 -0.741400 -0.126800
vn -0.722200 -0.669600 -0.173300
vn -0.730700 -0.658000 -0.181800
vn -0.789200 -0.589800 -0.171200
vn -0.847600 -0.503600 -0.167300
vn -0.894700 -0.412400 -0.171900
vn -0.930100 -0.317200 -0.185100
vn -0.953500 -0.219200 -0.206700
vn -0.964300 -0.119200 -0.236400
vn -0.962300 -0.027500 -0.270400
vn -0.963600 -0.018300 -0.266800
vn -0.968300 0.085400 -0.234600
vn -0.959500 0.187900 -0.210000
vn -0.937900 0.287800 -0.193700
vn -0.904300 0.384300 -0.185900
vn -0.859200 0.476400 -0.186700
vn -0.802800 0.563100 -0.196100
vn -0.570300 0.784700 -0.242700
vn -0.657000 0.725000 -0.206800
vn -0.527000 0.844000 -0.100000
vn -0.151800 -0.984700 -0.085100
vn 0.306600 -0.939600 0.152100
vn -0.608500 0.660600 -0.439700
vn -0.500600 0.853800 -0.142600
vn -0.315000 0.943200 0.105300
vn -0.102500 0.959100 0.264100
vn 0.120300 0.933500 0.337900
vn 0.356300 0.873600 0.331600
vn 0.602400 0.762500 0.236200
vn 0.817800 0.573800 0.043100
vn 0.937400 0.346800 0.031700
vn 0.989200 0.099000 0.108300
vn 0.975400 -0.159500 0.151900
vn 0.898700 -0.408800 0.159000
vn 0.765100 -0.630900 0.129100
vn 0.583900 -0.809200 0.064400
vn 0.479900 -0.877200 0.017200
vn 0.495600 -0.868000 0.031400
vn 0.506300 -0.858300 0.083700
vn 0.481200 -0.872200 0.087900
vn 0.433400 -0.900600 0.033700
vn 0.322200 -0.942900 0.085000
vn -0.002400 -0.991300 0.131600
vn -0.314800 -0.940900 0.125000
vn -0.587400 -0.806500 0.067500
vn -0.799500 -0.599600 -0.036200
vn 0.755800 0.465200 0.460800
vn -0.062900 0.108400 0.992100
vn -0.690500 -0.218700 0.689500
vn -0.875900 -0.476400 -0.076200
vn -0.874500 -0.472700 -0.108200
vn 0.755900 0.465200 0.460700
vn 0.047300 0.228200 0.972500
vn -0.059100 0.114600 0.991600
vn -0.728000 -0.333800 0.598800
vn 0.888700 0.449700 -0.089400
vn 0.415000 0.644800 0.641900
vn 0.183500 0.316800 0.930600
vn 0.730800 0.340900 0.591300
vn 0.738900 0.607400 0.291700
vn 0.890800 0.447000 0.082000
vn -0.981700 0.017800 -0.189400
vn -0.467700 0.799300 -0.377400
vn -0.200000 0.975400 -0.092700
vn 0.980400 0.188100 0.059200
vn 0.931700 0.345300 -0.112600
vn 0.890400 -0.425100 0.162800
vn -0.236400 -0.952000 -0.194300
vn -0.341900 -0.877600 -0.336100
vn 0.244400 -0.033200 -0.969100
vn 0.171400 -0.087600 -0.981300
vn 0.198200 -0.057100 -0.978500
vn 0.263500 0.110700 -0.958300
vn 0.445000 0.110700 -0.888600
vn 0.259200 -0.037000 -0.965100
vn 0.295200 -0.149600 -0.943700
vn 0.185400 -0.054800 -0.981100
vn 0.238000 -0.030400 -0.970800
vn 0.887800 0.459800 -0.020300
vn 0.884900 0.463900 -0.041200
vn 0.761300 0.305000 -0.572200
vn 0.727200 0.314300 -0.610200
vn 0.505000 -0.429300 -0.748800
vn 0.140900 0.480000 -0.865900
vn 0.144000 0.485300 -0.862400
vn 0.420400 -0.905800 0.052300
vn 0.874900 0.481400 -0.052500
vn 0.915900 0.266800 0.299900
vn -0.944100 -0.324600 -0.058000
vn -0.998500 -0.018300 -0.051900
vn -0.954900 0.287700 -0.073500
vn -0.813900 0.568200 -0.120900
vn -0.581100 0.791600 -0.189000
vn -0.434900 0.869900 -0.232800
vn -0.434000 0.870500 -0.232100
vn -0.432300 0.879600 -0.198700
vn -0.500100 0.850200 -0.164600
vn -0.324000 0.927000 -0.189100
vn -0.080800 0.989900 -0.116700
vn 0.173700 0.982900 -0.060900
vn 0.421100 0.906600 -0.025600
vn 0.642900 0.765900 -0.013500
vn 0.820900 0.570600 -0.024900
vn -0.071000 0.873900 -0.481000
vn 0.427200 -0.865700 0.260900
vn 0.528700 -0.816400 0.232200
vn 0.464000 -0.833000 0.301400
vn 0.752500 0.464400 0.466900
vn 0.457000 -0.878300 0.140700
vn 0.810600 -0.529700 0.249500
vn 0.471600 -0.763800 0.440600
vn 0.254700 -0.080000 -0.963700
vn 0.174200 -0.052400 -0.983300
vn 0.214600 -0.022000 -0.976500
vn 0.248900 -0.039400 -0.967700
vn 0.253200 0.026200 -0.967100
vn 0.301600 -0.018800 -0.953300
vn 0.204700 -0.178600 -0.962400
vn 0.174800 0.020100 -0.984400
usemtl None
s off
f 1//1 2//1 3//1
f 1//2 3//2 4//2
f 4//3 3//3 5//3
f 4//4 5//4 6//4
f 6//5 5//5 7//5
f 6//6 7//6 8//6
f 6//7 8//7 9//7
f 6//8 9//8 10//8
f 11//9 12//9 9//9
f 9//10 12//10 10//10
f 13//11 14//11 15//11
f 15//12 14//12 92//12
f 15//13 92//13 16//13
f 15//14 16//14 11//14
f 11//15 16//15 12//15
f 12//16 16//16 17//16
f 20//17 19//17 21//17
f 20//17 18//17 19//17
f 19//18 18//18 12//18
f 19//19 12//19 17//19
f 22//20 23//20 24//20
f 22//21 24//21 25//21
f 22//22 25//22 26//22
f 22//23 26//23 27//23
f 22//24 27//24 28//24
f 22//25 28//25 29//25
f 30//26 10//26 22//26
f 23//27 22//27 31//27
f 31//28 22//28 18//28
f 18//29 22//29 12//29
f 12//30 22//30 10//30
f 20//31 32//31 18//31
f 32//32 33//32 18//32
f 33//33 34//33 18//33
f 34//34 35//34 18//34
f 35//35 31//35 18//35
f 37//36 6//36 10//36
f 37//37 10//37 30//37
f 38//38 39//38 40//38
f 39//39 38//39 41//39
f 36//40 42//40 30//40
f 36//41 43//41 42//41
f 43//42 36//42 1//42
f 43//43 1//43 44//43
f 44//44 1//44 4//44
f 44//45 4//45 45//45
f 45//46 4//46 6//46
f 45//47 6//47 37//47
f 37//48 30//48 42//48
f 40//49 45//49 38//49
f 38//50 45//50 41//50
f 41//51 45//51 42//51
f 41//52 42//52 39//52
f 39//53 42//53 43//53
f 39//54 43//54 44//54
f 39//55 44//55 40//55
f 40//56 44//56 45//56
f 45//57 37//57 42//57
f 47//58 46//58 17//58
f 17//59 46//59 2//59
f 17//60 2//60 1//60
f 48//61 3//61 49//61
f 49//62 3//62 68//62
f 68//63 3//63 46//63
f 46//64 3//64 2//64
f 3//65 48//65 5//65
f 5//66 48//66 50//66
f 5//67 50//67 51//67
f 5//68 51//68 52//68
f 5//69 52//69 53//69
f 5//70 53//70 54//70
f 5//71 54//71 55//71
f 5//72 55//72 56//72
f 5//73 56//73 57//73
f 5//74 57//74 7//74
f 7//75 57//75 58//75
f 7//76 58//76 59//76
f 7//77 59//77 60//77
f 7//78 60//78 61//78
f 7//79 61//79 62//79
f 7//80 62//80 63//80
f 7//81 63//81 64//81
f 7//82 64//82 8//82
f 8//83 64//83 65//83
f 8//84 65//84 66//84
f 8//85 66//85 67//85
f 8//86 67//86 13//86
f 8//87 13//87 15//87
f 8//88 15//88 9//88
f 9//89 15//89 11//89
f 68//90 69//90 70//90
f 68//91 70//91 71//91
f 68//92 71//92 72//92
f 68//93 72//93 73//93
f 68//94 73//94 74//94
f 68//95 74//95 75//95
f 75//96 76//96 68//96
f 76//97 49//97 68//97
f 19//98 77//98 78//98
f 19//99 78//99 79//99
f 19//100 79//100 80//100
f 19//101 80//101 81//101
f 19//102 81//102 21//102
f 82//103 77//103 83//103
f 83//104 77//104 19//104
f 83//105 19//105 1//105
f 1//106 19//106 17//106
f 84//107 85//107 83//107
f 82//108 83//108 86//108
f 86//109 83//109 87//109
f 87//110 83//110 88//110
f 88//111 83//111 89//111
f 89//112 83//112 85//112
f 36//113 83//113 1//113
f 84//114 83//114 29//114
f 29//115 83//115 22//115
f 22//116 83//116 36//116
f 22//117 36//117 30//117
f 69//118 68//118 90//118
f 90//119 68//119 47//119
f 47//120 68//120 46//120
f 91//121 90//121 92//121
f 92//122 90//122 47//122
f 92//123 47//123 16//123
f 16//124 47//124 17//124
f 91//125 92//125 93//125
f 14//126 93//126 92//126
f 90//127 91//127 69//127
f 69//127 91//127 70//127
f 70//127 91//127 71//127
f 71//127 91//127 72//127
f 72//127 91//127 73//127
f 73//127 91//127 74//127
f 74//127 91//127 75//127
f 75//127 91//127 76//127
f 76//127 91//127 49//127
f 49//127 91//127 48//127
f 48//127 91//127 50//127
f 50//127 91//127 14//127
f 50//127 14//127 51//127
f 51//127 14//127 52//127
f 52//127 14//127 53//127
f 53//127 14//127 54//127
f 54//127 14//127 55//127
f 55//127 14//127 56//127
f 56//127 14//127 57//127
f 57//127 14//127 58//127
f 58//127 14//127 59//127
f 59//127 14//127 60//127
f 60//127 14//127 61//127
f 61//127 14//127 62//127
f 62//127 14//127 63//127
f 63//127 14//127 64//127
f 64//127 14//127 65//127
f 65//127 14//127 66//127
f 66//127 14//127 67//127
f 67//127 14//127 13//127
f 91//127 93//127 14//127
f 81//127 79//127 21//127
f 21//127 79//127 78//127
f 21//127 78//127 77//127
f 81//127 80//127 79//127
f 77//127 82//127 21//127
f 21//127 82//127 84//127
f 21//127 84//127 20//127
f 20//127 84//127 29//127
f 20//127 29//127 31//127
f 31//127 29//127 23//127
f 23//127 29//127 24//127
f 24//127 29//127 25//127
f 25//127 29//127 28//127
f 25//127 28//127 26//127
f 26//127 28//127 27//127
f 86//127 87//127 82//127
f 82//127 87//127 88//127
f 82//127 88//127 89//127
f 89//127 85//127 82//127
f 82//127 85//127 84//127
f 35//127 34//127 31//127
f 31//127 34//127 33//127
f 31//127 33//127 32//127
f 32//127 20//127 31//127
f 85//128 89//128 84//128
f 84//128 89//128 88//128
f 84//128 88//128 87//128
f 87//128 86//128 84//128
f 84//128 86//128 82//128
f 94//129 13//129 95//129
f 95//130 13//130 67//130
f 95//131 67//131 66//131
f 95//132 66//132 65//132
f 95//133 65//133 64//133
f 95//134 64//134 63//134
f 95//135 63//135 62//135
f 95//136 62//136 61//136
f 95//137 61//137 96//137
f 96//138 61//138 60//138
f 96//139 60//139 59//139
f 96//140 59//140 58//140
f 96//141 58//141 57//141
f 96//142 57//142 56//142
f 96//143 56//143 55//143
f 96//144 55//144 97//144
f 97//145 55//145 54//145
f 97//146 54//146 53//146
f 97//147 53//147 52//147
f 97//148 52//148 51//148
f 97//149 51//149 50//149
f 97//150 50//150 48//150
f 97//151 48//151 49//151
f 97//152 49//152 98//152
f 97//153 98//153 99//153
f 98//154 100//154 99//154
f 95//155 101//155 94//155
f 94//156 101//156 102//156
f 49//157 76//157 98//157
f 76//158 75//158 98//158
f 98//159 75//159 74//159
f 98//160 74//160 73//160
f 98//161 73//161 72//161
f 98//162 72//162 71//162
f 98//163 71//163 70//163
f 98//164 70//164 69//164
f 103//165 29//165 28//165
f 103//166 28//166 27//166
f 103//167 27//167 26//167
f 103//168 26//168 25//168
f 103//169 25//169 24//169
f 103//170 24//170 23//170
f 23//171 31//171 103//171
f 103//172 31//172 106//172
f 103//173 106//173 104//173
f 104//174 106//174 107//174
f 104//175 107//175 105//175
f 106//176 31//176 35//176
f 106//177 35//177 34//177
f 106//178 34//178 33//178
f 106//179 33//179 32//179
f 106//180 32//180 20//180
f 14//181 13//181 108//181
f 108//182 107//182 111//182
f 111//183 106//183 109//183
f 21//184 109//184 106//184
f 21//185 106//185 20//185
f 13//186 94//186 108//186
f 108//187 94//187 102//187
f 108//188 102//188 107//188
f 111//189 107//189 106//189
f 69//190 90//190 98//190
f 98//191 90//191 110//191
f 98//192 110//192 100//192
f 110//193 111//193 100//193
f 100//194 111//194 99//194
f 99//195 111//195 112//195
f 118//196 113//196 116//196
f 118//197 116//197 119//197
f 119//198 116//198 115//198
f 119//199 115//199 120//199
f 120//200 115//200 117//200
f 120//201 117//201 114//201
f 120//202 114//202 113//202
f 120//203 113//203 118//203
f 104//204 115//204 121//204
f 104//205 117//205 115//205
f 117//206 104//206 114//206
f 113//207 114//207 122//207
f 113//208 122//208 123//208
f 113//209 123//209 116//209
f 116//210 123//210 121//210
f 116//211 121//211 115//211
f 118//212 119//212 120//212
f 29//213 103//213 84//213
f 84//214 103//214 124//214
f 124//215 103//215 104//215
f 124//216 104//216 121//216
f 112//217 121//217 123//217
f 105//218 122//218 114//218
f 105//219 114//219 104//219
f 125//220 102//220 101//220
f 105//221 107//221 125//221
f 125//222 107//222 102//222
f 21//223 81//223 109//223
f 81//224 80//224 109//224
f 80//225 79//225 109//225
f 79//226 78//226 109//226
f 78//227 77//227 109//227
f 82//228 124//228 77//228
f 77//229 124//229 109//229
f 109//230 124//230 112//230
f 109//231 112//231 111//231
f 124//232 82//232 86//232
f 124//233 86//233 87//233
f 124//234 87//234 88//234
f 124//235 88//235 89//235
f 124//236 89//236 85//236
f 124//237 85//237 84//237
f 124//238 121//238 112//238
f 91//239 126//239 90//239
f 90//240 126//240 110//240
f 110//241 126//241 111//241
f 93//242 126//242 91//242
f 14//243 108//243 93//243
f 93//244 108//244 126//244
f 126//245 108//245 111//245
f 105//246 125//246 101//246
f 105//247 101//247 122//247
f 122//248 101//248 95//248
f 95//249 96//249 122//249
f 122//250 96//250 123//250
f 123//251 96//251 97//251
f 123//252 97//252 112//252
f 112//253 97//253 99//253
