# Blender v2.76 (sub 0) OBJ File: ''
# www.blender.org
mtllib left_ring_limb1.mtl
o Left_Ring_Limb1
v 25.827589 -4.282779 -12.978897
v 28.814949 -4.077641 -15.021781
v 22.015648 -1.656348 -11.611078
v 27.361668 -4.488707 -4.187453
v 30.397699 -5.140454 -6.606440
v 29.564739 2.588326 -3.720603
v 23.381023 0.306945 -3.692644
v 31.382553 0.771661 -7.853851
v 25.798176 -7.352246 -2.508726
v 19.040979 -6.370305 -11.491090
v 19.917452 -4.404836 -8.682779
v 26.578171 -7.694657 -11.623886
v 27.974155 3.077775 -12.695565
v 20.781378 -5.021602 -2.990025
v 19.132944 -4.421756 -5.529973
v 16.250504 -3.618772 -8.032722
v 22.227493 3.270097 -6.754756
v 24.117098 2.539973 -7.309118
v 20.639168 0.954509 -8.152707
v 17.932383 3.517541 -10.600804
v 5.048934 3.973988 -6.229940
v 5.030468 3.782022 -6.259462
v 5.202103 4.292709 -5.800916
v 5.141823 4.250370 -5.981777
v 5.088037 4.138449 -6.132430
v 7.553135 4.465294 1.466801
v 20.703463 3.716300 -2.069247
v 4.805441 -2.595395 -6.035225
v 4.883998 -3.049352 -5.725901
v 4.941484 -3.082985 -5.542719
v 4.810390 -2.785536 -5.992377
v 4.837971 -2.944919 -5.883774
v 7.293254 -2.910346 1.727277
v 7.464503 -2.400198 2.184701
v 7.446075 -2.592055 2.155285
v 7.407074 -2.756326 2.058062
v 7.353419 -2.868077 1.907790
v 7.689529 3.977219 1.960464
v 7.610733 4.431608 1.650335
v 7.684549 4.167463 1.917503
v 7.656879 4.327024 1.808600
v -7.936727 4.793436 1.474367
v -7.843748 4.900511 3.663025
v -16.010757 3.331805 -0.974055
v -9.973631 4.688658 2.450354
v -11.198037 -3.858806 -1.087906
v -9.585618 1.033028 -0.817154
v -18.545481 -0.217221 5.180995
v -17.738890 -0.788259 -1.084939
v -18.700087 3.897694 4.626520
v -17.794294 3.919731 7.187187
v -18.366039 7.187916 5.776856
v -14.794088 6.469597 5.526429
v -14.670919 0.991420 11.223748
v -22.386600 -4.914949 5.701250
v -21.782700 -7.157195 7.814673
v -11.176107 3.014638 9.574751
v -24.327465 0.747959 8.447284
v -7.753116 -2.320929 2.663594
v -9.016548 -3.132192 3.283651
v -9.082414 -3.074522 1.620797
v -7.619996 0.880631 6.010408
v -9.917351 -2.809574 8.541119
v -12.330361 1.791457 10.476884
v -6.876659 -0.836384 7.138896
v -16.188839 1.795596 -1.308556
vn -0.353600 0.828600 -0.433900
vn -0.011700 -0.826200 0.563200
vn -0.575500 0.230900 -0.784500
vn 0.127700 -0.334800 0.933600
vn -0.453500 -0.111100 -0.884300
vn -0.150100 0.891000 -0.428500
vn -0.175400 -0.044100 -0.983500
vn 0.130100 -0.341100 0.931000
vn -0.143200 -0.105000 0.984100
vn 0.758000 0.326500 0.564600
vn 0.431400 0.269200 0.861000
vn 0.436000 0.266000 0.859700
vn 0.823300 -0.288500 0.488900
vn -0.128900 -0.793100 0.595300
vn -0.125300 -0.637000 -0.760600
vn 0.862600 -0.061800 0.502000
vn -0.475400 -0.834000 0.280000
vn -0.643700 -0.724400 0.246700
vn -0.436500 -0.723100 -0.535300
vn -0.236600 -0.804400 -0.544900
vn -0.032300 -0.413300 0.910000
vn -0.429100 -0.815400 -0.388700
vn -0.372700 0.911100 -0.175900
vn 0.868100 -0.163300 0.468800
vn 0.527700 0.397100 0.750900
vn 0.545000 0.410300 0.731200
vn -0.640200 0.157800 0.751800
vn 0.755400 -0.196200 -0.625200
vn -0.030200 -0.803500 0.594600
vn -0.202800 0.031100 -0.978700
vn -0.361700 0.249500 -0.898300
vn -0.350100 0.833000 -0.428400
vn -0.251400 0.134300 -0.958500
vn -0.153200 0.071600 -0.985600
vn -0.310900 0.173600 -0.934500
vn -0.023700 0.975100 -0.220400
vn -0.153000 0.818600 -0.553600
vn -0.253800 0.537200 -0.804300
vn 0.650400 0.051600 0.757900
vn -0.259800 -0.697300 -0.668000
vn 0.046200 0.998200 -0.038700
vn 0.046500 0.998200 -0.038400
vn 0.109800 0.992200 -0.058800
vn 0.262500 0.964900 -0.006500
vn 0.045600 0.921800 -0.385100
vn 0.163200 0.766100 0.621600
vn 0.666800 -0.007500 -0.745200
vn 0.282400 0.928000 0.243200
vn -0.174300 -0.028500 -0.984300
vn -0.313000 -0.255400 -0.914800
vn -0.790700 -0.033600 -0.611300
vn -0.080900 -0.984500 -0.155400
vn -0.186800 -0.220600 -0.957300
vn -0.146900 -0.844200 -0.515600
vn -0.184100 -0.575000 -0.797200
vn 0.545600 -0.540400 -0.640600
vn 0.148900 -0.117200 0.981900
vn 0.219400 0.973800 0.059800
vn -0.688700 0.464500 0.556700
vn -0.699200 0.694300 -0.170300
vn 0.727900 -0.454400 -0.513500
vn 0.812400 -0.235100 -0.533600
vn 0.967000 -0.191800 -0.167500
vn 0.874200 -0.450400 -0.181500
vn -0.039300 -0.998600 0.036400
vn -0.188600 -0.976700 -0.102200
vn 0.326800 -0.173800 0.929000
vn 0.217600 -0.534900 0.816400
vn 0.079800 -0.813300 0.576300
vn -0.064600 -0.966600 0.247900
vn 0.365500 0.019800 0.930600
vn 0.292600 -0.097600 0.951200
vn 0.096500 0.983900 0.150300
vn 0.292700 0.217900 0.931100
vn 0.257800 0.574800 0.776700
vn 0.188800 0.843700 0.502500
vn -0.950800 0.044300 0.306500
vn 0.950800 -0.044300 -0.306500
vn 0.021200 0.999300 -0.030600
vn 0.021100 0.998500 -0.049700
vn -0.099800 0.964000 -0.246500
vn -0.128000 0.978400 -0.162100
vn 0.075200 0.937000 0.341300
vn 0.308700 0.841900 0.442600
vn -0.089400 0.976000 -0.198700
vn -0.243500 0.170300 -0.954800
vn -0.219800 0.535700 -0.815300
vn -0.165600 0.819000 -0.549300
vn -0.293600 -0.023200 -0.955600
vn -0.372100 0.173100 -0.911900
vn -0.187200 -0.577600 -0.794600
vn -0.272500 -0.218300 -0.937100
vn -0.002400 -0.983700 -0.179900
vn -0.109300 -0.843400 -0.526100
vn -0.204100 -0.575100 -0.792200
vn -0.991000 -0.053800 -0.122700
vn -0.826900 0.358500 -0.433300
vn -0.098400 0.995100 -0.001000
vn -0.302200 -0.244500 -0.921400
vn -0.084900 0.996200 0.021500
vn -0.170400 -0.944800 0.280000
vn -0.146100 -0.413400 -0.898700
vn 0.256400 -0.342100 0.904000
vn -0.865000 0.241600 -0.439800
vn 0.857000 0.515200 0.004700
vn -0.717900 0.166100 0.676000
vn -0.773100 0.614900 -0.155600
vn -0.323600 -0.693700 -0.643500
vn -0.158000 -0.985300 0.064400
vn 0.501400 0.092600 0.860200
vn -0.440300 0.265000 -0.857800
vn -0.036900 -0.998700 0.035700
vn 0.200300 -0.897400 0.393200
vn -0.045100 -0.994000 -0.099300
vn 0.102600 -0.974000 0.201900
vn -0.998900 -0.018500 0.043300
vn -0.998000 -0.020800 0.059600
vn 0.479900 -0.422300 -0.769000
vn 0.857000 0.050200 -0.512900
vn -0.518400 -0.226600 0.824600
vn 0.679200 0.734000 -0.001400
vn -0.233300 -0.698200 -0.676800
vn 0.992700 0.119800 -0.016100
vn 0.371600 -0.596500 0.711400
vn -0.856600 0.063500 0.512100
vn 0.074900 -0.976200 0.203600
vn 0.341800 -0.174400 0.923400
vn 0.203300 -0.819000 0.536500
vn 0.297000 -0.537600 0.789200
vn 0.358300 -0.196100 0.912800
vn 0.082900 0.539700 0.837800
vn 0.328500 0.021600 0.944200
vn 0.314800 -0.642500 0.698700
vn 0.098200 0.575900 0.811600
vn 0.450300 -0.060800 0.890800
vn 0.337000 0.142100 0.930700
vn -0.697400 -0.458000 -0.551300
vn 0.668200 0.606600 0.430800
vn -0.032000 -0.067100 -0.997200
vn -0.516900 0.238900 -0.822100
vn 0.356100 0.214700 0.909400
vn 0.001700 0.983700 0.180000
vn 0.152900 0.844400 0.513400
vn 0.277700 0.573900 0.770400
vn -0.088900 0.717000 0.691400
vn 0.049200 0.895900 -0.441600
vn -0.985100 0.112900 0.129900
vn -0.825000 -0.118200 0.552600
vn 0.585700 0.403200 -0.703100
vn -0.761700 0.217300 0.610400
vn -0.585200 0.796900 -0.149700
vn 0.310500 0.731000 -0.607700
vn 0.350800 -0.606800 0.713300
vn -0.936600 -0.233900 0.261000
vn -0.513600 0.817700 0.260000
vn 0.928000 0.083800 0.363000
vn -0.257600 -0.940000 0.223900
vn 0.908800 -0.014600 -0.417000
vn 0.427100 0.330600 -0.841600
vn -0.414900 -0.245200 0.876200
vn 0.164200 -0.681200 -0.713500
vn 0.577000 0.554800 -0.599400
vn -0.612800 -0.135000 -0.778600
vn 0.147600 -0.984900 0.090000
vn 0.324700 0.693600 0.643100
vn -0.239800 -0.970700 0.018500
vn 0.238300 0.961600 -0.136500
vn 0.212600 -0.366400 0.905800
vn -0.558500 -0.813400 0.162900
vn 0.400200 -0.915200 -0.047600
vn 0.585100 -0.797200 0.149200
vn -0.768200 0.506800 0.391200
vn -0.413400 -0.880900 0.230400
vn 0.770100 -0.629900 -0.100900
usemtl None
s off
f 2//1 1//1 8//1
f 2//2 8//2 3//2
f 5//3 4//3 6//3
f 5//4 6//4 7//4
f 7//5 8//5 5//5
f 4//6 5//6 14//6
f 4//7 14//7 7//7
f 27//8 7//8 6//8
f 14//9 9//9 27//9
f 27//10 9//10 7//10
f 9//11 4//11 7//11
f 4//12 9//12 8//12
f 4//13 8//13 6//13
f 11//14 10//14 12//14
f 12//15 10//15 2//15
f 12//16 2//16 13//16
f 15//17 16//17 10//17
f 15//18 10//18 14//18
f 7//19 17//19 18//19
f 7//20 18//20 8//20
f 18//21 19//21 8//21
f 18//22 17//22 13//22
f 18//23 13//23 19//23
f 19//24 11//24 3//24
f 3//25 11//25 12//25
f 3//26 12//26 1//26
f 1//27 12//27 13//27
f 1//28 13//28 8//28
f 8//29 19//29 3//29
f 13//30 3//30 20//30
f 13//31 2//31 3//31
f 1//32 2//32 10//32
f 1//33 10//33 3//33
f 3//34 10//34 20//34
f 21//35 20//35 22//35
f 23//36 20//36 24//36
f 24//37 20//37 25//37
f 25//38 20//38 21//38
f 5//39 8//39 9//39
f 5//40 9//40 14//40
f 23//41 26//41 20//41
f 20//42 26//42 27//42
f 20//43 27//43 17//43
f 17//44 27//44 8//44
f 8//45 27//45 6//45
f 13//46 20//46 19//46
f 19//47 20//47 17//47
f 8//48 13//48 17//48
f 28//49 22//49 16//49
f 16//50 22//50 20//50
f 20//51 10//51 16//51
f 29//52 16//52 30//52
f 28//53 16//53 31//53
f 32//54 16//54 29//54
f 31//55 16//55 32//55
f 16//56 19//56 14//56
f 19//57 16//57 11//57
f 11//58 16//58 15//58
f 19//59 15//59 14//59
f 7//60 11//60 15//60
f 7//61 15//61 19//61
f 7//62 19//62 17//62
f 14//63 10//63 11//63
f 14//64 11//64 7//64
f 30//65 16//65 33//65
f 33//66 16//66 14//66
f 14//67 34//67 35//67
f 14//68 35//68 36//68
f 14//69 36//69 37//69
f 14//70 37//70 33//70
f 34//71 14//71 38//71
f 38//72 14//72 27//72
f 39//73 27//73 26//73
f 38//74 27//74 40//74
f 40//75 27//75 41//75
f 41//76 27//76 39//76
f 33//77 28//77 30//77
f 30//77 28//77 31//77
f 30//77 31//77 32//77
f 37//77 36//77 33//77
f 33//77 36//77 35//77
f 33//77 35//77 34//77
f 38//77 22//77 34//77
f 34//77 22//77 28//77
f 34//77 28//77 33//77
f 40//77 26//77 38//77
f 38//77 26//77 23//77
f 38//77 23//77 22//77
f 22//77 23//77 21//77
f 21//77 23//77 25//77
f 25//77 23//77 24//77
f 40//77 41//77 26//77
f 26//77 41//77 39//77
f 32//77 29//77 30//77
f 30//78 34//78 33//78
f 22//78 38//78 28//78
f 28//78 38//78 34//78
f 28//78 34//78 30//78
f 22//78 23//78 26//78
f 22//78 26//78 38//78
f 23//79 42//79 26//79
f 26//80 42//80 43//80
f 44//81 42//81 23//81
f 45//82 42//82 44//82
f 26//83 43//83 57//83
f 57//84 43//84 53//84
f 24//85 44//85 23//85
f 22//86 44//86 21//86
f 21//87 44//87 25//87
f 25//88 44//88 24//88
f 28//89 46//89 22//89
f 22//90 46//90 47//90
f 22//91 47//91 44//91
f 31//92 46//92 28//92
f 30//93 46//93 29//93
f 29//94 46//94 32//94
f 32//95 46//95 31//95
f 49//96 48//96 50//96
f 49//97 50//97 44//97
f 45//98 51//98 43//98
f 43//99 51//99 53//99
f 51//100 45//100 50//100
f 52//101 45//101 53//101
f 51//102 52//102 53//102
f 45//103 52//103 50//103
f 50//104 52//104 44//104
f 44//105 52//105 54//105
f 54//106 52//106 51//106
f 48//107 49//107 55//107
f 55//108 49//108 56//108
f 57//109 51//109 50//109
f 58//110 56//110 48//110
f 55//111 58//111 48//111
f 33//112 59//112 30//112
f 30//113 59//113 61//113
f 63//114 59//114 33//114
f 30//115 61//115 46//115
f 59//116 43//116 42//116
f 43//117 59//117 62//117
f 43//118 62//118 45//118
f 45//119 62//119 60//119
f 61//120 59//120 44//120
f 61//121 44//121 60//121
f 60//122 44//122 47//122
f 60//123 47//123 45//123
f 45//124 47//124 42//124
f 42//125 47//125 59//125
f 37//126 63//126 33//126
f 34//127 63//127 35//127
f 36//128 63//128 37//128
f 36//129 35//129 63//129
f 63//130 64//130 54//130
f 54//131 64//131 57//131
f 38//132 65//132 34//132
f 57//133 62//133 38//133
f 38//134 62//134 65//134
f 57//135 63//135 65//135
f 65//136 63//136 34//136
f 44//137 46//137 48//137
f 48//138 46//138 66//138
f 66//139 46//139 49//139
f 66//140 49//140 44//140
f 40//141 57//141 38//141
f 26//142 57//142 39//142
f 39//143 57//143 41//143
f 41//144 57//144 40//144
f 57//145 53//145 54//145
f 44//146 53//146 45//146
f 44//147 54//147 53//147
f 51//148 48//148 54//148
f 46//149 44//149 59//149
f 46//150 59//150 47//150
f 65//151 59//151 60//151
f 65//152 60//152 57//152
f 57//153 60//153 62//153
f 62//154 59//154 65//154
f 57//155 44//155 48//155
f 48//156 66//156 50//156
f 57//157 50//157 66//157
f 57//158 66//158 44//158
f 51//159 63//159 48//159
f 48//160 63//160 57//160
f 51//161 57//161 64//161
f 63//162 51//162 64//162
f 46//163 56//163 58//163
f 46//164 60//164 55//164
f 56//165 46//165 55//165
f 63//166 58//166 60//166
f 46//167 58//167 63//167
f 60//168 58//168 55//168
f 54//169 46//169 63//169
f 60//170 46//170 61//170
f 63//171 60//171 59//171
f 54//172 48//172 56//172
f 46//173 54//173 49//173
f 49//174 54//174 56//174
