# Blender v2.76 (sub 0) OBJ File: ''
# www.blender.org
mtllib Left Middle Limb0.mtl
o Left_Middle_Limb0
v 0.001793 0.014133 0.023427
v -0.004410 0.024902 0.023296
v -0.017503 0.012983 0.024871
v -0.004459 0.003500 0.023273
v -0.019436 -0.005463 0.025562
v -0.003655 -0.004972 0.023530
v -0.007468 -0.020721 0.025414
v 0.004097 -0.010823 0.024089
v 0.018378 -0.020594 0.024151
v 0.017862 -0.019907 0.015296
v 0.014679 -0.009634 0.015611
v 0.013912 -0.008041 0.023391
v 0.004551 -0.024300 0.012047
v -0.000931 -0.024024 0.000853
v -0.012509 0.007330 0.009466
v -0.015977 0.004348 0.000677
v 0.000327 0.014173 0.014650
v 0.023743 -0.004834 0.005835
v 0.009667 0.020053 0.008374
v 0.011364 0.018836 -0.001207
v 0.023077 -0.003250 -0.001070
v 0.030473 -0.001282 0.009444
v 0.029319 -0.002771 -0.001406
v 0.030116 -0.002205 -0.001465
v 0.030738 -0.001451 -0.001522
v 0.031144 -0.000562 -0.001573
v 0.031305 0.000403 -0.001613
v 0.031212 0.001377 -0.001641
v 0.030870 0.002294 -0.001654
v 0.021822 -0.004396 0.020671
v 0.026453 -0.004290 -0.001208
v 0.023547 -0.003875 -0.001073
v 0.024186 -0.004325 -0.001091
v 0.024933 -0.004555 -0.001122
v 0.025714 -0.004543 -0.001162
v 0.013273 0.003220 0.022069
v -0.001273 0.001990 0.037024
v 0.006378 0.008932 0.036534
v 0.012229 0.000060 0.036381
v 0.004088 -0.005051 0.037089
v 0.004143 0.009369 0.022726
v 0.009370 -0.005807 0.022739
v -0.007025 0.022241 0.005923
v -0.004485 0.013273 0.004495
v -0.017661 0.013766 0.000449
v -0.016203 0.015865 0.000305
v -0.018897 0.011529 0.000587
v -0.019897 0.009176 0.000717
v -0.020651 0.006733 0.000837
v -0.021152 0.004226 0.000946
v -0.021394 0.001680 0.001044
v -0.021374 -0.000878 0.001128
v -0.021094 -0.003421 0.001198
v -0.020554 -0.005923 0.001254
v -0.019763 -0.008356 0.001295
v -0.018727 -0.010697 0.001320
v -0.017457 -0.012919 0.001329
v -0.015967 -0.015000 0.001322
v -0.014273 -0.016918 0.001299
v -0.012392 -0.018654 0.001261
v -0.010344 -0.020187 0.001207
v -0.008150 -0.021504 0.001138
v -0.005834 -0.022589 0.001056
v -0.003419 -0.023432 0.000960
v -0.011954 0.018541 0.003464
v -0.009933 0.015320 0.000002
v -0.010468 0.016083 0.000004
v -0.011176 0.016691 0.000020
v -0.012010 0.017105 0.000048
v -0.012921 0.017301 0.000089
v -0.013852 0.017266 0.000137
v -0.014744 0.017002 0.000192
v -0.015545 0.016525 0.000249
v 0.012398 0.022213 -0.001372
v 0.011774 0.021744 -0.001325
v 0.011325 0.021104 -0.001280
v 0.011097 0.020357 -0.001244
v 0.011110 0.019576 -0.001218
v 0.015264 0.023732 -0.001570
v 0.017874 0.024094 0.006630
v 0.009697 0.019474 0.020200
v 0.020328 0.022172 -0.001777
v 0.019761 0.022969 -0.001775
v 0.019007 0.023593 -0.001757
v 0.018117 0.024001 -0.001725
v 0.017153 0.024164 -0.001681
v 0.016180 0.024073 -0.001628
v -0.007888 0.011464 0.000025
v -0.014503 0.007959 0.000481
v -0.013331 0.005750 0.000495
v 0.004224 -0.025460 -0.011523
v -0.006613 -0.023589 -0.023340
v -0.020108 -0.011856 -0.023067
v -0.020596 0.011905 -0.023828
v -0.012654 0.018253 -0.003044
v -0.007577 0.021539 -0.006698
v -0.006004 0.022661 -0.024494
v 0.016012 -0.021846 -0.024521
v 0.016302 -0.020722 -0.015575
v 0.030509 -0.001122 -0.008821
v 0.021456 -0.005621 -0.021631
v 0.012394 -0.009596 -0.023707
v 0.022380 -0.005911 -0.010321
v 0.012203 -0.010593 -0.016227
v -0.014184 0.005976 -0.006795
v 0.009499 0.019915 -0.008586
v -0.004980 0.013138 -0.005049
v -0.000927 0.013025 -0.015677
v -0.000121 0.012487 -0.023897
v -0.002272 -0.011963 -0.022797
v -0.005359 -0.003868 -0.022775
v 0.006883 -0.007088 -0.023591
v -0.001038 0.007109 -0.023395
v 0.009039 0.005301 -0.023732
v -0.000928 -0.007236 -0.036668
v -0.005100 0.001206 -0.036566
v 0.003572 0.006583 -0.037394
v 0.008034 -0.003402 -0.037546
v -0.010477 0.002637 -0.023599
v 0.017077 0.023497 -0.009900
v 0.007170 0.018237 -0.022380
vn 0.071400 0.053300 0.996000
vn 0.078100 -0.060300 0.995100
vn 0.137800 0.022600 0.990200
vn 0.126300 0.042000 0.991100
vn 0.124500 0.088100 0.988300
vn 0.015300 0.115100 0.993200
vn 0.048300 0.076900 0.995900
vn 0.954400 0.296700 -0.032600
vn 0.941400 0.336300 0.023900
vn 0.822500 0.411600 -0.392600
vn 0.789000 0.415600 -0.452400
vn -0.879100 -0.466800 -0.096400
vn -0.871300 -0.489900 -0.028300
vn -0.630200 -0.282700 -0.723100
vn -0.407300 -0.280600 -0.869100
vn 0.234300 0.102200 -0.966800
vn 0.208400 0.088800 -0.974000
vn 0.326600 0.099400 -0.939900
vn 0.581500 -0.812000 0.049700
vn 0.771900 -0.635100 0.028500
vn 0.910000 -0.413600 0.028400
vn 0.985400 -0.163100 0.049300
vn 0.991200 0.097500 0.089500
vn 0.926400 0.347500 0.145100
vn 0.443300 -0.891400 0.094300
vn 0.470900 -0.879400 0.070700
vn 0.424900 -0.900400 0.094000
vn 0.467200 -0.884100 -0.000900
vn 0.521800 -0.824200 0.220100
vn -0.798100 -0.599400 -0.060500
vn -0.574200 -0.813000 -0.096500
vn -0.296600 -0.950900 -0.088800
vn 0.013400 -0.999200 -0.037700
vn 0.326500 -0.943700 0.052700
vn 0.048800 0.077700 0.995800
vn 0.049700 0.015600 0.998600
vn 0.054700 0.050800 0.997200
vn 0.121400 -0.085700 0.988900
vn -0.007100 0.266800 0.963700
vn -0.087400 0.111200 0.990000
vn -0.040200 -0.164900 0.985500
vn -0.790700 -0.600900 0.117200
vn -0.866600 -0.067200 0.494500
vn -0.062200 -0.997600 0.029700
vn 0.531100 -0.813100 0.238400
vn 0.917100 -0.398100 -0.021000
vn 0.822700 0.539500 0.179200
vn 0.554300 0.829900 -0.063500
vn -0.554800 0.823900 0.115900
vn -0.645900 0.728100 0.229600
vn 0.071600 0.188400 0.979500
vn 0.848600 0.308800 -0.429500
vn 0.823600 0.528800 -0.205000
vn 0.858600 0.492800 -0.141200
vn -0.820300 0.571400 0.023600
vn -0.566700 0.821300 0.066400
vn -0.671900 0.740400 0.018100
vn -0.588700 0.807600 -0.035100
vn -0.874600 0.484300 0.021200
vn -0.919300 0.392500 0.029300
vn -0.953700 0.296900 0.047700
vn -0.977100 0.198500 0.076400
vn -0.987900 0.107700 0.111300
vn -0.989300 0.098100 0.107600
vn -0.996900 -0.005000 0.078100
vn -0.992400 -0.108000 0.058500
vn -0.976600 -0.209400 0.048900
vn -0.950000 -0.308200 0.049600
vn -0.913000 -0.403500 0.060400
vn -0.865600 -0.494100 0.081400
vn -0.807900 -0.578600 0.112100
vn -0.779600 -0.612700 0.129500
vn -0.744600 -0.659000 0.106200
vn -0.675300 -0.733700 0.074800
vn -0.597700 -0.800000 0.053300
vn -0.513200 -0.857300 0.042000
vn -0.422700 -0.905300 0.041100
vn -0.327400 -0.943600 0.050400
vn -0.227900 -0.971200 0.069900
vn -0.205400 -0.975700 0.076500
vn 0.018100 -0.961600 0.273700
vn 0.332300 -0.938700 -0.092200
vn 0.817100 0.573700 -0.056600
vn 0.627100 0.736400 -0.253800
vn 0.405000 0.840500 -0.359900
vn 0.178000 0.906100 -0.383800
vn -0.052800 0.942200 -0.330900
vn -0.288800 0.937400 -0.194500
vn -0.509800 0.859800 0.030300
vn -0.660700 0.684200 0.308900
vn -0.600500 0.799600 0.009000
vn -0.818800 0.568600 -0.078700
vn -0.949600 0.284200 -0.132200
vn -0.988800 -0.021700 -0.147700
vn -0.937800 -0.324000 -0.125000
vn -0.459700 0.881500 0.107500
vn -0.426500 0.900900 0.080200
vn -0.433500 0.900000 0.045100
vn -0.547500 0.835800 0.042300
vn -0.489000 0.868100 0.085600
vn 0.810500 0.576200 0.104900
vn 0.637500 0.769400 0.040200
vn 0.416600 0.909100 0.002000
vn 0.166900 0.986000 -0.006100
vn -0.092900 0.995500 0.016500
vn -0.344000 0.936500 0.068200
vn 0.873200 0.464000 0.148800
vn 0.873500 0.453300 0.177400
vn 0.709600 0.415400 0.569100
vn 0.687400 0.361600 0.629900
vn 0.278500 0.160200 0.947000
vn 0.555700 0.502100 0.662700
vn 0.269500 0.127300 0.954500
vn 0.880500 0.467400 0.079200
vn 0.505400 0.594400 -0.625500
vn 0.290400 0.230100 -0.928800
vn 0.453300 -0.876500 -0.161900
vn 0.556500 -0.826000 -0.089300
vn 0.516200 -0.839400 -0.170300
vn 0.872300 0.461600 -0.161300
vn 0.471300 -0.875000 0.110900
vn -0.051100 -0.033300 -0.998100
vn 0.051100 0.033300 0.998100
vn -0.201400 -0.979100 0.029700
vn -0.229700 -0.972600 0.036500
vn -0.327400 -0.943600 0.049100
vn -0.422300 -0.905100 0.050600
vn -0.513200 -0.857300 0.040800
vn -0.599000 -0.800500 0.019900
vn -0.656200 -0.754600 -0.002700
vn -0.677900 -0.735100 0.009600
vn -0.748600 -0.661700 0.041800
vn -0.811400 -0.581000 0.062800
vn -0.866100 -0.494500 0.072600
vn -0.912400 -0.403200 0.070800
vn -0.949600 -0.308000 0.057700
vn -0.977200 -0.209800 0.033200
vn -0.994000 -0.109800 -0.002200
vn -0.998900 -0.021900 -0.042400
vn -0.999300 -0.008800 -0.035700
vn -0.995500 0.094800 0.007100
vn -0.979600 0.197300 0.039200
vn -0.952900 0.297300 0.060200
vn -0.916600 0.393600 0.069900
vn -0.871600 0.485500 0.068200
vn -0.818300 0.572200 0.055100
vn -0.576700 0.816400 -0.029000
vn -0.561900 0.826300 -0.037600
vn -0.593400 0.804900 -0.001700
vn 0.064000 -0.974900 -0.213000
vn 0.392800 -0.914000 0.102000
vn -0.695200 0.670700 -0.258500
vn -0.511500 0.859300 0.001700
vn -0.267200 0.944300 0.192300
vn -0.020900 0.957100 0.289000
vn 0.213200 0.929600 0.300500
vn 0.439200 0.868300 0.230700
vn 0.651000 0.755700 0.071100
vn 0.805700 0.566000 -0.174900
vn 0.917500 0.339200 -0.207900
vn 0.987500 0.091000 -0.128400
vn 0.983100 -0.167900 -0.073100
vn 0.907800 -0.416800 -0.047300
vn 0.768100 -0.638100 -0.052900
vn 0.573000 -0.814700 -0.089300
vn 0.458100 -0.880400 -0.122400
vn 0.516800 -0.852400 -0.079400
vn 0.515300 -0.854600 -0.064000
vn 0.412000 -0.909400 -0.057000
vn 0.465300 -0.878900 -0.105200
vn 0.325200 -0.945400 0.022800
vn 0.022400 -0.989900 0.139700
vn -0.279400 -0.935700 0.215500
vn -0.553000 -0.796300 0.245100
vn -0.778000 -0.585800 0.227100
vn 0.842000 0.448400 0.299800
vn 0.842400 0.448300 0.298900
vn -0.422700 -0.255200 0.869600
vn -0.873400 -0.462300 0.153100
vn -0.872500 -0.448200 0.194700
vn -0.394400 -0.256000 0.882600
vn 0.485100 0.250200 0.837900
vn 0.265700 0.138500 0.954000
vn 0.490200 0.158100 0.857100
vn 0.837100 0.442000 -0.322300
vn 0.561600 0.634400 0.531200
vn 0.422500 0.298600 0.855800
vn 0.880700 0.337500 0.332200
vn 0.835500 0.538800 0.107800
vn 0.863200 0.502200 0.051800
vn -0.073100 -0.025200 -0.997000
vn -0.883300 -0.434400 -0.176400
vn -0.921600 0.369500 0.118700
vn -0.529800 0.822900 -0.205400
vn 0.177300 0.983900 0.021400
vn 0.866300 0.391800 -0.309900
vn 0.984600 -0.171000 0.036100
vn 0.367200 -0.906300 -0.209100
vn -0.241600 -0.957900 0.155200
vn -0.024300 -0.007100 -0.999700
vn -0.051100 -0.066300 -0.996500
vn 0.301700 0.117600 -0.946100
vn 0.059100 -0.079500 -0.995100
vn 0.071000 -0.104700 -0.992000
vn -0.048500 -0.084600 -0.995200
vn -0.087400 -0.023900 -0.995900
vn -0.078500 -0.026800 -0.996600
vn 0.854200 0.451400 -0.258200
vn 0.850900 0.452600 -0.266800
vn 0.700200 0.354900 -0.619500
vn 0.647200 0.366600 -0.668300
vn 0.188200 0.082000 -0.978700
vn 0.783800 0.175500 -0.595700
vn 0.111300 0.119200 -0.986600
vn 0.017400 -0.048600 -0.998700
vn 0.958300 0.278900 0.061700
vn 0.926000 0.369800 -0.076500
vn -0.929700 -0.316300 0.188700
vn -0.977000 -0.009700 0.213100
vn -0.936900 0.295900 0.186000
vn -0.810400 0.575700 0.108800
vn -0.601500 0.798800 -0.012800
vn -0.471300 0.872800 -0.127200
vn -0.440000 0.891600 -0.107200
vn -0.432200 0.901000 -0.036600
vn -0.546800 0.837200 -0.009500
vn -0.601100 0.791500 -0.110700
vn -0.352600 0.930100 -0.103000
vn -0.097800 0.992000 -0.079700
vn 0.163000 0.983300 -0.081400
vn 0.410900 0.905200 -0.108100
vn 0.627300 0.762700 -0.157700
vn 0.793600 0.565200 -0.225500
vn 0.466700 -0.847900 0.251400
vn 0.602100 -0.794100 0.083000
vn 0.571100 -0.789100 0.226200
vn 0.880200 0.466300 -0.088500
vn 0.462300 -0.883000 -0.081500
vn -0.069200 0.045800 -0.996600
vn -0.057200 0.067900 -0.996000
vn 0.108000 0.006100 -0.994100
vn -0.033100 -0.014700 -0.999300
vn -0.006800 -0.032100 -0.999500
vn -0.015200 -0.041300 -0.999000
usemtl None
s off
f 1//1 2//1 3//1
f 1//2 3//2 4//2
f 4//3 3//3 5//3
f 4//4 5//4 6//4
f 6//5 5//5 7//5
f 6//6 7//6 8//6
f 8//7 7//7 9//7
f 10//8 11//8 9//8
f 9//9 11//9 12//9
f 13//10 14//10 15//10
f 15//11 14//11 16//11
f 19//12 20//12 21//12
f 21//13 18//13 19//13
f 18//14 11//14 19//14
f 19//15 11//15 17//15
f 11//16 10//16 17//16
f 17//17 10//17 13//17
f 17//18 13//18 15//18
f 22//19 23//19 24//19
f 22//20 24//20 25//20
f 22//21 25//21 26//21
f 22//22 26//22 27//22
f 22//23 27//23 28//23
f 22//24 28//24 29//24
f 22//25 30//25 12//25
f 23//26 22//26 31//26
f 31//27 22//27 18//27
f 18//28 22//28 11//28
f 11//29 22//29 12//29
f 18//30 21//30 32//30
f 18//31 32//31 33//31
f 18//32 33//32 34//32
f 18//33 34//33 35//33
f 18//34 35//34 31//34
f 9//35 12//35 8//35
f 38//36 37//36 39//36
f 39//37 37//37 40//37
f 41//38 1//38 4//38
f 8//39 12//39 42//39
f 42//40 12//40 36//40
f 41//41 36//41 1//41
f 37//42 4//42 40//42
f 40//43 4//43 6//43
f 40//44 6//44 42//44
f 40//45 42//45 39//45
f 39//46 42//46 36//46
f 39//47 36//47 38//47
f 38//48 36//48 41//48
f 38//49 41//49 4//49
f 38//50 4//50 37//50
f 6//51 8//51 42//51
f 44//52 43//52 17//52
f 17//53 43//53 2//53
f 17//54 2//54 1//54
f 45//55 3//55 46//55
f 46//56 3//56 65//56
f 65//57 3//57 2//57
f 65//58 2//58 43//58
f 3//59 45//59 47//59
f 3//60 47//60 48//60
f 3//61 48//61 49//61
f 3//62 49//62 50//62
f 3//63 50//63 5//63
f 5//64 50//64 51//64
f 5//65 51//65 52//65
f 5//66 52//66 53//66
f 5//67 53//67 54//67
f 5//68 54//68 55//68
f 5//69 55//69 56//69
f 5//70 56//70 57//70
f 5//71 57//71 58//71
f 5//72 58//72 7//72
f 7//73 58//73 59//73
f 7//74 59//74 60//74
f 7//75 60//75 61//75
f 7//76 61//76 62//76
f 7//77 62//77 63//77
f 7//78 63//78 64//78
f 7//79 64//79 14//79
f 7//80 14//80 13//80
f 7//81 13//81 9//81
f 9//82 13//82 10//82
f 65//83 66//83 67//83
f 65//84 67//84 68//84
f 65//85 68//85 69//85
f 65//86 69//86 70//86
f 65//87 70//87 71//87
f 65//88 71//88 72//88
f 72//89 73//89 65//89
f 73//90 46//90 65//90
f 19//91 74//91 75//91
f 19//92 75//92 76//92
f 19//93 76//93 77//93
f 19//94 77//94 78//94
f 19//95 78//95 20//95
f 79//96 74//96 80//96
f 80//97 74//97 19//97
f 80//98 19//98 81//98
f 81//99 19//99 1//99
f 1//100 19//100 17//100
f 80//101 82//101 83//101
f 80//102 83//102 84//102
f 80//103 84//103 85//103
f 80//104 85//104 86//104
f 80//105 86//105 87//105
f 80//106 87//106 79//106
f 82//107 80//107 29//107
f 29//108 80//108 22//108
f 22//109 80//109 81//109
f 22//110 81//110 30//110
f 30//111 81//111 1//111
f 30//112 1//112 36//112
f 30//113 36//113 12//113
f 66//114 65//114 88//114
f 88//115 65//115 44//115
f 44//116 65//116 43//116
f 89//117 88//117 15//117
f 15//118 88//118 44//118
f 15//119 44//119 17//119
f 90//120 89//120 15//120
f 16//121 90//121 15//121
f 88//122 89//122 66//122
f 66//122 89//122 67//122
f 67//122 89//122 68//122
f 68//122 89//122 69//122
f 69//122 89//122 70//122
f 70//122 89//122 71//122
f 71//122 89//122 72//122
f 72//122 89//122 73//122
f 73//122 89//122 46//122
f 46//122 89//122 45//122
f 45//122 89//122 47//122
f 47//122 89//122 16//122
f 47//122 16//122 48//122
f 48//122 16//122 49//122
f 49//122 16//122 50//122
f 50//122 16//122 51//122
f 51//122 16//122 52//122
f 52//122 16//122 53//122
f 53//122 16//122 54//122
f 54//122 16//122 55//122
f 55//122 16//122 56//122
f 56//122 16//122 57//122
f 57//122 16//122 58//122
f 58//122 16//122 59//122
f 59//122 16//122 60//122
f 60//122 16//122 61//122
f 61//122 16//122 62//122
f 62//122 16//122 63//122
f 63//122 16//122 64//122
f 64//122 16//122 14//122
f 89//122 90//122 16//122
f 78//122 76//122 20//122
f 20//122 76//122 75//122
f 20//122 75//122 74//122
f 78//122 77//122 76//122
f 74//122 79//122 20//122
f 20//122 79//122 82//122
f 20//122 82//122 21//122
f 21//122 82//122 29//122
f 21//122 29//122 31//122
f 31//122 29//122 23//122
f 23//122 29//122 24//122
f 24//122 29//122 25//122
f 25//122 29//122 28//122
f 25//122 28//122 26//122
f 26//122 28//122 27//122
f 87//122 86//122 79//122
f 79//122 86//122 85//122
f 79//122 85//122 84//122
f 84//122 83//122 79//122
f 79//122 83//122 82//122
f 35//122 34//122 31//122
f 31//122 34//122 33//122
f 31//122 33//122 32//122
f 32//122 21//122 31//122
f 83//123 84//123 82//123
f 82//123 84//123 85//123
f 82//123 85//123 86//123
f 86//123 87//123 82//123
f 82//123 87//123 79//123
f 91//124 14//124 92//124
f 92//125 14//125 64//125
f 92//126 64//126 63//126
f 92//127 63//127 62//127
f 92//128 62//128 61//128
f 92//129 61//129 60//129
f 92//130 60//130 93//130
f 93//131 60//131 59//131
f 93//132 59//132 58//132
f 93//133 58//133 57//133
f 93//134 57//134 56//134
f 93//135 56//135 55//135
f 93//136 55//136 54//136
f 93//137 54//137 53//137
f 93//138 53//138 52//138
f 93//139 52//139 94//139
f 94//140 52//140 51//140
f 94//141 51//141 50//141
f 94//142 50//142 49//142
f 94//143 49//143 48//143
f 94//144 48//144 47//144
f 94//145 47//145 45//145
f 94//146 45//146 46//146
f 94//147 46//147 95//147
f 95//148 96//148 94//148
f 94//149 96//149 97//149
f 91//150 92//150 98//150
f 91//151 98//151 99//151
f 46//152 73//152 95//152
f 73//153 72//153 95//153
f 95//154 72//154 71//154
f 95//155 71//155 70//155
f 95//156 70//156 69//156
f 95//157 69//157 68//157
f 95//158 68//158 67//158
f 95//159 67//159 66//159
f 100//160 29//160 28//160
f 100//161 28//161 27//161
f 100//162 27//162 26//162
f 100//163 26//163 25//163
f 100//164 25//164 24//164
f 100//165 24//165 23//165
f 23//166 31//166 100//166
f 100//167 31//167 103//167
f 100//168 103//168 101//168
f 101//169 103//169 102//169
f 102//170 103//170 104//170
f 103//171 31//171 35//171
f 103//172 35//172 34//172
f 103//173 34//173 33//173
f 103//174 33//174 32//174
f 103//175 32//175 21//175
f 105//176 16//176 14//176
f 105//177 14//177 91//177
f 108//178 104//178 106//178
f 20//179 106//179 21//179
f 21//180 106//180 103//180
f 103//181 106//181 104//181
f 104//182 108//182 99//182
f 99//183 108//183 91//183
f 91//184 108//184 105//184
f 66//185 88//185 95//185
f 95//186 88//186 107//186
f 95//187 107//187 96//187
f 107//188 108//188 96//188
f 96//189 108//189 97//189
f 97//190 108//190 109//190
f 110//191 111//191 112//191
f 115//192 111//192 116//192
f 116//193 111//193 113//193
f 116//194 113//194 117//194
f 117//195 113//195 114//195
f 117//196 114//196 118//196
f 118//197 114//197 112//197
f 118//198 112//198 115//198
f 115//199 112//199 111//199
f 114//200 102//200 112//200
f 112//201 102//201 110//201
f 111//202 110//202 119//202
f 111//203 119//203 113//203
f 113//204 119//204 109//204
f 113//205 109//205 114//205
f 118//206 115//206 117//206
f 117//207 115//207 116//207
f 29//208 100//208 82//208
f 82//209 100//209 120//209
f 120//210 100//210 101//210
f 120//211 101//211 121//211
f 121//212 101//212 102//212
f 121//213 102//213 114//213
f 121//214 114//214 109//214
f 97//215 109//215 119//215
f 102//216 104//216 98//216
f 98//217 104//217 99//217
f 106//218 20//218 78//218
f 106//219 78//219 77//219
f 106//220 77//220 76//220
f 106//221 76//221 75//221
f 106//222 75//222 74//222
f 79//223 120//223 74//223
f 74//224 120//224 106//224
f 106//225 120//225 121//225
f 106//226 121//226 108//226
f 108//227 121//227 109//227
f 120//228 79//228 87//228
f 120//229 87//229 86//229
f 120//230 86//230 85//230
f 120//231 85//231 84//231
f 120//232 84//232 83//232
f 120//233 83//233 82//233
f 89//234 105//234 88//234
f 88//235 105//235 107//235
f 107//236 105//236 108//236
f 89//237 90//237 105//237
f 16//238 105//238 90//238
f 102//239 98//239 110//239
f 110//240 98//240 92//240
f 110//241 92//241 119//241
f 119//242 92//242 93//242
f 119//243 93//243 94//243
f 119//244 94//244 97//244
