# Blender v2.76 (sub 0) OBJ File: ''
# www.blender.org
mtllib left_little_limb1.mtl
o Left_Little_Limb1
v 14.154657 0.078752 -15.063710
v 24.600863 -3.397165 -19.320164
v 22.608871 -0.530460 -19.579023
v 21.729433 4.541194 -20.824085
v 20.651417 3.482102 -16.976219
v 25.979885 -1.539398 -13.217197
v 21.649893 4.225292 -7.634241
v 27.849510 -0.115195 -11.465953
v 24.429214 4.591165 -12.304564
v 20.207783 1.796138 -10.020829
v 21.920361 -4.891181 -8.860646
v 30.844627 2.050085 -14.727777
v 17.083519 -2.131907 -7.344194
v 15.877317 -2.738511 -11.714104
v 17.440176 -4.569993 -15.454850
v 24.640491 -1.559090 -22.352364
v 21.814722 6.130035 -16.841820
v 17.517803 4.641120 -13.197915
v 19.260485 5.132305 -13.884525
v 2.987331 4.570029 -7.091396
v 2.973902 4.378446 -7.125729
v 3.226845 4.883225 -6.699418
v 3.124223 4.843214 -6.860678
v 3.040117 4.733234 -6.998322
v 7.378030 4.962271 -0.285506
v 3.216532 -2.001785 -7.204133
v 3.401491 -2.459719 -6.951116
v 3.506803 -2.495709 -6.791099
v 3.244437 -2.192476 -7.174593
v 3.309376 -2.353255 -7.085760
v 7.659290 -2.416638 -0.375176
v 7.911602 -1.912383 0.050123
v 7.898231 -2.103859 0.015888
v 7.845605 -2.266877 -0.076925
v 7.761714 -2.376693 -0.214226
v 7.668972 4.467848 0.128527
v 7.483544 4.926223 -0.125181
v 7.641001 4.658643 0.098892
v 7.575887 4.819603 0.009802
v -6.586737 4.214228 4.786545
v -16.188482 2.263705 3.630470
v -8.649905 4.129419 4.147088
v -7.868039 3.788459 6.129102
v -11.774099 -3.968632 1.599859
v -17.710653 -1.347673 5.373079
v -17.508751 3.364652 9.661022
v -14.781336 5.492177 8.858391
v -16.650192 4.065926 12.552447
v -12.187333 0.379712 13.986396
v -13.167736 1.476289 12.002739
v -19.277342 -7.588984 10.418394
v -18.470133 -8.257200 3.194510
v -14.767113 1.252177 9.702627
v -21.675917 -0.604698 15.105921
v -17.847506 -8.129222 13.449426
v -6.504909 -3.050256 5.193310
v -8.123051 -3.810163 3.727916
v -5.778599 -0.065467 7.705812
v -7.165566 -5.137887 9.883311
v -9.523016 0.192128 1.554669
v -8.298248 -3.213305 14.122649
v -6.026483 -0.242630 9.819749
v -4.707601 -1.614510 8.612992
v -15.995817 0.523418 3.067179
vn 0.455700 0.388900 0.800700
vn -0.916300 -0.238000 -0.322200
vn 0.431200 -0.893500 -0.125100
vn -0.339100 0.123100 -0.932700
vn 0.086400 0.725800 -0.682500
vn -0.549000 -0.257200 0.795300
vn -0.257500 -0.347800 -0.901500
vn 0.007500 0.698600 -0.715500
vn -0.333400 0.055800 -0.941100
vn 0.572100 -0.814800 -0.093800
vn -0.584300 -0.281700 -0.761100
vn 0.281500 -0.752300 0.595600
vn 0.469200 -0.104100 0.877000
vn 0.649600 -0.754200 0.095900
vn 0.294900 0.648800 0.701500
vn -0.139200 -0.846000 -0.514700
vn 0.958100 0.239200 0.157500
vn 0.863000 0.462700 -0.203100
vn 0.773600 -0.311900 -0.551600
vn 0.474100 -0.862100 -0.178700
vn -0.883400 -0.439500 -0.162900
vn 0.422700 -0.706700 0.567400
vn -0.193900 -0.806700 -0.558200
vn 0.355300 0.748800 0.559500
vn 0.232400 -0.122900 0.964800
vn 0.490900 -0.211200 0.845200
vn 0.781300 0.254400 0.570000
vn -0.612200 -0.361900 0.703000
vn 0.521800 -0.270300 0.809100
vn -0.822000 -0.266100 -0.503500
vn -0.722600 0.278600 -0.632700
vn -0.469400 -0.260700 -0.843600
vn -0.520300 0.185800 -0.833500
vn 0.156300 0.930800 -0.330400
vn -0.089700 0.804100 -0.587700
vn -0.330200 0.545900 -0.770000
vn 0.271600 0.944000 -0.187400
vn -0.142500 0.918500 -0.368900
vn -0.750300 0.315600 0.580900
vn -0.002700 0.997100 0.076500
vn 0.453600 0.826000 0.334600
vn -0.634500 0.722500 -0.274700
vn -0.632800 0.710900 -0.306700
vn -0.434100 0.596200 -0.675300
vn -0.037200 0.939600 0.340100
vn -0.582000 -0.012100 -0.813100
vn 0.043000 -0.968300 -0.246100
vn -0.545000 -0.205700 -0.812900
vn -0.197400 -0.830200 -0.521400
vn -0.404600 -0.562000 -0.721400
vn -0.423800 -0.873900 0.238300
vn 0.040800 -0.754200 -0.655300
vn -0.708600 -0.539100 0.455200
vn -0.653400 0.379400 0.655100
vn 0.437900 0.866100 -0.241100
vn -0.828000 0.526000 -0.194500
vn 0.551800 -0.722600 -0.416300
vn 0.824300 0.114900 -0.554400
vn 0.591800 -0.283300 -0.754700
vn 0.896000 -0.112800 0.429600
vn 0.164200 -0.981900 -0.094200
vn -0.136800 -0.964800 -0.224400
vn 0.614700 -0.180200 0.767900
vn 0.524200 -0.542800 0.656200
vn 0.358100 -0.823600 0.439900
vn 0.142200 -0.978100 0.152300
vn 0.627800 0.014300 0.778300
vn 0.460300 -0.292400 0.838200
vn 0.122900 0.982500 0.140000
vn 0.478000 0.202800 0.854600
vn 0.412600 0.563200 0.715900
vn 0.287700 0.837400 0.464600
vn -0.838700 -0.038600 0.543300
vn -0.838700 -0.038500 0.543300
vn 0.838700 0.038600 -0.543300
vn -0.046900 0.998700 0.018100
vn -0.224700 0.957700 -0.179500
vn -0.046700 0.998700 0.018300
vn 0.111900 0.891200 0.439600
vn 0.240800 0.835100 0.494700
vn -0.194200 0.973800 -0.118000
vn -0.496500 0.186700 -0.847700
vn -0.457600 0.547500 -0.700600
vn -0.351300 0.824300 -0.444000
vn -0.513700 0.269100 -0.814600
vn -0.567800 -0.011500 -0.823100
vn -0.392200 -0.469400 -0.791100
vn -0.476100 -0.202200 -0.855800
vn -0.019500 -0.978100 -0.207200
vn -0.207700 -0.831400 -0.515300
vn -0.367900 -0.559100 -0.743000
vn -0.929200 0.269700 -0.252700
vn -0.164000 0.959300 0.229700
vn 0.173400 0.898500 0.403200
vn 0.514200 -0.366700 0.775300
vn 0.616500 -0.787300 0.007900
vn -0.387300 -0.777100 -0.496000
vn -0.507800 -0.540400 -0.670900
vn -0.604900 -0.784800 -0.134900
vn 0.515400 0.855900 -0.043400
vn 0.660400 0.660900 -0.356400
vn -0.981500 0.146700 -0.123200
vn -0.767700 0.508200 0.390300
vn 0.131100 -0.149100 0.980100
vn -0.152900 0.514000 -0.844100
vn 0.039500 -0.999100 -0.013200
vn 0.274700 -0.943400 0.185900
vn -0.124100 -0.899900 -0.418100
vn 0.070400 -0.996400 -0.046600
vn -0.962100 0.004400 0.272800
vn -0.511400 -0.548100 -0.661900
vn -0.964200 -0.163600 -0.208700
vn -0.413500 -0.537200 0.735100
vn 0.599100 0.796800 0.078700
vn -0.385700 -0.822800 -0.417400
vn 0.957800 -0.023800 -0.286400
vn -0.827400 -0.169100 0.535600
vn -0.297600 0.050000 0.953400
vn 0.921600 -0.086600 -0.378400
vn 0.238600 -0.967100 0.088200
vn 0.564200 -0.183300 0.805000
vn 0.419400 -0.816500 0.396800
vn 0.534200 -0.541900 0.648900
vn 0.561600 0.011200 0.827300
vn 0.535900 -0.604200 0.589700
vn 0.226800 0.604200 0.763900
vn 0.167900 0.980500 0.101900
vn 0.548300 -0.116800 0.828100
vn 0.593800 -0.127900 0.794400
vn 0.557700 -0.091600 0.825000
vn -0.268500 0.061700 -0.961300
vn -0.643200 0.170400 -0.746500
vn -0.910300 0.212100 -0.355500
vn 0.531300 0.205500 0.821900
vn -0.045900 0.967700 0.247800
vn 0.186600 0.829000 0.527200
vn 0.389900 0.561600 0.729700
vn 0.396200 0.742600 0.540000
vn -0.932200 -0.136700 0.335300
vn -0.845000 0.164900 0.508800
vn 0.411600 0.532500 -0.739600
vn -0.571400 0.317400 0.756800
vn -0.810100 -0.249400 0.530500
vn 0.347800 0.785100 -0.512400
vn 0.947400 0.220600 -0.231800
vn -0.844600 -0.516100 -0.142300
vn -0.799100 -0.594700 0.088000
vn 0.035300 0.846000 -0.532000
vn 0.606200 0.334000 0.721800
vn 0.864600 -0.357900 0.352600
vn -0.600300 -0.775300 0.196300
vn 0.965300 0.170800 -0.197500
vn 0.664100 0.405800 -0.627900
vn 0.427600 0.860700 -0.276500
vn -0.487700 -0.561300 0.668600
vn -0.696200 -0.482800 0.531200
vn 0.661100 0.705900 -0.254300
vn -0.629700 -0.742600 0.228000
vn -0.549200 -0.703900 0.450500
vn -0.181000 0.949900 0.254700
vn -0.289500 -0.956800 0.026000
vn 0.781700 -0.139500 0.607800
vn -0.326800 0.041600 -0.944200
vn 0.196300 -0.872000 0.448300
vn -0.384600 0.921700 0.051200
vn -0.179300 0.857900 -0.481500
vn 0.177800 -0.955900 -0.233800
vn -0.057700 -0.024600 0.998000
vn 0.521100 -0.848400 -0.093500
vn 0.458600 -0.888500 -0.016800
vn -0.420600 -0.906500 0.036900
usemtl None
s off
f 1//1 2//1 3//1
f 4//2 3//2 5//2
f 4//3 5//3 1//3
f 1//4 5//4 2//4
f 6//5 7//5 8//5
f 6//6 8//6 9//6
f 9//7 8//7 10//7
f 10//8 7//8 6//8
f 9//9 12//9 6//9
f 6//10 12//10 11//10
f 6//11 11//11 10//11
f 7//12 10//12 12//12
f 7//13 11//13 8//13
f 8//14 11//14 12//14
f 8//15 12//15 10//15
f 2//16 15//16 16//16
f 2//17 16//17 17//17
f 17//18 16//18 4//18
f 9//19 5//19 17//19
f 9//20 10//20 5//20
f 10//21 19//21 5//21
f 5//22 19//22 18//22
f 10//23 18//23 17//23
f 10//24 17//24 19//24
f 11//25 7//25 13//25
f 18//26 15//26 2//26
f 18//27 2//27 5//27
f 3//28 2//28 17//28
f 3//29 17//29 5//29
f 4//30 16//30 3//30
f 3//31 16//31 15//31
f 3//32 15//32 1//32
f 20//33 1//33 21//33
f 22//34 1//34 23//34
f 23//35 1//35 24//35
f 24//36 1//36 20//36
f 22//37 25//37 1//37
f 1//38 25//38 7//38
f 1//39 7//39 18//39
f 18//40 7//40 9//40
f 9//41 7//41 12//41
f 4//42 1//42 17//42
f 17//43 1//43 19//43
f 19//44 1//44 18//44
f 9//45 17//45 18//45
f 26//46 21//46 1//46
f 27//47 1//47 28//47
f 26//48 1//48 29//48
f 30//49 1//49 27//49
f 29//50 1//50 30//50
f 13//51 14//51 11//51
f 14//52 1//52 11//52
f 11//53 1//53 15//53
f 10//54 1//54 14//54
f 15//55 14//55 13//55
f 15//56 13//56 10//56
f 10//57 13//57 1//57
f 11//58 15//58 10//58
f 18//59 10//59 14//59
f 18//60 14//60 15//60
f 28//61 1//61 31//61
f 31//62 1//62 13//62
f 13//63 32//63 33//63
f 13//64 33//64 34//64
f 13//65 34//65 35//65
f 13//66 35//66 31//66
f 32//67 13//67 36//67
f 36//68 13//68 7//68
f 37//69 7//69 25//69
f 36//70 7//70 38//70
f 38//71 7//71 39//71
f 39//72 7//72 37//72
f 31//73 26//73 28//73
f 28//73 26//73 29//73
f 28//73 29//73 30//73
f 35//74 34//74 31//74
f 31//73 34//73 33//73
f 31//73 33//73 32//73
f 36//73 21//73 32//73
f 32//73 21//73 26//73
f 32//73 26//73 31//73
f 38//73 25//73 36//73
f 36//73 25//73 22//73
f 36//73 22//73 21//73
f 21//73 22//73 20//73
f 20//73 22//73 24//73
f 24//73 22//73 23//73
f 38//73 39//73 25//73
f 25//73 39//73 37//73
f 30//73 27//73 28//73
f 28//75 32//75 31//75
f 21//75 36//75 26//75
f 26//75 36//75 32//75
f 26//75 32//75 28//75
f 21//75 22//75 25//75
f 21//75 25//75 36//75
f 22//76 40//76 25//76
f 41//77 42//77 22//77
f 22//78 42//78 40//78
f 25//79 40//79 49//79
f 49//80 40//80 43//80
f 23//81 41//81 22//81
f 21//82 41//82 20//82
f 20//83 41//83 24//83
f 24//84 41//84 23//84
f 44//85 60//85 26//85
f 26//86 60//86 21//86
f 21//87 60//87 41//87
f 29//88 44//88 26//88
f 28//89 44//89 27//89
f 27//90 44//90 30//90
f 30//91 44//91 29//91
f 45//92 46//92 41//92
f 42//93 50//93 43//93
f 50//94 42//94 46//94
f 46//95 42//95 47//95
f 46//96 47//96 48//96
f 48//97 47//97 43//97
f 48//98 43//98 50//98
f 48//99 50//99 49//99
f 41//100 46//100 49//100
f 49//101 46//101 48//101
f 45//102 52//102 51//102
f 51//103 49//103 45//103
f 54//104 55//104 49//104
f 51//105 54//105 49//105
f 31//106 56//106 28//106
f 28//107 56//107 57//107
f 59//108 56//108 31//108
f 28//109 57//109 44//109
f 58//110 40//110 56//110
f 40//111 58//111 43//111
f 59//112 43//112 56//112
f 57//113 56//113 41//113
f 57//114 41//114 59//114
f 59//115 41//115 60//115
f 59//116 60//116 42//116
f 42//117 60//117 56//117
f 42//118 56//118 40//118
f 43//119 59//119 42//119
f 35//120 59//120 31//120
f 32//121 59//121 33//121
f 34//122 59//122 35//122
f 34//123 33//123 59//123
f 36//124 63//124 32//124
f 49//125 58//125 36//125
f 36//126 58//126 63//126
f 49//127 62//127 58//127
f 62//128 49//128 59//128
f 62//129 59//129 63//129
f 63//130 59//130 32//130
f 64//131 44//131 52//131
f 64//132 52//132 41//132
f 45//133 41//133 52//133
f 38//134 49//134 36//134
f 25//135 49//135 37//135
f 37//136 49//136 39//136
f 39//137 49//137 38//137
f 49//138 43//138 47//138
f 41//139 49//139 47//139
f 50//140 45//140 49//140
f 44//141 41//141 56//141
f 44//142 56//142 60//142
f 63//143 58//143 56//143
f 63//144 56//144 62//144
f 62//145 56//145 43//145
f 62//146 43//146 58//146
f 53//147 41//147 44//147
f 53//148 44//148 45//148
f 45//149 44//149 64//149
f 45//150 64//150 46//150
f 53//151 46//151 64//151
f 53//152 64//152 41//152
f 50//153 61//153 45//153
f 45//154 61//154 59//154
f 45//155 59//155 53//155
f 50//156 53//156 61//156
f 49//157 61//157 53//157
f 59//158 49//158 53//158
f 46//159 53//159 50//159
f 59//160 51//160 55//160
f 59//161 54//161 44//161
f 44//162 54//162 51//162
f 59//163 55//163 54//163
f 61//164 51//164 59//164
f 61//165 44//165 51//165
f 41//166 47//166 42//166
f 59//167 44//167 57//167
f 61//168 49//168 55//168
f 44//169 61//169 52//169
f 52//170 61//170 55//170
f 52//171 55//171 51//171
