# Blender v2.76 (sub 0) OBJ File: ''
# www.blender.org
mtllib left_thumb_limb3.mtl
o Left_Thumb_Limb3
v 3.504372 -10.003391 -0.031825
v -1.219739 -3.134608 2.155820
v 9.415059 -6.104748 5.555634
v 4.571858 -0.084019 -0.211789
v -0.467402 -1.069194 -4.158432
v -0.378821 -1.013078 -4.280421
v -0.274177 -0.931304 -4.365579
v -0.163194 -0.831469 -4.405994
v -0.056184 -0.722850 -4.397911
v 0.036912 -0.615538 -4.342081
v 0.155716 1.628537 3.751788
v 0.068674 1.572761 3.869232
v -0.036453 1.489379 3.950104
v -0.149375 1.386555 3.986487
v -0.259039 1.274354 3.974820
v -0.354710 1.163757 3.916244
v -3.174326 -2.509850 0.613214
v -3.141144 -2.299065 1.290022
v -3.213457 -2.397230 1.190272
v -3.255334 -2.473354 1.059112
v -3.262675 -2.519987 0.909381
v -3.234762 -2.532562 0.755735
v 0.140557 -0.912002 3.309448
v 1.610130 -1.568160 0.702657
v 1.914143 0.396857 -2.424301
v 2.862640 3.069193 -1.019858
v 2.845500 2.874816 -1.694979
v 2.915003 2.969572 -1.597560
v 2.953425 3.041688 -1.468572
v 2.957196 3.084464 -1.320000
v 2.925968 3.093925 -1.165649
v 1.173816 0.797343 -3.270546
v 1.708596 1.461936 -2.766515
v 1.122688 0.791333 -3.099696
v 1.116235 0.830597 -2.925752
v 1.155278 0.910133 -2.770867
v 1.234846 1.019812 -2.654767
v 1.344804 1.145665 -2.592238
v 1.471149 1.271664 -2.591244
v 1.597789 1.381762 -2.651912
v -5.663442 7.734169 -2.830553
v -2.635808 7.605943 -2.228676
v -6.199076 3.479705 -2.840661
v -0.807491 3.924056 -4.224094
v 0.446951 2.552136 -3.939163
vn 0.714700 -0.089500 -0.693600
vn -0.544100 -0.538900 -0.643000
vn -0.272300 -0.504700 -0.819200
vn 0.043300 -0.415900 -0.908400
vn 0.354700 -0.283100 -0.891100
vn 0.615500 -0.129600 -0.777400
vn 0.424700 0.654400 0.625600
vn 0.058300 0.275500 0.959500
vn -0.315800 -0.216100 0.923900
vn 0.252500 0.490600 0.834000
vn -0.137700 0.031600 0.990000
vn -0.653900 -0.536900 -0.533100
vn -0.608500 -0.588200 0.532800
vn -0.514600 -0.394500 0.761300
vn -0.510400 -0.662900 0.547700
vn -0.432400 -0.854600 0.287400
vn -0.301000 -0.953300 0.023300
vn -0.140400 -0.966800 -0.213600
vn -0.383300 -0.342200 0.857900
vn -0.028500 0.707000 0.706700
vn -0.387900 -0.511100 0.767000
vn -0.478800 -0.876500 -0.049300
vn -0.398400 -0.343600 0.850400
vn -0.464500 -0.167100 0.869700
vn -0.507200 0.723700 -0.468100
vn 0.007100 -0.975400 -0.220500
vn 0.816500 -0.564000 0.123800
vn -0.203600 0.837800 0.506700
vn 0.676800 0.504300 0.536200
vn 0.572900 0.758500 0.310600
vn 0.752800 0.114300 -0.648200
vn 0.865300 0.281200 -0.415000
vn 0.901200 0.409900 -0.140900
vn 0.860400 0.488900 0.144100
vn 0.751800 0.513500 0.413700
vn 0.732300 -0.076100 -0.676700
vn 0.689400 -0.641600 -0.336200
vn 0.940100 0.232800 -0.249200
vn -0.301900 0.015200 -0.953200
vn 0.638300 -0.013400 -0.769700
vn 0.346300 0.928200 0.136300
vn 0.548900 0.819500 -0.164600
vn 0.631500 0.613500 -0.474200
vn 0.577300 0.358000 -0.733900
vn 0.401700 0.101300 -0.910200
vn 0.129600 -0.122200 -0.984000
vn -0.203800 -0.282100 -0.937500
vn -0.539000 -0.350200 -0.766100
vn -0.693500 0.696800 -0.183000
vn 0.422500 0.102000 -0.900600
vn -0.334800 -0.009300 -0.942300
vn -0.793800 -0.062000 -0.605000
vn 0.032200 0.042600 -0.998600
vn -0.609700 -0.043900 -0.791400
vn -0.859400 -0.065200 -0.507200
vn -0.163900 -0.553600 -0.816500
vn -0.708900 -0.585100 -0.393800
vn -0.861600 -0.494200 -0.116100
vn -0.922200 -0.354100 0.155500
vn -0.899600 -0.186000 0.395200
vn -0.807200 -0.005200 0.590300
vn -0.738500 0.087200 0.668600
vn -0.737500 0.091300 0.669200
vn -0.667700 0.197500 0.717700
vn -0.492700 0.401300 0.772200
vn -0.280400 0.578800 0.765700
vn -0.037200 0.719500 0.693500
vn 0.224300 0.805400 0.548700
vn -0.186200 -0.538000 0.822100
vn 0.682900 0.004500 -0.730500
vn 0.304500 0.081300 -0.949000
vn 0.596500 0.401100 -0.695200
vn -0.019700 0.960200 0.278700
vn 0.635900 0.758700 0.141600
vn 0.060200 0.979500 0.192300
vn 0.227700 0.973600 -0.013600
vn 0.540300 0.655600 -0.527500
vn 0.599700 0.315900 -0.735200
vn 0.398800 0.878500 -0.263100
vn -0.555500 -0.325800 -0.765000
vn -0.767200 -0.568500 0.296900
vn 0.123900 -0.249500 0.960400
vn -0.160000 0.022500 -0.986900
vn 0.536800 0.485300 0.690200
vn 0.699900 0.675100 0.233200
vn 0.706400 0.695600 -0.130800
vn 0.624300 0.619700 -0.475600
vn 0.467200 0.460200 -0.754900
vn 0.257500 0.240100 -0.936000
vn 0.021300 -0.013500 -0.999700
vn 0.199100 0.184200 -0.962500
vn -0.316700 -0.151700 -0.936300
vn -0.259700 0.357300 -0.897200
usemtl None
s off
f 1//1 4//1 3//1
f 1//2 5//2 6//2
f 1//3 6//3 7//3
f 1//4 7//4 8//4
f 1//5 8//5 9//5
f 1//6 9//6 10//6
f 3//7 11//7 12//7
f 3//8 13//8 14//8
f 3//9 15//9 16//9
f 12//10 13//10 3//10
f 14//11 15//11 3//11
f 5//12 1//12 17//12
f 17//13 1//13 2//13
f 2//14 18//14 19//14
f 2//15 19//15 20//15
f 2//16 20//16 21//16
f 2//17 21//17 22//17
f 2//18 22//18 17//18
f 18//19 23//19 16//19
f 24//20 2//20 3//20
f 3//21 2//21 1//21
f 24//22 3//22 23//22
f 23//23 3//23 16//23
f 2//24 23//24 18//24
f 4//25 24//25 23//25
f 4//26 23//26 25//26
f 25//27 23//27 2//27
f 25//28 2//28 24//28
f 26//29 11//29 4//29
f 4//30 11//30 3//30
f 4//31 27//31 28//31
f 4//32 28//32 29//32
f 4//33 29//33 30//33
f 4//34 30//34 31//34
f 4//35 31//35 26//35
f 32//36 25//36 10//36
f 10//37 25//37 24//37
f 10//38 24//38 1//38
f 1//39 24//39 4//39
f 27//40 4//40 25//40
f 25//36 33//36 27//36
f 32//41 34//41 25//41
f 25//42 34//42 35//42
f 25//43 35//43 36//43
f 25//44 36//44 37//44
f 25//45 37//45 38//45
f 25//46 38//46 39//46
f 25//47 39//47 40//47
f 25//48 40//48 33//48
f 26//49 38//49 11//49
f 11//49 38//49 16//49
f 11//49 16//49 15//49
f 31//49 29//49 26//49
f 26//49 29//49 28//49
f 26//49 28//49 27//49
f 31//49 30//49 29//49
f 33//49 40//49 27//49
f 27//49 40//49 39//49
f 27//49 39//49 26//49
f 26//49 39//49 38//49
f 38//49 37//49 16//49
f 16//49 37//49 18//49
f 18//49 37//49 36//49
f 18//49 36//49 17//49
f 17//49 36//49 5//49
f 5//49 36//49 35//49
f 5//49 35//49 10//49
f 10//49 35//49 34//49
f 10//49 34//49 32//49
f 10//49 9//49 5//49
f 5//49 9//49 8//49
f 5//49 8//49 6//49
f 6//49 8//49 7//49
f 22//49 21//49 17//49
f 17//49 21//49 20//49
f 17//49 20//49 19//49
f 19//49 18//49 17//49
f 15//49 14//49 11//49
f 11//49 14//49 13//49
f 11//49 13//49 12//49
f 44//50 10//50 9//50
f 44//51 8//51 7//51
f 44//52 6//52 5//52
f 9//53 8//53 44//53
f 7//54 6//54 44//54
f 17//55 44//55 5//55
f 43//56 44//56 17//56
f 43//57 17//57 22//57
f 43//58 22//58 21//58
f 43//59 21//59 20//59
f 43//60 20//60 19//60
f 43//61 19//61 18//61
f 43//62 18//62 16//62
f 43//63 16//63 41//63
f 16//64 15//64 41//64
f 41//65 15//65 14//65
f 41//66 14//66 13//66
f 41//67 13//67 12//67
f 41//68 12//68 11//68
f 41//69 44//69 42//69
f 32//70 10//70 45//70
f 45//71 10//71 44//71
f 45//72 44//72 27//72
f 45//70 27//70 33//70
f 26//73 44//73 11//73
f 11//74 44//74 41//74
f 44//75 26//75 31//75
f 44//76 31//76 30//76
f 44//77 29//77 28//77
f 44//78 28//78 27//78
f 30//79 29//79 44//79
f 40//80 42//80 33//80
f 33//81 42//81 45//81
f 45//82 42//82 43//82
f 45//83 43//83 41//83
f 45//84 41//84 32//84
f 32//85 41//85 34//85
f 34//86 41//86 35//86
f 35//87 41//87 36//87
f 36//88 41//88 37//88
f 37//89 41//89 38//89
f 38//90 41//90 39//90
f 39//91 41//91 42//91
f 39//92 42//92 40//92
f 44//93 43//93 42//93
