# Blender v2.76 (sub 0) OBJ File: ''
# www.blender.org
mtllib left_ring_limb0.mtl
o Left_Ring_Limb0
v 1.522788 3.808401 3.478925
v 2.309759 -0.403275 6.066841
v 4.039318 -3.879483 4.139568
v -0.185265 -4.804714 0.174889
v -3.042825 0.893246 0.963972
v 2.171759 3.751395 -0.790764
v 4.396230 -0.684189 -1.405027
v 5.585898 -0.597607 -1.791929
v 5.737791 -0.485451 -1.843728
v 5.856593 -0.335597 -1.885718
v 5.934209 -0.158257 -1.915037
v 5.965349 0.034484 -1.929687
v 5.947891 0.229491 -1.928671
v 5.883024 0.413474 -1.912056
v 5.039208 -0.897252 -1.607965
v 4.485552 -0.809975 -1.430935
v 4.607296 -0.900886 -1.468159
v 4.749543 -0.948022 -1.513055
v 4.898370 -0.946770 -1.561229
v -3.360510 2.779820 1.021940
v -3.082034 3.197532 0.921937
v -3.596671 2.334068 1.108921
v -3.788041 1.864947 1.181967
v -3.932615 1.377375 1.240314
v -4.028877 0.876461 1.283348
v -4.075818 0.367457 1.310621
v -4.072947 -0.144303 1.321845
v -4.020293 -0.653455 1.316902
v -3.918409 -1.154662 1.295846
v -3.768362 -1.642672 1.258896
v -3.571725 -2.112368 1.206439
v -3.330559 -2.558829 1.139027
v -3.047391 -2.977374 1.057364
v -2.725190 -3.363617 0.962307
v -2.367333 -3.713509 0.854853
v -1.977570 -4.023383 0.736127
v -1.559987 -4.289991 0.607374
v -1.118961 -4.510539 0.469944
v -0.659114 -4.682714 0.325277
v -1.887427 3.079325 0.538300
v -1.989207 3.232738 0.567582
v -2.123827 3.355423 0.608217
v -2.282615 3.439516 0.657586
v -2.456106 3.480047 0.712746
v -2.633519 3.474405 0.770272
v -2.803546 3.423021 0.826494
v -2.956374 3.328764 0.878170
v 2.369843 4.425449 -0.870849
v 2.250779 4.332513 -0.830126
v 2.165144 4.205255 -0.799402
v 2.121322 4.056133 -0.781685
v 2.123601 3.899743 -0.778709
v 2.916533 4.725094 -1.054814
v 3.881000 4.405500 -1.359219
v 3.773146 4.565921 -1.328139
v 3.629654 4.691848 -1.284711
v 3.460303 4.774699 -1.231896
v 3.276634 4.808827 -1.173291
v 3.091165 4.791908 -1.112892
v -1.499042 2.304887 0.431052
v -2.760635 1.613399 0.855585
v -2.538188 1.169841 0.794159
v -0.637400 3.801084 -3.272499
v 1.178345 -3.187152 -5.112756
v -2.227680 0.028899 -5.931075
vn 0.582900 0.391000 -0.712300
vn 0.446800 0.069600 -0.891900
vn -0.937700 -0.318800 -0.138300
vn -0.872000 -0.397800 -0.285400
vn 0.630200 -0.723900 0.280600
vn 0.780400 -0.522400 0.343600
vn 0.867400 -0.316100 0.384200
vn 0.905800 -0.115400 0.407800
vn 0.905000 0.078800 0.418000
vn 0.868600 0.268600 0.416500
vn 0.527500 -0.815000 0.240000
vn 0.909200 0.283200 0.305100
vn -0.798800 -0.497600 -0.338200
vn -0.622400 -0.663400 -0.415400
vn -0.406800 -0.789100 -0.460300
vn -0.144700 -0.870800 -0.469800
vn 0.168800 -0.886600 -0.430700
vn -0.425400 0.468900 0.774000
vn -0.486000 0.389800 0.782200
vn -0.471600 0.402900 0.784300
vn -0.511400 0.332000 0.792600
vn -0.544200 0.256900 0.798600
vn -0.569500 0.178400 0.802400
vn -0.586900 0.097200 0.803800
vn -0.596200 0.014300 0.802700
vn -0.597000 -0.069500 0.799200
vn -0.589200 -0.153100 0.793300
vn -0.572900 -0.235600 0.785000
vn -0.548100 -0.316000 0.774400
vn -0.515100 -0.393200 0.761600
vn -0.474100 -0.466500 0.746700
vn -0.425700 -0.534700 0.730000
vn -0.380700 -0.586000 0.715300
vn -0.376700 -0.601600 0.704400
vn -0.347200 -0.682900 0.642700
vn -0.307000 -0.758500 0.574800
vn -0.256400 -0.825800 0.502400
vn -0.196000 -0.882600 0.427300
vn -0.127100 -0.927400 0.351900
vn 0.513400 0.476800 -0.713500
vn 0.412200 0.660300 -0.627800
vn 0.283800 0.823900 -0.490500
vn 0.127300 0.946800 -0.295500
vn -0.047800 0.997600 -0.049600
vn -0.216700 0.952300 0.215100
vn -0.351400 0.818700 0.454200
vn -0.438400 0.632700 0.638400
vn -0.617100 0.786800 -0.008600
vn -0.835600 0.544200 -0.075000
vn -0.956400 0.266900 -0.118800
vn -0.990000 -0.017100 -0.140100
vn -0.945100 -0.295400 -0.139700
vn -0.471800 0.881100 0.033100
vn 0.783500 0.442200 0.436500
vn 0.668500 0.620100 0.410600
vn 0.498600 0.785700 0.366200
vn 0.265300 0.917200 0.297200
vn -0.023700 0.979200 0.201600
vn -0.330100 0.939800 0.088500
vn 0.836200 0.362400 0.411600
vn 0.795000 0.418400 0.439200
vn 0.555700 0.381000 -0.738900
vn 0.471800 -0.881100 -0.033100
vn 0.376200 0.309600 -0.873300
vn 0.501300 -0.860800 0.087700
vn -0.307700 -0.022600 -0.951200
vn 0.307700 0.022600 0.951200
vn -0.336900 -0.872500 -0.353800
vn -0.425700 -0.825400 -0.370800
vn -0.506200 -0.768900 -0.390600
vn -0.571900 -0.710100 -0.410700
vn -0.577300 -0.707200 -0.408200
vn -0.643800 -0.664400 -0.379600
vn -0.706100 -0.613800 -0.353000
vn -0.763400 -0.556000 -0.328700
vn -0.815000 -0.491500 -0.307000
vn -0.860000 -0.421000 -0.288300
vn -0.897900 -0.345500 -0.272700
vn -0.928200 -0.265600 -0.260600
vn -0.950300 -0.182600 -0.252200
vn -0.964000 -0.097300 -0.247600
vn -0.969000 -0.010800 -0.246800
vn -0.965300 0.075600 -0.249900
vn -0.952900 0.161100 -0.256800
vn -0.932000 0.244400 -0.267500
vn -0.902900 0.324500 -0.281800
vn -0.866000 0.400400 -0.299500
vn -0.821800 0.471200 -0.320300
vn -0.746200 0.563900 -0.353800
vn -0.733000 0.587600 -0.342700
vn -0.565500 0.793200 -0.225700
vn -0.311800 0.947000 -0.077400
vn -0.006700 0.997000 0.077300
vn 0.284000 0.936600 0.205100
vn 0.516800 0.805300 0.290400
vn 0.687700 0.642900 0.337200
vn 0.809000 0.469100 0.354200
vn 0.423500 0.228500 -0.876600
vn 0.438400 0.043900 -0.897700
vn 0.434700 -0.137900 -0.889900
vn 0.412100 -0.321300 -0.852600
vn 0.366700 -0.509000 -0.778800
vn 0.291200 -0.697000 -0.655200
vn 0.239000 -0.786000 -0.570100
vn 0.512200 0.342100 -0.787800
vn 0.378200 -0.908600 0.177000
vn 0.142500 -0.897700 0.417000
vn -0.083000 -0.807200 0.584400
vn -0.287200 -0.666300 0.688200
vn -0.470600 -0.485900 0.736500
vn 0.736700 0.284500 0.613500
vn 0.941100 0.167200 0.293800
vn -0.555400 -0.380900 0.739200
vn -0.624500 -0.346600 0.699900
vn 0.855200 0.380100 0.352500
vn 0.339100 0.293800 -0.893700
vn 0.387800 0.416200 -0.822400
vn -0.640800 -0.266500 0.720000
vn -0.670400 0.004400 0.742000
vn -0.658000 0.276600 0.700400
vn -0.597800 0.544400 0.588500
vn -0.477900 0.785000 0.394300
vn -0.393700 0.880500 0.264100
vn -0.319500 0.939900 0.120500
vn -0.149500 0.970900 -0.187200
vn 0.018200 0.887700 -0.460000
vn 0.153900 0.735400 -0.660000
vn 0.251400 0.559000 -0.790200
vn 0.316800 0.381200 -0.868500
vn 0.393700 -0.880500 -0.264100
vn 0.769500 0.308500 0.559200
vn 0.335100 -0.854700 -0.396400
usemtl None
s off
f 4//1 5//1 3//1
f 3//2 5//2 1//2
f 3//3 1//3 6//3
f 3//4 6//4 7//4
f 2//5 8//5 9//5
f 2//6 9//6 10//6
f 2//7 10//7 11//7
f 2//8 11//8 12//8
f 2//9 12//9 13//9
f 2//10 13//10 14//10
f 8//11 2//11 15//11
f 15//12 2//12 3//12
f 7//13 16//13 3//13
f 16//14 17//14 3//14
f 17//15 18//15 3//15
f 18//16 19//16 3//16
f 19//17 15//17 3//17
f 20//18 2//18 21//18
f 21//19 2//19 1//19
f 2//20 20//20 22//20
f 2//21 22//21 23//21
f 2//22 23//22 24//22
f 2//23 24//23 25//23
f 2//24 25//24 26//24
f 2//25 26//25 27//25
f 2//26 27//26 28//26
f 2//27 28//27 29//27
f 2//28 29//28 30//28
f 2//29 30//29 31//29
f 2//30 31//30 32//30
f 2//31 32//31 33//31
f 2//32 33//32 34//32
f 2//33 34//33 3//33
f 3//34 34//34 35//34
f 3//35 35//35 36//35
f 3//36 36//36 37//36
f 3//37 37//37 38//37
f 3//38 38//38 39//38
f 3//39 39//39 4//39
f 1//40 40//40 41//40
f 1//41 41//41 42//41
f 1//42 42//42 43//42
f 1//43 43//43 44//43
f 1//44 44//44 45//44
f 1//45 45//45 46//45
f 46//46 47//46 1//46
f 47//47 21//47 1//47
f 1//48 48//48 49//48
f 1//49 49//49 50//49
f 1//50 50//50 51//50
f 1//51 51//51 52//51
f 1//52 52//52 6//52
f 53//53 48//53 1//53
f 1//54 54//54 55//54
f 1//55 55//55 56//55
f 1//56 56//56 57//56
f 1//57 57//57 58//57
f 1//58 58//58 59//58
f 1//59 59//59 53//59
f 14//60 54//60 2//60
f 2//61 54//61 1//61
f 40//62 1//62 60//62
f 61//63 60//63 1//63
f 61//64 1//64 62//64
f 5//65 62//65 1//65
f 60//66 61//66 40//66
f 40//66 61//66 41//66
f 41//66 61//66 42//66
f 42//66 61//66 43//66
f 43//66 61//66 44//66
f 44//66 61//66 45//66
f 45//66 61//66 46//66
f 46//66 61//66 47//66
f 47//66 61//66 21//66
f 21//66 61//66 20//66
f 20//66 61//66 22//66
f 22//66 61//66 5//66
f 22//66 5//66 23//66
f 23//66 5//66 24//66
f 24//66 5//66 25//66
f 25//66 5//66 26//66
f 26//66 5//66 27//66
f 27//66 5//66 28//66
f 28//66 5//66 29//66
f 29//66 5//66 30//66
f 30//66 5//66 31//66
f 31//66 5//66 32//66
f 32//66 5//66 33//66
f 33//66 5//66 34//66
f 34//66 5//66 35//66
f 35//66 5//66 36//66
f 36//66 5//66 37//66
f 37//66 5//66 38//66
f 38//66 5//66 39//66
f 39//66 5//66 4//66
f 61//66 62//66 5//66
f 52//66 50//66 6//66
f 6//66 50//66 49//66
f 6//66 49//66 48//66
f 52//66 51//66 50//66
f 48//66 53//66 6//66
f 6//66 53//66 54//66
f 6//66 54//66 7//66
f 7//66 54//66 14//66
f 7//66 14//66 15//66
f 15//66 14//66 8//66
f 8//66 14//66 9//66
f 9//66 14//66 10//66
f 10//66 14//66 13//66
f 10//66 13//66 11//66
f 11//66 13//66 12//66
f 59//66 58//66 53//66
f 53//66 58//66 57//66
f 53//66 57//66 56//66
f 56//66 55//66 53//66
f 53//66 55//66 54//66
f 19//66 18//66 15//66
f 15//66 18//66 17//66
f 15//66 17//66 16//66
f 16//66 7//66 15//66
f 55//67 56//67 54//67
f 54//67 56//67 57//67
f 54//67 57//67 58//67
f 58//67 59//67 54//67
f 54//67 59//67 53//67
f 39//68 64//68 4//68
f 64//69 39//69 38//69
f 64//70 38//70 37//70
f 64//71 37//71 65//71
f 65//72 37//72 36//72
f 65//73 36//73 35//73
f 65//74 35//74 34//74
f 65//75 34//75 33//75
f 65//76 33//76 32//76
f 65//77 32//77 31//77
f 65//78 31//78 30//78
f 65//79 30//79 29//79
f 65//80 29//80 28//80
f 65//81 28//81 27//81
f 65//82 27//82 26//82
f 65//83 26//83 25//83
f 65//84 25//84 24//84
f 65//85 24//85 23//85
f 65//86 23//86 22//86
f 65//87 22//87 20//87
f 65//88 20//88 21//88
f 65//89 21//89 63//89
f 21//90 47//90 63//90
f 47//91 46//91 63//91
f 63//92 46//92 45//92
f 63//93 45//93 44//93
f 63//94 44//94 43//94
f 63//95 43//95 42//95
f 63//96 42//96 41//96
f 63//97 41//97 40//97
f 65//98 14//98 13//98
f 65//99 13//99 12//99
f 65//100 12//100 11//100
f 65//101 11//101 10//101
f 65//102 10//102 9//102
f 65//103 9//103 8//103
f 8//104 15//104 65//104
f 65//105 15//105 64//105
f 64//106 15//106 19//106
f 64//107 19//107 18//107
f 64//108 18//108 17//108
f 64//109 17//109 16//109
f 64//110 16//110 7//110
f 63//111 5//111 4//111
f 63//112 4//112 64//112
f 64//113 7//113 6//113
f 6//114 63//114 64//114
f 40//115 60//115 63//115
f 54//116 14//116 63//116
f 63//117 14//117 65//117
f 6//118 52//118 63//118
f 52//119 51//119 63//119
f 51//120 50//120 63//120
f 50//121 49//121 63//121
f 49//122 48//122 63//122
f 53//123 63//123 48//123
f 63//124 53//124 59//124
f 63//125 59//125 58//125
f 63//126 58//126 57//126
f 63//127 57//127 56//127
f 63//128 56//128 55//128
f 63//129 55//129 54//129
f 61//130 63//130 60//130
f 62//131 63//131 61//131
f 5//132 63//132 62//132
